<?xml version="1.0" encoding="UTF-8" standalone="no"?>
<!-- Created with Inkscape (http://www.inkscape.org/) -->

<svg
   version="1.1"
   id="svg9"
   width="500"
   height="500"
   viewBox="0 0 500 500"
   sodipodi:docname="buy.svg"
   inkscape:version="1.1 (c68e22c387, 2021-05-23)"
   xmlns:inkscape="http://www.inkscape.org/namespaces/inkscape"
   xmlns:sodipodi="http://sodipodi.sourceforge.net/DTD/sodipodi-0.dtd"
   xmlns="http://www.w3.org/2000/svg"
   xmlns:svg="http://www.w3.org/2000/svg">
  <defs
     id="defs13" />
  <sodipodi:namedview
     id="namedview11"
     pagecolor="#505050"
     bordercolor="#ffffff"
     borderopacity="1"
     inkscape:pageshadow="0"
     inkscape:pageopacity="0"
     inkscape:pagecheckerboard="1"
     showgrid="false"
     width="500px"
     inkscape:zoom="0.91557018"
     inkscape:cx="107.58323"
     inkscape:cy="260.49341"
     inkscape:window-width="1920"
     inkscape:window-height="1017"
     inkscape:window-x="-8"
     inkscape:window-y="-8"
     inkscape:window-maximized="1"
     inkscape:current-layer="g15" />
  <g
     inkscape:groupmode="layer"
     inkscape:label="Image"
     id="g15">
    <path
       style="fill:#41fffc;stroke-width:2.09525"
       d="m 198.57883,486.18974 c -28.04467,-6.72576 -37.14962,-42.30399 -15.76934,-61.6198 8.04188,-7.26535 21.93557,-12.80047 27.63653,-11.01011 1.56387,0.49112 5.36364,1.44287 8.44389,2.11499 7.25435,1.58288 17.75635,10.47928 21.95484,18.59831 4.20264,8.12696 4.25833,24.0805 0.11189,32.02373 -4.83298,9.25825 -14.13169,16.9968 -23.47661,19.53765 -9.26211,2.51837 -9.83642,2.52916 -18.90111,0.35523 z m 161.76347,-0.99393 c -10.0586,-3.70656 -15.4729,-8.5769 -20.51297,-18.45201 -13.80774,-27.0539 11.16205,-58.78524 40.91825,-51.99848 18.10968,4.13044 29.06238,19.0881 27.89206,38.091 -1.52593,24.77698 -25.42343,40.78843 -48.29734,32.35949 z M 191.16239,390.99066 C 170.69627,385.47167 157.8588,373.01571 149.37128,350.44144 146.86594,343.77797 131.74075,289.0915 115.75977,228.91594 99.778761,168.74039 85.297521,116.78716 83.579231,113.46432 77.997141,102.66978 70.951721,99.834057 46.509251,98.543986 20.870111,97.190755 17.383231,95.395062 17.383231,83.544467 c 0,-12.781254 5.39794,-15.096545 32.98692,-14.148786 19.51999,0.670569 24.14455,1.561037 34.54224,6.651183 18.014489,8.818899 26.103949,20.357323 33.027929,47.109376 l 2.33516,9.02235 20.31631,-0.24746 c 11.17397,-0.13608 21.30548,-0.18897 22.51446,-0.11752 1.20901,0.0715 3.39159,3.43029 4.85022,7.46406 1.45863,4.03377 5.03188,10.16238 7.94055,13.61915 l 5.28851,6.28503 h -26.54341 -26.54341 l 1.2968,5.76195 c 0.71322,3.16907 8.62163,33.10501 17.57421,66.5243 l 16.27744,60.76236 123.75651,0.54032 123.75651,0.54033 15.97977,-63.89732 c 8.78887,-35.14351 15.97977,-65.32259 15.97977,-67.06462 0,-2.65281 -4.1436,-3.16732 -25.50827,-3.16732 h -25.50829 l 4.4257,-4.71432 c 2.43412,-2.59287 6.28989,-8.88018 8.56835,-13.97179 l 4.14265,-9.25747 30.03527,0.50794 c 32.97196,0.5576 37.36864,2.06511 37.36864,12.81277 0,3.12411 -8.9957,42.34255 -19.99043,87.15211 -14.64451,59.68433 -21.10353,82.59255 -24.15267,85.66241 -4.05867,4.08627 -7.33996,4.20471 -131.91544,4.76153 -146.22639,0.65359 -132.80397,-1.74669 -120.94366,21.62786 11.16592,22.00598 3.1728,20.74676 131.71841,20.75057 108.3538,0.004 110.33662,0.0777 115.76276,4.34583 6.69239,5.26424 7.55195,16.21749 1.68903,21.52334 -3.46901,3.13941 -14.42618,3.45424 -115.76276,3.32622 -81.59485,-0.10309 -114.52089,-0.8398 -121.48662,-2.71819 z m 17.30797,-131.65569 c -1.38287,-1.38286 -2.51431,-7.79434 -2.51431,-14.24772 0,-6.45338 1.13144,-12.86486 2.51431,-14.24772 3.98406,-3.98407 13.81103,-3.0548 16.26927,1.53846 2.97241,5.55403 2.73774,23.8739 -0.34534,26.95698 -3.24119,3.24119 -12.68274,3.24119 -15.92393,0 z m 63.8354,1.11747 c -0.76827,-0.76825 -1.39684,-7.82177 -1.39684,-15.67447 0,-13.70405 0.22348,-14.33373 5.56244,-15.67373 9.02679,-2.2656 12.17072,1.34804 12.88086,14.80523 0.37182,7.04617 -0.38347,13.23318 -1.82798,14.97371 -2.5176,3.03352 -12.70388,4.08388 -15.21848,1.56926 z m 63.97507,-1.11747 c -1.38287,-1.38286 -2.5143,-7.79434 -2.5143,-14.24772 0,-6.45338 1.13143,-12.86486 2.5143,-14.24772 3.52579,-3.52579 11.23793,-3.12952 15.14569,0.77824 3.78342,3.7834 4.47577,19.91511 1.12358,26.17874 -2.45824,4.59326 -12.28521,5.52253 -16.26927,1.53846 z M 282.499,184.71543 c -3.94964,-0.83704 -49.03092,-36.52311 -67.63812,-53.54192 -10.82458,-9.90056 -12.10137,-19.27167 -3.76192,-27.61112 8.55924,-8.559251 15.47328,-6.926791 33.68139,7.95244 8.81379,7.20243 17.82694,14.38892 20.0292,15.96996 3.91253,2.80888 4.00411,1.6494 4.00411,-50.693057 0,-53.33716 0.0214,-53.59254 4.96661,-59.341715 6.95966,-8.0910959 18.72644,-8.0910959 25.6861,0 4.94523,5.749175 4.96661,6.004555 4.96661,59.341715 0,52.342457 0.0916,53.501937 4.00411,50.693057 2.20226,-1.58104 11.21541,-8.76753 20.0292,-15.96996 18.20811,-14.879231 25.12215,-16.511691 33.68139,-7.95244 5.64857,5.64856 6.86376,16.61372 2.45721,22.17216 -5.02006,6.33229 -69.68353,57.93292 -73.79106,58.88432 -2.30478,0.53384 -6.04644,0.57729 -8.31483,0.0966 z"
       id="path99" />
  </g>
</svg>
