<?xml version="1.0" encoding="UTF-8" standalone="no"?>
<!-- Created with Inkscape (http://www.inkscape.org/) -->

<svg
   version="1.1"
   id="svg9"
   width="500"
   height="500"
   viewBox="0 0 500 500"
   sodipodi:docname="connect.svg"
   inkscape:version="1.1 (c68e22c387, 2021-05-23)"
   xmlns:inkscape="http://www.inkscape.org/namespaces/inkscape"
   xmlns:sodipodi="http://sodipodi.sourceforge.net/DTD/sodipodi-0.dtd"
   xmlns="http://www.w3.org/2000/svg"
   xmlns:svg="http://www.w3.org/2000/svg">
  <defs
     id="defs13" />
  <sodipodi:namedview
     id="namedview11"
     pagecolor="#505050"
     bordercolor="#ffffff"
     borderopacity="1"
     inkscape:pageshadow="0"
     inkscape:pageopacity="0"
     inkscape:pagecheckerboard="1"
     showgrid="false"
     width="500px"
     inkscape:zoom="0.91557018"
     inkscape:cx="94.476647"
     inkscape:cy="281.24551"
     inkscape:window-width="1920"
     inkscape:window-height="1017"
     inkscape:window-x="-8"
     inkscape:window-y="-8"
     inkscape:window-maximized="1"
     inkscape:current-layer="g15" />
  <g
     inkscape:groupmode="layer"
     inkscape:label="Image"
     id="g15">
    <path
       class="sharpcorners_een"
       d="m 424.75832,284.40856 v -63.06321 c 25.35487,-6.56693 44.17222,-29.40397 44.17222,-56.82018 0,-32.52548 -26.37082,-58.89629 -58.89627,-58.89629 -16.96214,0 -32.12794,7.27369 -42.87653,18.74374 L 305.02217,90.477798 c 1.1485,-4.593922 1.94357,-9.320343 1.94357,-14.28235 0,-32.525472 -26.37081,-58.896287 -58.89627,-58.896287 -32.5255,0 -58.8963,26.370815 -58.8963,58.896287 0,4.962007 0.7951,9.688428 1.94358,14.297074 L 128.98116,124.38735 C 118.23259,112.91729 103.06681,105.6436 86.104675,105.6436 c -32.525477,0 -58.896291,26.37081 -58.896291,58.89629 0,27.41622 18.817364,50.23853 44.172215,56.82019 v 63.0632 c -25.354851,6.55222 -44.172215,29.38925 -44.172215,56.80548 0,32.52548 26.370814,58.89628 58.896291,58.89628 16.962135,0 32.127915,-7.27369 42.876485,-18.74374 l 62.13559,33.8948 c -1.14848,4.60864 -1.94358,9.33507 -1.94358,14.2971 0,32.52546 26.3708,58.89627 58.8963,58.89627 32.52546,0 58.89627,-26.37081 58.89627,-58.89627 0,-4.96203 -0.79507,-9.68846 -1.94357,-14.2971 l 62.13557,-33.8948 c 10.74859,11.47005 25.91439,18.74374 42.87653,18.74374 32.52545,0 58.89627,-26.3708 58.89627,-58.89628 0,-27.41623 -18.81735,-50.25326 -44.17222,-56.8202 z M 290.94595,389.42064 c -10.74856,-11.47006 -25.91436,-18.74375 -42.87648,-18.74375 -16.96214,0 -32.12793,7.27369 -42.87651,18.74376 l -62.13559,-33.89482 c 1.14849,-4.60863 1.94359,-9.33506 1.94359,-14.29707 0,-27.41623 -18.81738,-50.25326 -44.17222,-56.8202 v -63.06321 c 25.35484,-6.56693 44.17222,-29.38924 44.17222,-56.80546 0,-4.962 -0.7951,-9.68843 -1.94359,-14.29707 l 62.13559,-33.89481 c 10.74858,11.47004 25.91437,18.74374 42.87651,18.74374 16.96212,0 32.12792,-7.2737 42.87648,-18.74374 l 62.13559,33.89481 c -1.14848,4.60864 -1.94358,9.33507 -1.94358,14.29707 0,27.41622 18.81736,50.23853 44.17222,56.82019 v 63.0632 c -25.35486,6.56695 -44.17222,29.40398 -44.17222,56.82019 0,4.96203 0.7951,9.68845 1.94358,14.29708 z"
       id="path710"
       style="fill:#41fffc;stroke-width:14.7241" />
  </g>
</svg>
