<?xml version="1.0" encoding="UTF-8" standalone="no"?>
<!-- Created with Inkscape (http://www.inkscape.org/) -->

<svg
   version="1.1"
   id="svg9"
   width="500"
   height="500"
   viewBox="0 0 500 500"
   sodipodi:docname="monitor.svg"
   inkscape:version="1.1 (c68e22c387, 2021-05-23)"
   xmlns:inkscape="http://www.inkscape.org/namespaces/inkscape"
   xmlns:sodipodi="http://sodipodi.sourceforge.net/DTD/sodipodi-0.dtd"
   xmlns="http://www.w3.org/2000/svg"
   xmlns:svg="http://www.w3.org/2000/svg">
  <defs
     id="defs13" />
  <sodipodi:namedview
     id="namedview11"
     pagecolor="#505050"
     bordercolor="#41fffc"
     borderopacity="1"
     inkscape:pageshadow="0"
     inkscape:pageopacity="0"
     inkscape:pagecheckerboard="1"
     showgrid="false"
     width="500px"
     inkscape:zoom="0.32370294"
     inkscape:cx="-165.27499"
     inkscape:cy="134.38247"
     inkscape:window-width="1920"
     inkscape:window-height="1017"
     inkscape:window-x="-8"
     inkscape:window-y="-8"
     inkscape:window-maximized="1"
     inkscape:current-layer="g15" />
  <g
     inkscape:groupmode="layer"
     inkscape:label="Image"
     id="g15">
    <g
       id="Layer_2"
       data-name="Layer 2"
       transform="matrix(9.7265472,0,0,9.7265472,18.31855,18.318554)">
      <g
         id="invisible_box"
         data-name="invisible box">
        <rect
           width="48"
           height="48"
           fill="none"
           id="rect523"
           x="0"
           y="0" />
      </g>
      <g
         id="Health_Icons"
         data-name="Health Icons">
        <g
           id="g534">
          <path
             d="M 43,4 H 5 A 2.9,2.9 0 0 0 2,7 v 28 a 2.9,2.9 0 0 0 3,3 h 38 a 2.9,2.9 0 0 0 3,-3 V 7 A 2.9,2.9 0 0 0 43,4 Z M 42,34 H 6 V 22.9 h 2.6 a 2,2 0 0 0 1.8,-1.2 l 0.5,-0.9 2.9,6.1 a 1.9,1.9 0 0 0 1.8,1.1 2.1,2.1 0 0 0 1.8,-1.1 l 4.8,-10.2 2.4,5 a 2.2,2.2 0 0 0 1.8,1.2 H 30 a 2,2 0 0 0 0,-4 H 27.7 L 24,11.1 a 2,2 0 0 0 -3.6,0 L 15.6,21.3 12.7,15.2 A 2.1,2.1 0 0 0 10.9,14.1 1.9,1.9 0 0 0 9.1,15.2 L 7.3,18.9 H 6 V 8 h 36 z"
             id="path526" fill="#41fffc"/>
          <path
             d="m 28,28 h -4 a 2,2 0 0 0 0,4 h 4 a 2,2 0 0 0 0,-4 z"
             id="path528" fill="#41fffc"/>
          <path
             d="m 34,32 h 4 a 2,2 0 0 0 0,-4 h -4 a 2,2 0 0 0 0,4 z"
             id="path530" fill="#41fffc"/>
          <path
             d="M 37,40 H 11 a 2,2 0 0 0 0,4 h 26 a 2,2 0 0 0 0,-4 z"
             id="path532" fill="#41fffc"/>
        </g>
      </g>
    </g>
  </g>
</svg>
