<?xml version="1.0" encoding="UTF-8" standalone="no"?>
<!-- Created with Inkscape (http://www.inkscape.org/) -->

<svg
   version="1.1"
   id="svg9"
   width="500"
   height="500"
   viewBox="0 0 500 500"
   sodipodi:docname="set_up.svg"
   inkscape:version="1.1 (c68e22c387, 2021-05-23)"
   xmlns:inkscape="http://www.inkscape.org/namespaces/inkscape"
   xmlns:sodipodi="http://sodipodi.sourceforge.net/DTD/sodipodi-0.dtd"
   xmlns="http://www.w3.org/2000/svg"
   xmlns:svg="http://www.w3.org/2000/svg">
  <defs
     id="defs13" />
  <sodipodi:namedview
     id="namedview11"
     pagecolor="#41fffc"
     bordercolor="#41fffc"
     borderopacity="1"
     inkscape:pageshadow="0"
     inkscape:pageopacity="0"
     inkscape:pagecheckerboard="1"
     showgrid="false"
     width="500px"
     inkscape:zoom="0.91557018"
     inkscape:cx="107.58323"
     inkscape:cy="260.49341"
     inkscape:window-width="1920"
     inkscape:window-height="1017"
     inkscape:window-x="-8"
     inkscape:window-y="-8"
     inkscape:window-maximized="1"
     inkscape:current-layer="g15" />
  <g
     inkscape:groupmode="layer"
     inkscape:label="Image"
     id="g15">
    <g
       id="g364"
       transform="matrix(0.9309155,0,0,0.9309155,18.308226,22.399617)">
      <g
         id="g362">
        <g
           id="g360">
          <path
             d="m 469.1,182.95 h -38.2 c -3.1,-8.3 -6.2,-16.6 -10.3,-23.8 l 26.9,-26.9 c 8.3,-8.2 8.3,-20.6 0,-28.9 l -60,-60 c -8.2,-8.3 -20.6,-8.3 -28.9,0 l -27.9,27.9 c -7.2,-3.1 -15.5,-6.2 -22.7,-9.3 v -39.3 c 0,-11.4 -9.3,-20.7 -20.7,-20.7 h -84.8 c -11.4,0 -20.7,9.3 -20.7,20.7 v 37.1 c -8.2,3.1 -15.5,6.2 -22.7,9.3 l -27.9,-27.9 c -8.2,-8.3 -20.6,-8.3 -28.9,0 l -60,60 c -8.3,8.2 -8.3,20.6 0,28.9 l 26.9,26.9 c -4.1,8.3 -7.2,15.5 -10.3,23.8 H 20.7 c -11.4,0 -20.7,9.3 -20.7,20.7 v 84.8 c 0,11.4 9.3,20.7 20.7,20.7 h 35.1 c 3.1,8.3 6.2,16.5 10.3,24.8 l -25.8,25.8 c -4.1,4.1 -11.6,16.3 0,28.9 l 60,60 c 8.2,8.3 20.6,8.3 28.9,0 l 24.8,-24.8 c 8.2,5.2 16.5,8.3 25.8,11.4 v 34.1 c 0,11.4 9.3,20.7 20.7,20.7 h 84.8 c 11.4,0 20.7,-9.3 19.7,-18.5 v -34.1 c 8.2,-3.1 17.5,-7.3 25.8,-11.4 l 24.8,24.8 c 8.2,8.3 20.6,8.3 28.9,0 l 60,-60 c 8.3,-8.2 8.3,-20.6 0,-28.9 l -25.8,-25.8 c 4.1,-8.3 7.2,-16.5 10.3,-24.8 h 40.1 c 11.4,0 20.7,-9.3 20.7,-20.7 v -84.8 c 0,-11.4 -9.3,-20.7 -20.7,-20.7 z m -23.5,83.8 h -31 c -9.3,0 -17.5,6.2 -19.6,15.5 -4.2,15.5 -9.3,30 -17.6,43.4 -5.2,8.3 -3.1,18.6 3.1,24.8 l 21.7,21.7 -31,31 -20.7,-20.7 c -6.2,-7.2 -16.5,-8.3 -24.8,-3.1 -14.5,8.3 -29,14.5 -44.5,18.6 -9.3,2 -15.5,10.3 -15.5,19.6 v 30 h -44.5 v -0.1 h -1 v -30 c 0,-9.3 -6.2,-17.5 -15.5,-19.6 -15.6,-4.1 -31.1,-10.3 -44.5,-18.6 -8.3,-5.2 -18.6,-3.1 -24.8,3.1 l -20.7,20.7 -31,-31 21.7,-21.7 c 6.2,-7.2 8.3,-16.5 3.1,-24.8 -8.3,-13.4 -14.5,-27.9 -17.6,-43.4 -2,-9.3 -10.3,-15.5 -19.6,-15.5 h -31 v -44.5 h 33.1 c 9.3,0 17.5,-6.2 19.6,-15.5 3.1,-14.5 9.3,-28 17.6,-41.4 5.2,-8.3 3.1,-18.6 -3.1,-24.8 l -23.8,-23.8 31,-31 23.8,23.8 c 7.2,6.2 16.5,8.3 24.8,3.1 13.5,-7.2 26.9,-13.4 41.4,-16.5 9.3,-2 15.5,-10.3 15.5,-19.6 v -34.1 h 44.5 v 35.2 c 0,9.3 6.2,17.5 15.5,19.6 14.5,3.1 29,9.3 41.4,16.5 8.3,5.2 18.6,3.1 24.8,-3.1 l 24.8,-24.8 31,31 -23.8,23.8 c -7.2,6.2 -8.3,16.5 -3.1,24.8 7.3,12.5 13.5,26.9 17.6,41.4 2,9.3 10.3,15.5 19.6,15.5 h 33.1 z"
             id="path356" fill="#41fffc"/>
          <path
             d="m 242.9,132.25 c -62,0 -112.7,50.7 -112.7,112.7 0,62 50.7,112.7 112.7,112.7 62.1,0 112.7,-50.7 112.7,-112.7 0,-62 -50.7,-112.7 -112.7,-112.7 z m 0,185.1 c -39.3,0 -72.4,-32.1 -72.4,-72.4 0,-39.3 32.1,-72.4 72.4,-72.4 40.3,0 72.4,32.1 72.4,72.4 0,39.3 -33.1,72.4 -72.4,72.4 z"
             id="path358" fill="#41fffc"/>
        </g>
      </g>
    </g>
  </g>
</svg>
