<?xml version="1.0" encoding="UTF-8" standalone="no"?>
<svg
   version="1.1"
   viewBox="0.00 0.00 500.00 500.00"
   id="svg1446"
   sodipodi:docname="DATA.svg"
   inkscape:version="1.1 (c68e22c387, 2021-05-23)"
   xmlns:inkscape="http://www.inkscape.org/namespaces/inkscape"
   xmlns:sodipodi="http://sodipodi.sourceforge.net/DTD/sodipodi-0.dtd"
   xmlns="http://www.w3.org/2000/svg"
   xmlns:svg="http://www.w3.org/2000/svg">
  <defs
     id="defs1450" />
  <sodipodi:namedview
     id="namedview1448"
     pagecolor="#505050"
     bordercolor="#ffffff"
     borderopacity="1"
     inkscape:pageshadow="0"
     inkscape:pageopacity="0"
     inkscape:pagecheckerboard="1"
     showgrid="false"
     inkscape:zoom="0.858"
     inkscape:cx="428.32168"
     inkscape:cy="217.36597"
     inkscape:window-width="1920"
     inkscape:window-height="1017"
     inkscape:window-x="-8"
     inkscape:window-y="-8"
     inkscape:window-maximized="1"
     inkscape:current-layer="g2110" />
  <g
     id="g2110"
     transform="matrix(2.7446516,0,0,2.7446516,-166.48026,25.906121)">
    <g
       id="g2965"
       transform="matrix(1.1205698,0,0,1.1205698,-18.915475,-3.1091011)">
      <path
         id="path2005"
         style="fill:#ffffff;stroke-width:2.74465"
         transform="matrix(0.36434497,0,0,0.36434497,60.656245,-9.4387648)"
         d="m 215.80078,29.015625 c -0.60422,0.09386 -1.20345,0.260432 -1.80078,0.425781 -0.13555,0.119806 -0.27465,0.235609 -0.41016,0.355469 0.73879,-0.263258 1.48169,-0.522905 2.22266,-0.78125 -0.004,6e-4 -0.008,-6.03e-4 -0.0117,0 z M 137.83594,298.68945 c -2.88588,-0.20682 -5.48903,0.97572 -7.81055,3.54883 -0.7685,0.84169 -1.1543,1.83748 -1.1543,2.99024 l 0.13868,111.92773 c 0.004,0.63905 -0.11128,1.03742 -0.23047,1.42773 0.002,0.017 0.006,0.0314 0.008,0.0488 0.0114,0.13028 0.0116,0.25886 0.008,0.38672 0.28008,0.12024 0.53423,0.43208 0.57422,0.99805 0.0591,0.83691 -0.15069,1.6567 -0.18359,2.48828 -0.007,0.16514 0.0145,0.54904 0.0195,0.66992 0.027,0.35798 0.0323,0.71732 0.0293,1.07617 -0.001,0.15051 -0.0308,0.30231 -0.01,0.45117 0.0102,0.0683 0.0374,0.13292 0.0566,0.19922 0.20859,0.70178 0.0916,1.4333 0.0801,2.15039 10e-4,0.66476 0.0106,1.32932 0.01,1.99415 -0.001,0.40214 -4.6e-4,0.8049 0,1.20703 7e-5,0.067 0.008,0.13467 0,0.20117 -0.021,0.16675 -0.0585,0.33063 -0.0879,0.49609 -0.0635,0.30902 -0.21008,0.60128 -0.27148,0.91016 -0.0538,0.27032 -0.079,0.54879 -0.11133,0.82617 0.18606,0.2609 0.32369,0.52288 0.42383,0.82812 0.1419,0.4326 -0.0212,0.0504 0.10351,0.33204 0.0119,0.0228 0.0282,0.0435 0.0352,0.0684 0.0344,0.13068 0.0718,0.2623 0.0879,0.39648 0.0172,0.14304 -0.067,0.45963 -0.0449,0.56445 0.007,0.0323 0.0372,0.0535 0.0566,0.0801 0.22491,0.59205 0.2888,1.29252 0.6582,1.82422 0.0486,0.034 0.10012,0.0755 0.15039,0.11914 0.28099,0.0849 0.54087,0.23826 0.83985,0.26758 0.0363,0.01 0.073,0.018 0.10937,0.0273 0.44664,-0.0299 0.89566,-0.0574 1.32617,0.0957 0.0934,0.0202 0.1842,0.0505 0.2793,0.0605 0.10657,0.0108 0.21515,0.002 0.32227,0.002 0.33742,10e-4 0.67432,0.01 1.01172,0.01 1.0571,-0.0244 2.12647,-0.11964 3.17382,0.0742 0.1801,0.0205 0.35805,0.0516 0.53907,0.0605 0.12734,0.007 0.25535,-0.01 0.38281,-0.0137 0.47283,-0.0131 0.95689,-0.0341 1.41992,0.084 1.03912,0.16766 -0.74256,-0.10046 0.61719,0.0234 0.34688,0.0317 0.71177,0.0933 0.99219,0.31445 0.27053,-0.0156 0.55425,0.0265 0.79882,0.10937 0.0777,0.0505 0.50563,0.0875 0.57813,0.10352 0.0719,0.0158 0.14519,0.0315 0.21289,0.0605 0.0273,0.0117 0.037,0.0536 0.0664,0.0586 0.0507,0.008 0.10164,-0.0154 0.15234,-0.0234 0.39175,-0.0372 0.5317,-0.0138 0.91602,0.13477 0.0173,0.007 -0.17934,10e-5 -0.084,0.0312 0.0465,0.0153 0.0995,0.002 0.14844,0.002 0.45452,-0.006 0.98828,-0.14341 1.4082,0.0957 -0.0292,0.002 -0.11624,-1.4e-4 -0.0879,0.008 0.55886,0.134 -0.19905,-0.13083 0.48828,0.0976 0.0984,0.0327 -0.0156,0.069 0.14844,0.082 0.0913,0.007 0.18399,-0.0135 0.27539,-0.0195 0.1598,-0.007 0.49263,-0.0328 0.67187,-0.002 0.15526,0.0268 0.30746,0.0684 0.45899,0.11133 0.0129,0.004 -0.006,0.0369 -0.0234,0.0586 0.0521,0.002 0.10584,-0.0114 0.15821,-0.0176 0.27018,-0.0241 0.25346,-0.0446 0.52343,0.0195 0.10793,0.0256 0.21747,0.13023 0.32227,0.14843 0.0662,0.0115 0.13397,-7e-5 0.20117,0 0.59769,-0.0112 1.21745,-0.11842 1.80078,0.0606 0.37676,0.0773 0.75627,0.0484 1.14063,0.0859 0.75904,0.0741 -0.1656,0.0317 0.6875,0.0996 0.10969,0.009 0.22006,0.004 0.33007,0.006 0.16128,0.0547 0.32286,0.11015 0.48438,0.16406 0.009,-0.006 0.009,-0.013 0.0156,-0.0117 0.0329,0.007 0.0512,0.0211 0.0918,0.041 0.23917,0.011 0.48668,-0.0378 0.72266,-0.0293 0.10666,-0.004 0.45523,-0.0231 0.59179,-0.01 0.32869,0.0343 0.60577,0.16838 0.94141,0.13868 0.1779,0.0231 0.35861,0.0365 0.53516,0.0684 0.0727,0.0131 0.15563,0.0174 0.21093,0.0664 0.023,0.0203 -0.0824,0.0557 -0.0566,0.0723 0.0263,0.017 0.53049,-0.13048 0.58789,-0.0801 0.13684,0.013 0.27431,0.0182 0.41016,0.0391 0.53933,0.083 1.06253,0.3059 1.61719,0.2793 0.15139,0.0149 0.30437,0.0242 0.45508,0.0449 0.13445,0.0184 0.25557,0.0789 0.39257,0.0859 0.32532,0.0178 0.67972,-0.06 0.98047,0.11914 0.61923,0.20299 -0.10138,-0.0212 0.51758,0.13281 0.0468,0.0116 0.0885,0.0458 0.13672,0.0488 0.095,0.005 0.188,-0.0274 0.2832,-0.0254 0.13593,0.003 0.2096,0.0374 0.29297,0.0527 0.37438,1.7e-4 0.74884,0.002 1.12305,0.002 0.38289,0 0.76606,-0.026 1.15039,0.002 0.0422,-0.006 0.0868,-0.012 0.11914,-0.0215 0.18238,-0.0537 0.36897,-0.0926 0.55664,-0.12304 0.21705,-0.0351 0.43772,-0.0499 0.65625,-0.0742 0.17287,-0.0192 0.32567,-0.0151 0.46094,0.008 0.17509,-0.0536 0.35077,-0.10547 0.54492,-0.10547 l 59.80664,-0.0273 a 8.2888478,8.2614013 0 0 0 8.28906,-8.26172 l -0.082,-125.75977 c 0,-1.28083 -0.44912,-2.37808 -1.3457,-3.29296 -3.27529,-3.38507 -7.52858,-4.47523 -12.76172,-3.26758 a 2.8269911,2.8544377 89.1 0 0 -2.16797,2.22461 c -0.45744,2.25061 -0.5589,4.40892 -0.30273,6.47656 a 7.6301314,7.6301314 0 0 1 -7.51953,8.56445 c -18.31598,0.12809 -37.36475,0.17332 -57.14454,0.13672 -7.93204,0 -8.09693,-7.93185 -8.28906,-13.61328 a 3.2935819,3.3210284 13.7 0 0 -1.64648,-2.71875 c -1.93498,-1.12531 -3.76848,-1.74895 -5.5,-1.87305 z m 15.43359,140.72071 c -0.009,-4.3e-4 -0.0182,-8e-4 -0.0273,-0.002 0.0327,0.0105 0.0648,0.0232 0.0977,0.0332 0.0246,0.007 -0.0392,-0.0165 -0.0703,-0.0312 z m -0.0273,-0.002 c -0.0268,-0.009 -0.0533,-0.0184 -0.0801,-0.0273 -0.0136,0.009 -0.0336,0.0177 -0.0234,0.0195 0.0341,0.006 0.0689,0.005 0.10352,0.008 z m -10.94727,-115.03515 78.66211,0.13672 a 2.497633,2.497633 0 0 1 2.49414,2.50195 l -0.16211,92.11133 a 2.497633,2.497633 0 0 1 -2.50195,2.49414 L 142.125,421.47852 a 2.497633,2.497633 0 0 1 -2.49219,-2.50196 l 0.16016,-92.10937 a 2.497633,2.497633 0 0 1 2.50195,-2.49414 z M 158.44531,444.625 c -0.009,-0.003 -0.038,-0.002 -0.0957,0.002 -0.0194,10e-4 -0.0811,0.009 -0.10742,0.0117 -0.006,0.0136 -0.0111,0.0276 -0.0176,0.041 0.006,3.7e-4 0.0114,-3.8e-4 0.0176,0 0.0803,-0.0163 0.23045,-0.0471 0.20312,-0.0547 z" />
      <path
         id="path2007"
         style="fill:#ffffff;stroke-width:2.74465"
         transform="matrix(0.36434497,0,0,0.36434497,60.656245,-9.4387648)"
         d="m 261.69141,64.146484 c -0.25789,0.0203 -0.53503,0.06258 -0.83008,0.128907 -0.43915,0.09149 -0.91345,0.120591 -1.42578,0.08398 a 3.2386889,3.2386889 0 0 0 -3.51367,3.347656 c 0.40254,10.100318 0.55828,19.744254 0.46679,28.929688 -0.0366,3.824215 -2.29636,6.806445 -6.77929,8.947265 -0.69535,0.32936 -1.41777,0.37459 -2.16797,0.13672 -3.75103,-1.18935 -5.62696,-3.75154 -5.62696,-7.685548 l 0.0274,-25.332031 c 0,-2.616568 -1.18966,-3.359065 -3.56836,-2.224609 -28.19672,13.540281 -45.59767,35.352218 -52.20313,65.433598 a 3.403368,3.403368 0 0 1 -4.44726,2.49805 c -6.83419,-2.4153 -12.10239,4.82895 -14.49024,10.3457 -0.29276,0.67701 -0.22944,1.309 0.19141,1.89453 l 5.10547,7.10938 a 3.1837959,3.1837959 0 0 0 2.25,1.34375 c 5.4893,0.71361 10.66797,0.98889 15.53515,0.82421 7.31907,-0.23787 11.05089,-0.35742 11.19727,-0.35742 55.55175,0.0183 111.1045,0.0273 166.65625,0.0273 1.00637,0 1.85742,-0.35671 2.55273,-1.07032 6.42249,-6.64205 6.47645,-13.39361 -1.31836,-18.85546 -2.93677,-2.05852 -7.05325,-1.2349 -10.5664,-3.1836 a 1.9761492,1.9487026 18.5 0 1 -1.01563,-2.0039 c 0.54893,-3.80595 -0.3383,-7.15389 -2.66211,-10.04493 -0.53063,-0.67701 -0.65018,-1.41756 -0.35742,-2.22265 0.25617,-0.71361 0.21094,-1.41797 -0.13672,-2.11328 -6.95311,-14.08922 -12.35989,-23.06498 -16.2207,-26.92579 -9.20373,-9.240327 -19.95396,-16.816412 -32.25,-22.726562 a 2.9367772,2.9367772 0 0 0 -4.22656,2.634766 l -0.082,24.042968 c -0.0183,4.153578 -1.94851,7.009158 -5.79102,8.564458 -1.11616,0.43914 -2.18627,0.34673 -3.21094,-0.27539 -3.40336,-2.03104 -5.06928,-4.52797 -4.99609,-7.492193 0.18298,-9.734364 0.26439,-19.523037 0.24609,-29.367187 a 4.1993169,4.1993169 0 0 0 -4.22656,-4.199219 l -2.14062,0.02734 c -1.92126,0.0183 -2.88086,0.986947 -2.88086,2.908203 0.0183,10.136913 -0.009,20.997648 -0.082,32.580078 -0.0183,2.488478 -1.84899,4.364408 -5.49023,5.626948 -0.7868,0.29277 -1.61071,0.2818 -2.4707,-0.0293 -4.29996,-1.55531 -6.44922,-4.61894 -6.44922,-9.193361 l 0.082,-29.175781 c 0.016,-2.113382 -0.87841,-3.099125 -2.68359,-2.957032 z" />
      <path
         id="path2009"
         style="fill:#ffffff;stroke-width:2.74465"
         transform="matrix(0.36434497,0,0,0.36434497,60.656245,-9.4387648)"
         d="m 190.35156,172.05859 c -1.35403,0 -2.20508,0.65009 -2.55273,1.94922 -0.91489,3.42167 -0.43863,6.76059 1.42773,10.01758 a 7.1360942,7.0812011 26.4 0 1 0.79688,2.33399 c 0.91488,6.14801 3.03701,11.84622 6.36718,17.09765 1.82979,2.90933 3.68566,5.6725 5.57032,8.28906 4.09868,5.70888 8.03341,10.30274 11.80273,13.7793 9.25863,8.49012 20.92323,14.82936 34.99414,19.01953 1.6285,0.49404 3.30346,0.93411 5.02344,1.31836 12.99135,2.94593 24.86597,2.75205 35.625,-0.57812 1.61934,-0.52149 2.71649,-0.21886 4.36328,-0.71289 30.24606,-8.98416 50.24539,-28.21385 59.99805,-57.69141 1.1802,-3.5406 0.33039,-6.58892 1.8125,-9.96484 a 3.458261,3.4857075 11.7 0 0 -3.1836,-4.85743 z" />
      <path
         id="path2011"
         style="fill:#ffffff;stroke-width:2.74465"
         transform="matrix(0.36434497,0,0,0.36434497,60.656245,-9.4387648)"
         d="m 225.53906,259.88672 c -9.99053,-0.0732 -18.66386,3.30387 -26.01953,10.1289 a 2.4701864,2.4427399 62.7 0 0 -0.71484,2.27735 c 0.64042,3.18379 1.92249,5.94696 3.84375,8.28906 a 3.348475,3.3759215 66.9 0 0 2.93554,1.17969 c 6.16632,-0.69531 11.17116,1.15348 15.01368,5.54492 a 5.4893032,5.5167497 67 0 0 4.63867,1.86719 c 6.75184,-0.60383 12.38672,1.63785 16.90625,6.72461 0.60382,0.67701 1.00771,1.46279 1.20898,2.35937 0.57638,2.57998 1.42589,4.44655 1.39844,7.2461 -0.25617,31.23413 -0.29235,61.79176 -0.10938,91.67187 a 2.8818842,2.8818842 0 0 0 2.85547,2.88086 c 26.8427,0.24702 54.26134,1.34591 80.9668,-0.27344 9.36841,-0.56722 16.33964,-5.29873 20.91406,-14.1914 2.92763,-5.69058 4.38158,-13.06375 4.36328,-22.1211 -0.0732,-26.31206 -0.19983,-50.17177 -0.38281,-71.58008 -0.16468,-23.13741 -16.13972,-32.11184 -37.24609,-31.9746 -32.13072,0.18297 -62.32065,0.17197 -90.57227,-0.0293 z" />
      <path
         id="path2013"
         style="fill:#ffffff;stroke-width:2.74465"
         transform="matrix(0.36434497,0,0,0.36434497,60.656245,-9.4387648)"
         d="m 181.42188,275.4043 c -5.29955,-0.0172 -9.04842,3.18203 -11.24415,9.59765 -0.32935,0.98808 -0.15553,1.88436 0.52149,2.68946 1.07956,1.26254 1.06148,2.5517 -0.0547,3.86914 -0.51233,0.62212 -1.17856,0.92454 -2.00195,0.90625 l -14.6582,-0.33008 c -1.02468,-0.0183 -1.73808,0.44891 -2.14063,1.40039 -1.26254,3.00082 -1.6102,6.31261 -1.04297,9.93555 0.58553,3.76932 2.89248,6.20292 6.91797,7.30078 4.99527,1.39977 10.10003,0.0548 15.20508,0.0273 11.43605,-0.0732 22.05768,-0.046 31.86523,0.082 5.08676,0.0549 7.38271,-2.44202 6.88867,-7.49219 -0.23787,-2.54337 -0.13641,-5.10557 0.30274,-7.68554 0.47574,-2.90933 -0.75011,-4.15327 -3.67774,-3.73242 -6.36759,0.89658 -11.74722,0.63034 -16.13867,-0.79688 -0.93318,-0.31106 -1.19038,-0.90491 -0.76953,-1.7832 3.1838,-6.44993 -2.05839,-13.39443 -8.89258,-13.94336 -0.36709,-0.0297 -0.72677,-0.0438 -1.08007,-0.0449 z m 0.46484,5.21875 a 1.2899863,1.2899863 0 0 1 0.91797,0.34375 l 0.46679,0.41211 a 6.3675917,3.9797448 43.2 0 1 1.91993,7.27343 l -0.65821,0.68555 a 6.3675917,3.9797448 43.2 0 1 -7.35547,-1.45508 l -0.46679,-0.43945 a 1.2899863,1.2899863 0 0 1 -0.0547,-1.83789 l 4.33594,-4.58399 a 1.2899863,1.2899863 0 0 1 0.89453,-0.39843 z" />
      <path
         id="path2015"
         style="fill:#ffffff;stroke-width:2.74465"
         transform="matrix(0.36434497,0,0,0.36434497,60.656245,-9.4387648)"
         d="m 172.94336,337.14062 c -0.24484,0.008 -0.55411,0.19436 -0.92578,0.5586 l -10.26563,9.9082 c -0.69531,0.67702 -1.48108,0.81271 -2.35937,0.41016 -0.65872,-0.29276 -1.16211,-0.7942 -1.50977,-1.50781 a 1.756577,1.7840235 62.9 0 0 -2.44336,-0.76954 l -2.79883,1.56446 c -1.07956,0.58552 -1.2172,1.34416 -0.4121,2.27734 l 6.33984,7.32813 c 0.85999,1.00637 1.74722,1.03546 2.66211,0.084 l 13.83398,-14.21875 c 0.42085,-0.42085 0.4299,-0.84992 0.0274,-1.28906 -0.8234,-0.93318 -1.31775,-2.01234 -1.48242,-3.23828 -0.0869,-0.74964 -0.30818,-1.11897 -0.66602,-1.10743 z" />
      <path
         id="path2017"
         style="fill:#ffffff;stroke-width:2.74465"
         transform="matrix(0.36434497,0,0,0.36434497,60.656245,-9.4387648)"
         d="m 173.95898,357.76953 c -1.41349,-0.0274 -2.68328,0.41843 -3.80859,1.33789 -2.78125,2.28721 -5.26912,5.05038 -7.46484,8.28906 a 2.3055073,2.3055073 0 0 1 -3.54102,0.35547 c -1.51871,-1.50041 -3.50319,-2.04903 -5.95508,-1.64648 a 1.8663631,1.8663631 0 0 0 -1.15234,2.96484 l 6.17578,7.95899 c 0.7868,1.04296 1.6359,1.10629 2.55078,0.1914 l 15.50781,-15.34179 a 1.7840235,1.7840235 0 0 0 0.52149,-1.26172 c -0.0183,-1.55531 -0.47451,-2.44449 -1.37109,-2.66407 -0.50319,-0.11436 -0.99173,-0.17444 -1.4629,-0.18359 z" />
      <path
         id="path2019"
         style="fill:#ffffff;stroke-width:2.74465"
         transform="matrix(0.36434497,0,0,0.36434497,60.656245,-9.4387648)"
         d="m 173.24023,377.13086 a 2.9093307,2.8544377 25.6 0 0 -1.79882,0.80469 l -9.74414,9.82617 a 1.9212561,1.9212561 0 0 1 -3.10157,-0.57617 c -0.38425,-0.8417 -0.99619,-1.42846 -1.83789,-1.75782 -0.42084,-0.16467 -0.83378,-0.13754 -1.23633,0.082 -1.537,0.87828 -2.76285,2.16941 -3.67773,3.87109 -0.21957,0.40255 -0.11811,0.68493 0.30273,0.84961 1.73828,0.71361 2.87172,1.93041 3.40235,3.65039 a 3.8974053,3.8699588 59.9 0 0 6.36914,1.70312 l 13.47461,-12.65429 a 2.9093307,2.8818842 67.3 0 0 0.8789,-2.14063 c -0.0549,-2.26891 -0.89689,-3.48571 -2.52539,-3.65039 a 2.9093307,2.8544377 25.6 0 0 -0.50586,-0.008 z" />
    </g>
  </g>
</svg>
