<?xml version="1.0" encoding="UTF-8" standalone="no"?>
<svg
   version="1.1"
   viewBox="0.00 0.00 500.00 500.00"
   id="svg1446"
   sodipodi:docname="PMI.svg"
   inkscape:version="1.1 (c68e22c387, 2021-05-23)"
   xmlns:inkscape="http://www.inkscape.org/namespaces/inkscape"
   xmlns:sodipodi="http://sodipodi.sourceforge.net/DTD/sodipodi-0.dtd"
   xmlns="http://www.w3.org/2000/svg"
   xmlns:svg="http://www.w3.org/2000/svg">
  <defs
     id="defs1450" />
  <sodipodi:namedview
     id="namedview1448"
     pagecolor="#505050"
     bordercolor="#ffffff"
     borderopacity="1"
     inkscape:pageshadow="0"
     inkscape:pageopacity="0"
     inkscape:pagecheckerboard="1"
     showgrid="false"
     inkscape:zoom="0.858"
     inkscape:cx="356.06061"
     inkscape:cy="321.09557"
     inkscape:window-width="1920"
     inkscape:window-height="1017"
     inkscape:window-x="-8"
     inkscape:window-y="-8"
     inkscape:window-maximized="1"
     inkscape:current-layer="svg1446" />
  <g
     stroke-width="2.00"
     fill="none"
     stroke-linecap="butt"
     id="g1352">
    <path
       stroke="#247f94"
       vector-effect="non-scaling-stroke"
       d="   M 413.12 457.25   Q 419.94 452.51 425.41 458.57   Q 428.07 461.52 432.40 465.57   C 435.96 468.91 440.25 470.19 443.93 466.74   Q 449.31 461.68 465.83 444.95   Q 470.07 440.66 468.20 436.01   Q 467.15 433.41 465.00 431.90"
       id="path1206" />
    <path
       stroke="#478b9b"
       vector-effect="non-scaling-stroke"
       d="   M 465.00 431.90   Q 432.14 398.99 400.17 367.08   Q 396.81 363.73 392.83 364.92   Q 390.62 365.58 387.24 368.94   Q 377.25 378.87 367.65 388.47"
       id="path1208" />
    <path
       stroke="#247f94"
       vector-effect="non-scaling-stroke"
       d="   M 367.65 388.47   Q 363.92 392.16 364.87 396.21   Q 365.43 398.57 369.05 402.19   Q 385.10 418.25 401.18 434.33   Q 406.32 439.46 402.52 445.59"
       id="path1210" />
    <path
       stroke="#8b9296"
       vector-effect="non-scaling-stroke"
       d="   M 117.92 325.57   Q 123.62 322.36 128.01 326.01   C 193.95 381.01 290.99 366.11 337.62 294.37"
       id="path1212" />
    <path
       stroke="#989ea2"
       vector-effect="non-scaling-stroke"
       d="   M 337.62 294.37   Q 346.04 281.55 351.36 266.53   C 366.08 225.03 361.17 179.33 337.30 142.36   Q 316.73 110.52 283.17 93.34   C 234.88 68.62 178.24 73.72 134.68 105.65   Q 132.52 107.23 127.26 111.60"
       id="path1214" />
    <path
       stroke="#8b9296"
       vector-effect="non-scaling-stroke"
       d="   M 127.26 111.60   C 88.54 145.37 71.10 195.76 80.77 245.83   Q 86.85 277.34 107.31 304.27   C 109.76 307.50 109.40 311.42 107.08 314.77"
       id="path1216" />
    <path
       stroke="#25bfdd"
       vector-effect="non-scaling-stroke"
       d="   M 465.00 431.90   Q 455.18 439.08 442.75 439.92   Q 421.12 441.37 405.89 426.37   Q 386.80 407.57 367.65 388.47"
       id="path1218" />
    <path
       stroke="#dde5e7"
       vector-effect="non-scaling-stroke"
       d="   M 337.62 294.37   Q 326.76 298.68 316.63 303.60   Q 315.16 304.31 314.11 304.57   Q 310.79 305.38 311.44 303.36"
       id="path1220" />
    <path
       stroke="#989ea2"
       vector-effect="non-scaling-stroke"
       d="   M 311.44 303.36   C 348.23 261.85 354.13 203.50 326.46 155.50   Q 322.32 148.32 314.63 152.30"
       id="path1222" />
    <path
       stroke="#99deec"
       vector-effect="non-scaling-stroke"
       d="   M 314.63 152.30   Q 310.68 145.62 305.09 140.07"
       id="path1224" />
    <path
       stroke="#989ea2"
       vector-effect="non-scaling-stroke"
       d="   M 305.09 140.07   C 308.03 136.92 308.63 132.31 305.64 129.07   Q 304.03 127.34 302.15 125.68   Q 271.67 98.79 231.93 94.28   C 188.10 89.30 146.58 107.57 119.16 141.49"
       id="path1226" />
    <path
       stroke="#dde5e7"
       vector-effect="non-scaling-stroke"
       d="   M 119.16 141.49   Q 120.11 134.00 121.94 127.00   Q 123.97 119.24 127.26 111.60"
       id="path1228" />
    <path
       stroke="#478b9b"
       vector-effect="non-scaling-stroke"
       d="   M 305.09 140.07   C 298.96 145.07 294.43 139.88 290.11 136.11   Q 286.13 132.63 281.11 129.12   A 0.54 0.54 0.0 0 0 280.42 129.18   L 266.21 143.30"
       id="path1230" />
    <path
       stroke="#7a9aa3"
       vector-effect="non-scaling-stroke"
       d="   M 266.21 143.30   L 258.56 150.99   A 2.59 2.56 67.5 0 0 257.82 152.80   L 257.80 163.69   A 0.36 0.35 -90.0 0 0 258.15 164.05   Q 260.97 164.08 263.95 163.96   C 273.93 163.58 273.85 171.76 273.42 178.97   Q 273.37 179.69 274.10 179.69   L 302.51 179.71"
       id="path1232" />
    <path
       stroke="#478b9b"
       vector-effect="non-scaling-stroke"
       d="   M 302.51 179.71   L 320.02 179.74   Q 320.36 179.74 320.45 179.42   Q 320.51 179.17 320.42 178.95   Q 317.47 171.39 313.67 164.79   C 310.91 160.01 310.39 156.22 314.63 152.30"
       id="path1234" />
    <path
       stroke="#8b9296"
       vector-effect="non-scaling-stroke"
       d="   M 311.44 303.36   C 268.83 350.47 197.99 358.52 146.10 322.19   Q 111.48 297.95 98.25 257.10   Q 92.29 238.69 92.35 219.74   Q 92.50 175.94 119.16 141.49"
       id="path1236" />
    <path
       stroke="#7bd9ec"
       vector-effect="non-scaling-stroke"
       d="   M 302.51 179.71   Q 296.98 171.78 294.84 169.16   Q 282.62 154.14 266.21 143.30"
       id="path1238" />
    <path
       stroke="#a19e80"
       vector-effect="non-scaling-stroke"
       d="   M 117.15 39.05   A 7.78 7.78 0.0 0 0 109.37 31.27   A 7.78 7.78 0.0 0 0 101.59 39.05   A 7.78 7.78 0.0 0 0 109.37 46.83   A 7.78 7.78 0.0 0 0 117.15 39.05"
       id="path1240" />
    <path
       stroke="#a19e80"
       vector-effect="non-scaling-stroke"
       d="   M 406.22 70.29   A 7.78 7.78 0.0 0 0 398.44 62.51   A 7.78 7.78 0.0 0 0 390.66 70.29   A 7.78 7.78 0.0 0 0 398.44 78.07   A 7.78 7.78 0.0 0 0 406.22 70.29"
       id="path1242" />
    <path
       stroke="#a19e80"
       vector-effect="non-scaling-stroke"
       d="   M 54.66 101.56   A 7.78 7.78 0.0 0 0 46.88 93.78   A 7.78 7.78 0.0 0 0 39.10 101.56   A 7.78 7.78 0.0 0 0 46.88 109.34   A 7.78 7.78 0.0 0 0 54.66 101.56"
       id="path1244" />
    <path
       stroke="#a19e80"
       vector-effect="non-scaling-stroke"
       d="   M 468.73 140.63   A 7.79 7.79 0.0 0 0 460.94 132.84   A 7.79 7.79 0.0 0 0 453.15 140.63   A 7.79 7.79 0.0 0 0 460.94 148.42   A 7.79 7.79 0.0 0 0 468.73 140.63"
       id="path1246" />
    <path
       stroke="#a19e80"
       vector-effect="non-scaling-stroke"
       d="   M 468.75 242.17   A 7.81 7.81 0.0 0 0 460.94 234.36   A 7.81 7.81 0.0 0 0 453.13 242.17   A 7.81 7.81 0.0 0 0 460.94 249.98   A 7.81 7.81 0.0 0 0 468.75 242.17"
       id="path1248" />
    <path
       stroke="#a19e80"
       vector-effect="non-scaling-stroke"
       d="   M 437.50 289.05   A 7.80 7.80 0.0 0 0 429.70 281.25   A 7.80 7.80 0.0 0 0 421.90 289.05   A 7.80 7.80 0.0 0 0 429.70 296.85   A 7.80 7.80 0.0 0 0 437.50 289.05"
       id="path1250" />
    <path
       stroke="#a19e80"
       vector-effect="non-scaling-stroke"
       d="   M 46.86 328.10   A 7.81 7.81 0.0 0 0 39.05 320.29   A 7.81 7.81 0.0 0 0 31.24 328.10   A 7.81 7.81 0.0 0 0 39.05 335.91   A 7.81 7.81 0.0 0 0 46.86 328.10"
       id="path1252" />
    <path
       stroke="#8b9296"
       vector-effect="non-scaling-stroke"
       d="   M 367.86 356.83   L 337.98 326.91"
       id="path1254" />
    <path
       stroke="#7f8488"
       vector-effect="non-scaling-stroke"
       d="   M 337.98 326.91   L 334.86 323.78   Q 334.49 323.41 334.13 323.78   L 323.82 334.10   Q 323.41 334.51 323.82 334.92   L 360.93 371.98   Q 361.52 372.58 362.12 371.98   L 372.14 361.90   A 0.60 0.60 0.0 0 0 372.13 361.05   L 367.86 356.83"
       id="path1256" />
    <path
       stroke="#c4cbcd"
       vector-effect="non-scaling-stroke"
       d="   M 337.98 326.91   L 331.92 335.47   Q 330.66 337.25 332.21 338.78   C 335.02 341.56 338.09 343.87 340.71 346.97   Q 344.80 351.80 351.19 355.74   Q 355.11 358.16 359.76 358.08   Q 363.91 358.00 367.86 356.83"
       id="path1258" />
    <path
       stroke="#a19e80"
       vector-effect="non-scaling-stroke"
       d="   M 101.55 429.70   A 7.79 7.79 0.0 0 0 93.76 421.91   A 7.79 7.79 0.0 0 0 85.97 429.70   A 7.79 7.79 0.0 0 0 93.76 437.49   A 7.79 7.79 0.0 0 0 101.55 429.70"
       id="path1260" />
    <path
       stroke="#a19e80"
       vector-effect="non-scaling-stroke"
       d="   M 296.86 429.69   A 7.80 7.80 0.0 0 0 289.06 421.89   A 7.80 7.80 0.0 0 0 281.26 429.69   A 7.80 7.80 0.0 0 0 289.06 437.49   A 7.80 7.80 0.0 0 0 296.86 429.69"
       id="path1262" />
    <path
       stroke="#a19e80"
       vector-effect="non-scaling-stroke"
       d="   M 195.29 460.93   A 7.79 7.79 0.0 0 0 187.50 453.14   A 7.79 7.79 0.0 0 0 179.71 460.93   A 7.79 7.79 0.0 0 0 187.50 468.72   A 7.79 7.79 0.0 0 0 195.29 460.93"
       id="path1264" />
    <path
       stroke="#7a9aa3"
       vector-effect="non-scaling-stroke"
       d="   M 176.30 127.82   Q 184.65 135.36 192.53 142.47   Q 195.20 144.88 195.26 148.45   Q 195.39 156.01 195.24 163.51   Q 195.23 164.04 195.76 164.04   L 210.71 164.00   A 0.25 0.24 90.0 0 0 210.95 163.75   L 210.89 124.72"
       id="path1266" />
    <path
       stroke="#478b9b"
       vector-effect="non-scaling-stroke"
       d="   M 210.89 124.72   L 210.80 110.32   Q 210.80 109.81 210.29 109.85   Q 188.93 111.47 169.73 121.16   A 0.38 0.37 -37.7 0 0 169.65 121.77   L 176.30 127.82"
       id="path1268" />
    <path
       stroke="#7bd9ec"
       vector-effect="non-scaling-stroke"
       d="   M 210.89 124.72   Q 208.98 125.32 208.24 125.27   Q 198.25 124.68 192.25 125.53   Q 184.51 126.63 176.30 127.82"
       id="path1270" />
    <path
       stroke="#7a9aa3"
       vector-effect="non-scaling-stroke"
       d="   M 226.56 127.30   L 226.58 163.39   Q 226.58 164.03 227.23 164.03   L 241.53 164.06   Q 242.20 164.06 242.20 163.40   Q 242.24 156.19 242.11 149.19   Q 242.04 145.35 244.69 142.70   Q 248.17 139.22 251.83 135.58"
       id="path1272" />
    <path
       stroke="#478b9b"
       vector-effect="non-scaling-stroke"
       d="   M 251.83 135.58   L 266.33 121.01   Q 266.75 120.58 266.21 120.32   Q 247.98 111.49 226.99 109.77   A 0.40 0.40 0.0 0 0 226.55 110.18   L 226.56 127.30"
       id="path1274" />
    <path
       stroke="#7bd9ec"
       vector-effect="non-scaling-stroke"
       d="   M 251.83 135.58   Q 239.59 130.17 226.56 127.30"
       id="path1276" />
    <path
       stroke="#7a9aa3"
       vector-effect="non-scaling-stroke"
       d="   M 140.60 142.66   Q 132.02 151.13 125.32 162.36   Q 125.00 162.90 125.46 163.31   L 143.04 179.17   A 2.14 2.13 66.0 0 0 144.47 179.72   L 163.51 179.73   A 0.58 0.58 0.0 0 0 164.09 179.15   Q 164.08 176.00 164.04 172.75   C 163.96 167.39 167.25 164.00 172.61 164.04   Q 175.99 164.07 179.25 164.06   A 0.52 0.51 -90.0 0 0 179.76 163.54   L 179.69 152.62   A 1.73 1.70 -69.8 0 0 179.12 151.36   L 159.41 133.63"
       id="path1278" />
    <path
       stroke="#478b9b"
       vector-effect="non-scaling-stroke"
       d="   M 159.41 133.63   L 155.83 130.30   A 0.83 0.83 0.0 0 0 154.80 130.22   Q 146.65 135.82 140.60 142.66"
       id="path1280" />
    <path
       stroke="#7bd9ec"
       vector-effect="non-scaling-stroke"
       d="   M 159.41 133.63   L 140.60 142.66"
       id="path1282" />
    <path
       stroke="#478b9b"
       vector-effect="non-scaling-stroke"
       d="   M 117.13 178.54   Q 110.92 193.86 109.83 210.41   A 0.49 0.48 -88.3 0 0 110.31 210.93   L 124.67 210.92"
       id="path1284" />
    <path
       stroke="#7a9aa3"
       vector-effect="non-scaling-stroke"
       d="   M 124.67 210.92   L 163.38 210.92   Q 164.01 210.92 164.01 210.29   L 164.06 195.81   Q 164.06 195.24 163.49 195.25   Q 152.61 195.36 140.10 195.24   Q 137.61 195.22 135.79 193.61   Q 126.87 185.74 118.06 177.69   A 0.43 0.42 30.9 0 0 117.37 177.86   L 117.13 178.54"
       id="path1286" />
    <path
       stroke="#7bd9ec"
       vector-effect="non-scaling-stroke"
       d="   M 124.67 210.92   Q 120.09 196.18 118.07 180.87   C 117.94 179.95 117.48 179.38 117.13 178.54"
       id="path1288" />
    <path
       stroke="#8b9296"
       vector-effect="non-scaling-stroke"
       d="   M 258.38 246.91   Q 260.34 243.25 264.08 242.18"
       id="path1290" />
    <path
       stroke="#7a9aa3"
       vector-effect="non-scaling-stroke"
       d="   M 264.08 242.18   L 320.47 242.19"
       id="path1292" />
    <path
       stroke="#478b9b"
       vector-effect="non-scaling-stroke"
       d="   M 320.47 242.19   L 325.06 242.03   Q 325.64 242.01 325.72 241.44   L 327.76 227.31   Q 327.84 226.71 327.24 226.71   L 319.53 226.70"
       id="path1294" />
    <path
       stroke="#7a9aa3"
       vector-effect="non-scaling-stroke"
       d="   M 319.53 226.70   L 264.82 226.56"
       id="path1296" />
    <path
       stroke="#8b9296"
       vector-effect="non-scaling-stroke"
       d="   M 264.82 226.56   Q 257.78 225.35 257.80 218.24   Q 257.83 199.30 257.76 180.28   Q 257.76 179.78 257.25 179.78   L 190.16 179.75"
       id="path1298" />
    <path
       stroke="#7f8488"
       vector-effect="non-scaling-stroke"
       d="   M 190.16 179.75   L 180.21 179.80   Q 179.72 179.80 179.72 180.29   L 179.73 257.46   A 0.36 0.36 0.0 0 0 180.09 257.82   L 257.25 257.81   A 0.71 0.71 0.0 0 0 257.95 257.01   Q 257.32 251.64 258.38 246.91"
       id="path1300" />
    <path
       stroke="#c4cbcd"
       vector-effect="non-scaling-stroke"
       d="   M 190.16 179.75   Q 191.85 184.45 193.44 188.99   Q 194.12 190.96 195.33 193.41   Q 196.37 195.51 197.32 197.79"
       id="path1302" />
    <path
       stroke="#7f8488"
       vector-effect="non-scaling-stroke"
       d="   M 197.32 197.79   Q 195.30 200.13 195.29 204.25   Q 195.23 218.47 195.25 232.80   C 195.25 236.67 196.17 239.55 199.54 241.24   Q 201.45 242.20 206.19 242.20   Q 220.47 242.20 234.75 242.20   Q 236.51 242.20 239.25 240.62"
       id="path1304" />
    <path
       stroke="#c4cbcd"
       vector-effect="non-scaling-stroke"
       d="   M 239.25 240.62   Q 240.74 241.33 242.38 241.70   Q 244.28 242.13 245.49 242.69   Q 251.75 245.57 258.38 246.91"
       id="path1306" />
    <path
       stroke="#bfe0e7"
       vector-effect="non-scaling-stroke"
       d="   M 264.82 226.56   Q 267.00 235.26 264.08 242.18"
       id="path1308" />
    <path
       stroke="#8b9296"
       vector-effect="non-scaling-stroke"
       d="   M 239.25 240.62   Q 242.12 237.78 242.12 234.00   Q 242.10 220.22 242.21 205.51   C 242.23 201.71 241.74 198.21 238.22 196.30   Q 236.35 195.28 231.80 195.28   Q 218.34 195.25 204.50 195.28   Q 200.11 195.28 197.32 197.79"
       id="path1310" />
    <path
       stroke="#7bd9ec"
       vector-effect="non-scaling-stroke"
       d="   M 319.53 226.70   Q 319.67 227.24 319.54 227.69   Q 319.43 228.07 319.46 228.45   L 320.47 242.19"
       id="path1312" />
    <path
       stroke="#478b9b"
       vector-effect="non-scaling-stroke"
       d="   M 316.10 210.94   L 327.51 210.95   A 0.42 0.42 0.0 0 0 327.93 210.47   L 325.69 195.68   A 0.47 0.46 85.7 0 0 325.23 195.28   L 310.74 195.30"
       id="path1314" />
    <path
       stroke="#7a9aa3"
       vector-effect="non-scaling-stroke"
       d="   M 310.74 195.30   L 273.90 195.29   Q 273.47 195.29 273.47 195.72   L 273.47 210.52   A 0.41 0.41 0.0 0 0 273.88 210.93   L 316.10 210.94"
       id="path1316" />
    <path
       stroke="#7bd9ec"
       vector-effect="non-scaling-stroke"
       d="   M 310.74 195.30   L 316.10 210.94"
       id="path1318" />
    <path
       stroke="#7a9aa3"
       vector-effect="non-scaling-stroke"
       d="   M 141.45 245.36   Q 145.44 242.22 146.98 242.20   Q 155.11 242.14 163.49 242.23   Q 164.08 242.23 164.08 241.64   L 164.02 227.24   Q 164.01 226.67 163.45 226.67   L 130.40 226.63"
       id="path1320" />
    <path
       stroke="#478b9b"
       vector-effect="non-scaling-stroke"
       d="   M 130.40 226.63   L 110.30 226.58   A 0.51 0.51 0.0 0 0 109.79 227.13   Q 111.13 244.76 118.03 261.34   A 0.50 0.50 0.0 0 0 118.78 261.55   L 141.45 245.36"
       id="path1322" />
    <path
       stroke="#7bd9ec"
       vector-effect="non-scaling-stroke"
       d="   M 130.40 226.63   Q 129.69 227.02 131.40 228.17   Q 131.81 228.45 132.05 228.87   L 141.45 245.36"
       id="path1324" />
    <path
       stroke="#478b9b"
       vector-effect="non-scaling-stroke"
       d="   M 150.58 258.08   L 126.28 275.40   Q 125.67 275.83 126.07 276.46   Q 139.79 298.22 161.36 311.67   A 0.27 0.27 0.0 0 0 161.69 311.63   L 179.07 294.33   A 2.20 2.18 67.7 0 0 179.71 292.78   L 179.65 285.13"
       id="path1326" />
    <path
       stroke="#7a9aa3"
       vector-effect="non-scaling-stroke"
       d="   M 179.65 285.13   L 179.70 274.06   Q 179.70 273.44 179.08 273.43   C 175.90 273.41 172.14 273.95 169.19 272.87   C 162.95 270.58 163.94 263.93 164.08 258.48   Q 164.10 257.83 163.45 257.85   L 150.58 258.08"
       id="path1328" />
    <path
       stroke="#7bd9ec"
       vector-effect="non-scaling-stroke"
       d="   M 179.65 285.13   Q 169.39 277.34 166.26 274.48   Q 160.53 269.26 150.58 258.08"
       id="path1330" />
    <path
       stroke="#478b9b"
       vector-effect="non-scaling-stroke"
       d="   M 257.84 312.57   L 257.84 320.13   A 0.38 0.38 0.0 0 0 258.36 320.49   Q 267.84 316.87 276.43 311.52"
       id="path1332" />
    <path
       stroke="#7a9aa3"
       vector-effect="non-scaling-stroke"
       d="   M 276.43 311.52   Q 307.27 292.11 320.09 258.71   Q 320.43 257.83 319.49 257.83   L 273.99 257.82   A 0.55 0.55 0.0 0 0 273.44 258.39   C 273.63 263.02 274.39 269.17 269.92 272.08   C 266.77 274.14 262.11 273.45 258.48 273.44   Q 257.81 273.44 257.81 274.10   L 257.84 312.57"
       id="path1334" />
    <path
       stroke="#7bd9ec"
       vector-effect="non-scaling-stroke"
       d="   M 276.43 311.52   Q 268.52 312.82 260.39 312.44   Q 259.79 312.42 259.16 312.67   Q 257.76 313.24 257.84 312.57"
       id="path1336" />
    <path
       stroke="#478b9b"
       vector-effect="non-scaling-stroke"
       d="   M 195.31 295.03   Q 195.64 299.74 193.07 302.30   Q 184.68 310.67 176.38 319.02   A 0.35 0.35 0.0 0 0 176.49 319.59   Q 192.62 326.28 210.28 327.66   Q 210.79 327.70 210.79 327.19   L 210.88 302.16"
       id="path1338" />
    <path
       stroke="#7a9aa3"
       vector-effect="non-scaling-stroke"
       d="   M 210.88 302.16   L 210.94 273.87   Q 210.95 273.45 210.53 273.45   L 195.55 273.48   A 0.26 0.26 0.0 0 0 195.29 273.74   L 195.31 295.03"
       id="path1340" />
    <path
       stroke="#7bd9ec"
       vector-effect="non-scaling-stroke"
       d="   M 210.88 302.16   L 195.31 295.03"
       id="path1342" />
    <path
       stroke="#478b9b"
       vector-effect="non-scaling-stroke"
       d="   M 226.55 307.42   L 226.58 327.16   A 0.63 0.62 -4.0 0 0 227.30 327.77   L 241.43 325.74   Q 241.93 325.67 241.94 325.17   L 242.15 310.92"
       id="path1344" />
    <path
       stroke="#7a9aa3"
       vector-effect="non-scaling-stroke"
       d="   M 242.15 310.92   L 242.18 274.07   Q 242.18 273.46 241.57 273.46   L 227.02 273.45   A 0.43 0.43 0.0 0 0 226.59 273.88   L 226.55 307.42"
       id="path1346" />
    <path
       stroke="#7bd9ec"
       vector-effect="non-scaling-stroke"
       d="   M 242.15 310.92   L 226.55 307.42"
       id="path1348" />
    <path
       stroke="#a19e80"
       vector-effect="non-scaling-stroke"
       d="   M 226.54 211.22   A 0.27 0.27 0.0 0 0 226.27 210.95   L 211.25 210.95   A 0.27 0.27 0.0 0 0 210.98 211.22   L 210.98 226.24   A 0.27 0.27 0.0 0 0 211.25 226.51   L 226.27 226.51   A 0.27 0.27 0.0 0 0 226.54 226.24   L 226.54 211.22"
       id="path1350" />
  </g>
  <path
     fill="#464b51"
     d="   M 413.12 457.25   Q 419.94 452.51 425.41 458.57   Q 428.07 461.52 432.40 465.57   C 435.96 468.91 440.25 470.19 443.93 466.74   Q 449.31 461.68 465.83 444.95   Q 470.07 440.66 468.20 436.01   Q 467.15 433.41 465.00 431.90   Q 432.14 398.99 400.17 367.08   Q 396.81 363.73 392.83 364.92   Q 390.62 365.58 387.24 368.94   Q 377.25 378.87 367.65 388.47   Q 363.92 392.16 364.87 396.21   Q 365.43 398.57 369.05 402.19   Q 385.10 418.25 401.18 434.33   Q 406.32 439.46 402.52 445.59   Q 401.25 446.30 399.70 447.08   C 396.64 448.62 393.58 447.94 391.17 445.58   Q 363.70 418.69 356.82 411.43   Q 346.12 400.14 351.55 385.36   A 1.75 1.74 -57.3 0 0 351.15 383.52   L 312.13 344.67   A 1.25 1.24 -40.1 0 0 310.53 344.54   Q 290.45 358.86 266.48 366.92   A 0.58 0.58 0.0 0 0 266.22 367.84   Q 266.78 368.53 267.55 369.00   Q 278.27 375.60 292.24 383.90   C 295.53 385.85 296.65 388.80 296.62 392.48   Q 296.56 399.91 296.62 406.58   Q 296.64 407.93 297.87 408.47   C 311.17 414.30 316.04 429.38 308.65 441.76   C 301.63 453.53 285.10 455.93 274.77 447.73   C 268.81 442.99 265.22 434.95 266.14 427.50   Q 267.81 414.00 280.49 408.19   A 1.65 1.65 0.0 0 0 281.44 406.71   L 281.53 396.04   A 2.23 2.21 -74.5 0 0 280.45 394.11   L 245.31 372.96   A 2.84 2.83 -32.2 0 0 243.58 372.57   L 227.46 374.21   A 1.32 1.31 87.8 0 0 226.27 375.50   Q 226.10 385.42 226.23 397.71   Q 226.30 404.01 219.61 405.68   Q 207.57 408.69 196.34 411.50   A 2.03 2.03 0.0 0 0 194.81 413.47   L 194.88 438.25   A 1.42 1.41 -81.1 0 0 195.84 439.58   C 204.58 442.53 210.06 451.19 210.49 460.02   C 211.39 478.79 190.50 489.88 175.19 480.29   Q 168.40 476.04 165.80 468.60   C 161.55 456.44 167.45 444.47 179.21 439.48   A 1.49 1.47 78.7 0 0 180.11 438.11   Q 180.04 421.72 180.08 406.60   C 180.10 402.30 182.70 399.55 186.91 398.55   Q 198.58 395.76 210.13 393.01   A 1.52 1.52 0.0 0 0 211.29 391.53   L 211.32 375.31   A 1.16 1.16 0.0 0 0 210.23 374.15   Q 174.02 371.90 142.13 354.30   A 1.53 1.53 0.0 0 0 140.32 354.55   L 102.24 392.47   A 4.05 4.03 67.4 0 0 101.06 395.35   L 101.16 406.48   A 1.80 1.79 13.0 0 0 102.16 408.07   C 114.76 414.22 120.86 427.90 113.90 440.62   C 106.62 453.91 88.55 456.87 77.46 445.93   C 65.08 433.71 70.22 414.70 85.55 408.08   A 1.02 1.02 0.0 0 0 86.17 407.16   Q 86.27 398.95 86.28 390.98   C 86.29 388.51 87.56 386.27 89.27 384.56   Q 108.53 365.34 127.15 346.71   A 1.39 1.38 -49.7 0 0 126.98 344.60   Q 122.23 341.19 118.12 337.72   C 113.97 334.21 114.69 329.26 117.92 325.57   Q 123.62 322.36 128.01 326.01   C 193.95 381.01 290.99 366.11 337.62 294.37   Q 346.04 281.55 351.36 266.53   C 366.08 225.03 361.17 179.33 337.30 142.36   Q 316.73 110.52 283.17 93.34   C 234.88 68.62 178.24 73.72 134.68 105.65   Q 132.52 107.23 127.26 111.60   C 88.54 145.37 71.10 195.76 80.77 245.83   Q 86.85 277.34 107.31 304.27   C 109.76 307.50 109.40 311.42 107.08 314.77   Q 103.38 316.66 102.01 316.66   Q 97.60 316.66 95.01 313.25   Q 91.30 308.36 88.04 303.49   Q 87.54 302.74 86.81 303.26   Q 75.57 311.11 63.05 319.78   Q 62.07 320.47 61.44 321.54   Q 61.24 321.89 61.32 322.30   Q 64.09 335.61 55.92 344.62   C 48.23 353.10 34.90 354.85 25.28 348.73   C 15.10 342.24 11.12 328.86 16.85 317.74   C 23.36 305.13 39.11 300.92 51.22 308.71   A 2.20 2.19 43.5 0 0 53.69 308.65   L 79.31 290.11   A 0.97 0.97 0.0 0 0 79.61 288.89   Q 58.21 245.86 64.12 198.58   Q 67.61 170.69 80.97 145.82   A 1.97 1.97 0.0 0 0 80.53 143.41   Q 69.79 133.96 58.49 123.49   C 58.10 123.13 58.05 122.90 57.77 122.48   Q 57.54 122.13 57.15 122.24   Q 55.72 122.65 54.34 123.21   C 49.68 125.09 42.70 124.61 38.83 123.10   Q 27.00 118.48 24.27 106.22   C 22.31 97.43 25.84 88.19 33.24 82.97   C 42.60 76.35 55.08 77.12 63.16 85.24   C 69.29 91.40 71.99 101.61 68.11 109.98   Q 67.36 111.60 68.71 112.80   Q 78.89 121.88 88.97 131.01   A 0.85 0.85 0.0 0 0 90.24 130.86   Q 102.76 112.44 118.98 99.07   A 1.44 1.44 0.0 0 0 119.02 96.88   Q 111.91 90.59 104.38 83.58   C 102.62 81.95 101.93 79.54 101.96 77.17   Q 102.06 69.48 101.98 61.93   A 1.64 1.63 10.3 0 0 100.93 60.42   Q 94.90 58.09 90.94 52.58   Q 83.00 41.54 88.43 29.29   Q 91.59 22.14 98.97 18.32   C 108.45 13.41 120.10 16.13 127.08 24.11   Q 130.67 28.22 131.93 34.19   C 134.30 45.51 128.25 56.22 117.56 60.38   A 1.33 1.31 79.9 0 0 116.72 61.60   L 116.56 73.01   Q 116.53 74.61 117.73 75.69   L 131.77 88.29   A 1.50 1.50 0.0 0 0 133.61 88.42   Q 165.92 66.94 204.93 63.49   Q 227.07 61.53 247.95 65.66   Q 248.98 65.87 249.79 65.18   L 265.49 51.80   A 1.64 1.63 -20.4 0 0 266.06 50.56   Q 265.96 37.15 266.05 23.19   Q 266.07 20.53 267.83 18.62   C 273.22 12.79 280.81 17.08 280.83 24.49   Q 280.87 39.11 280.83 54.22   Q 280.82 57.84 278.04 60.37   Q 273.35 64.63 267.73 69.17   A 1.08 1.07 -55.2 0 0 268.06 71.02   Q 285.07 76.76 299.73 85.91   A 2.07 2.07 0.0 0 0 302.29 85.61   Q 312.37 75.42 322.56 65.21   C 323.95 63.83 326.02 62.89 328.01 62.90   Q 351.01 62.98 371.87 62.95   Q 374.03 62.94 376.25 62.67   A 0.82 0.81 -82.4 0 0 376.93 62.15   C 382.22 48.57 398.04 43.27 410.46 50.64   C 428.34 61.27 423.56 88.50 403.56 92.77   C 392.07 95.23 381.27 89.32 376.97 78.57   A 1.32 1.31 -10.9 0 0 375.75 77.75   L 332.07 77.72   A 1.84 1.81 22.5 0 0 330.79 78.24   L 314.31 94.58   A 0.99 0.99 0.0 0 0 314.39 96.07   Q 355.06 127.90 369.18 178.87   A 1.74 1.72 -7.8 0 0 370.87 180.14   L 385.25 180.05   A 1.44 1.42 13.0 0 0 386.51 179.27   C 393.72 165.27 400.81 149.22 407.80 136.53   C 409.02 134.32 412.09 133.18 414.58 133.20   Q 425.70 133.29 437.00 133.29   Q 437.77 133.29 438.50 133.03   Q 439.27 132.75 439.63 131.92   C 445.11 119.19 459.57 113.74 471.93 120.30   C 484.98 127.24 488.21 144.92 477.98 156.10   Q 473.05 161.49 466.29 162.94   C 454.87 165.40 444.18 159.81 439.56 149.23   Q 439.04 148.03 437.77 148.02   Q 429.65 147.98 419.84 148.00   A 1.89 1.88 -76.8 0 0 418.15 149.05   Q 407.46 170.27 397.38 190.29   Q 395.06 194.90 389.42 194.89   Q 381.50 194.87 374.01 194.78   A 1.23 1.22 -2.7 0 0 372.78 196.13   L 374.23 210.06   A 1.46 1.45 -3.2 0 0 375.70 211.37   Q 383.73 211.26 390.72 211.47   Q 393.81 211.57 396.06 213.80   Q 405.92 223.55 416.56 234.04   A 2.51 2.50 66.8 0 0 418.33 234.75   L 437.98 234.67   A 1.66 1.65 12.1 0 0 439.49 233.70   C 445.18 221.32 458.41 215.61 470.80 221.38   C 483.02 227.07 487.94 242.30 480.66 254.00   C 470.80 269.83 447.25 268.68 439.92 251.07   C 439.43 249.90 438.20 249.56 437.04 249.55   Q 425.11 249.45 414.99 249.65   Q 411.29 249.73 408.62 247.10   Q 400.32 238.93 389.41 227.75   Q 387.70 226.00 385.36 226.07   Q 379.72 226.23 375.38 226.22   A 1.26 1.26 0.0 0 0 374.11 227.41   Q 373.31 241.56 369.91 255.78   Q 369.50 257.47 370.71 258.67   Q 382.35 270.26 392.68 280.54   A 3.43 3.41 -22.4 0 0 395.10 281.54   L 406.92 281.56   A 1.35 1.35 0.0 0 0 408.16 280.74   Q 413.26 268.92 425.76 266.44   C 436.65 264.28 448.07 271.16 451.46 281.43   Q 454.14 289.53 451.21 297.20   C 446.79 308.79 433.70 314.80 422.15 310.70   Q 412.61 307.31 408.58 297.81   A 2.17 2.16 78.0 0 0 406.56 296.49   Q 398.42 296.58 390.67 296.42   C 388.13 296.36 386.29 295.15 384.55 293.42   Q 374.86 283.82 365.45 274.27   A 0.90 0.89 42.4 0 0 364.12 274.33   Q 363.73 274.81 363.40 275.67   Q 356.38 294.10 344.68 310.05   A 1.62 1.61 40.7 0 0 344.84 312.14   Q 363.71 331.17 382.60 350.08   Q 383.43 350.91 384.34 351.50   Q 384.82 351.81 385.36 351.59   Q 394.89 347.65 404.77 351.95   Q 408.20 353.45 417.09 362.36   Q 445.60 390.94 472.78 418.00   Q 479.31 424.50 481.17 427.84   Q 484.30 433.46 483.87 440.24   C 483.45 446.90 480.28 451.89 475.51 456.66   Q 464.30 467.87 455.52 476.59   Q 447.35 484.70 436.51 483.75   Q 432.27 483.37 428.48 481.32   Q 425.10 479.48 421.68 476.29   Q 416.49 471.44 413.47 468.03   Q 409.26 463.27 413.12 457.25   Z   M 117.15 39.05   A 7.78 7.78 0.0 0 0 109.37 31.27   A 7.78 7.78 0.0 0 0 101.59 39.05   A 7.78 7.78 0.0 0 0 109.37 46.83   A 7.78 7.78 0.0 0 0 117.15 39.05   Z   M 406.22 70.29   A 7.78 7.78 0.0 0 0 398.44 62.51   A 7.78 7.78 0.0 0 0 390.66 70.29   A 7.78 7.78 0.0 0 0 398.44 78.07   A 7.78 7.78 0.0 0 0 406.22 70.29   Z   M 54.66 101.56   A 7.78 7.78 0.0 0 0 46.88 93.78   A 7.78 7.78 0.0 0 0 39.10 101.56   A 7.78 7.78 0.0 0 0 46.88 109.34   A 7.78 7.78 0.0 0 0 54.66 101.56   Z   M 468.73 140.63   A 7.79 7.79 0.0 0 0 460.94 132.84   A 7.79 7.79 0.0 0 0 453.15 140.63   A 7.79 7.79 0.0 0 0 460.94 148.42   A 7.79 7.79 0.0 0 0 468.73 140.63   Z   M 468.75 242.17   A 7.81 7.81 0.0 0 0 460.94 234.36   A 7.81 7.81 0.0 0 0 453.13 242.17   A 7.81 7.81 0.0 0 0 460.94 249.98   A 7.81 7.81 0.0 0 0 468.75 242.17   Z   M 437.50 289.05   A 7.80 7.80 0.0 0 0 429.70 281.25   A 7.80 7.80 0.0 0 0 421.90 289.05   A 7.80 7.80 0.0 0 0 429.70 296.85   A 7.80 7.80 0.0 0 0 437.50 289.05   Z   M 46.86 328.10   A 7.81 7.81 0.0 0 0 39.05 320.29   A 7.81 7.81 0.0 0 0 31.24 328.10   A 7.81 7.81 0.0 0 0 39.05 335.91   A 7.81 7.81 0.0 0 0 46.86 328.10   Z   M 367.86 356.83   L 337.98 326.91   L 334.86 323.78   Q 334.49 323.41 334.13 323.78   L 323.82 334.10   Q 323.41 334.51 323.82 334.92   L 360.93 371.98   Q 361.52 372.58 362.12 371.98   L 372.14 361.90   A 0.60 0.60 0.0 0 0 372.13 361.05   L 367.86 356.83   Z   M 101.55 429.70   A 7.79 7.79 0.0 0 0 93.76 421.91   A 7.79 7.79 0.0 0 0 85.97 429.70   A 7.79 7.79 0.0 0 0 93.76 437.49   A 7.79 7.79 0.0 0 0 101.55 429.70   Z   M 296.86 429.69   A 7.80 7.80 0.0 0 0 289.06 421.89   A 7.80 7.80 0.0 0 0 281.26 429.69   A 7.80 7.80 0.0 0 0 289.06 437.49   A 7.80 7.80 0.0 0 0 296.86 429.69   Z   M 195.29 460.93   A 7.79 7.79 0.0 0 0 187.50 453.14   A 7.79 7.79 0.0 0 0 179.71 460.93   A 7.79 7.79 0.0 0 0 187.50 468.72   A 7.79 7.79 0.0 0 0 195.29 460.93   Z"
     id="path1354"
     style="fill:#ffffff" />
  <circle
     fill="#fbf1ae"
     cx="109.37"
     cy="39.05"
     r="7.78"
     id="circle1356" />
  <circle
     fill="#fbf1ae"
     cx="398.44"
     cy="70.29"
     r="7.78"
     id="circle1358" />
  <path
     fill="#e9f1f3"
     d="   M 337.62 294.37   Q 326.76 298.68 316.63 303.60   Q 315.16 304.31 314.11 304.57   Q 310.79 305.38 311.44 303.36   C 348.23 261.85 354.13 203.50 326.46 155.50   Q 322.32 148.32 314.63 152.30   Q 310.68 145.62 305.09 140.07   C 308.03 136.92 308.63 132.31 305.64 129.07   Q 304.03 127.34 302.15 125.68   Q 271.67 98.79 231.93 94.28   C 188.10 89.30 146.58 107.57 119.16 141.49   Q 120.11 134.00 121.94 127.00   Q 123.97 119.24 127.26 111.60   Q 132.52 107.23 134.68 105.65   C 178.24 73.72 234.88 68.62 283.17 93.34   Q 316.73 110.52 337.30 142.36   C 361.17 179.33 366.08 225.03 351.36 266.53   Q 346.04 281.55 337.62 294.37   Z"
     id="path1360"
     style="fill:#808080" />
  <path
     fill="#464b51"
     d="   M 305.09 140.07   C 298.96 145.07 294.43 139.88 290.11 136.11   Q 286.13 132.63 281.11 129.12   A 0.54 0.54 0.0 0 0 280.42 129.18   L 266.21 143.30   L 258.56 150.99   A 2.59 2.56 67.5 0 0 257.82 152.80   L 257.80 163.69   A 0.36 0.35 -90.0 0 0 258.15 164.05   Q 260.97 164.08 263.95 163.96   C 273.93 163.58 273.85 171.76 273.42 178.97   Q 273.37 179.69 274.10 179.69   L 302.51 179.71   L 320.02 179.74   Q 320.36 179.74 320.45 179.42   Q 320.51 179.17 320.42 178.95   Q 317.47 171.39 313.67 164.79   C 310.91 160.01 310.39 156.22 314.63 152.30   Q 322.32 148.32 326.46 155.50   C 354.13 203.50 348.23 261.85 311.44 303.36   C 268.83 350.47 197.99 358.52 146.10 322.19   Q 111.48 297.95 98.25 257.10   Q 92.29 238.69 92.35 219.74   Q 92.50 175.94 119.16 141.49   C 146.58 107.57 188.10 89.30 231.93 94.28   Q 271.67 98.79 302.15 125.68   Q 304.03 127.34 305.64 129.07   C 308.63 132.31 308.03 136.92 305.09 140.07   Z   M 176.30 127.82   Q 184.65 135.36 192.53 142.47   Q 195.20 144.88 195.26 148.45   Q 195.39 156.01 195.24 163.51   Q 195.23 164.04 195.76 164.04   L 210.71 164.00   A 0.25 0.24 90.0 0 0 210.95 163.75   L 210.89 124.72   L 210.80 110.32   Q 210.80 109.81 210.29 109.85   Q 188.93 111.47 169.73 121.16   A 0.38 0.37 -37.7 0 0 169.65 121.77   L 176.30 127.82   Z   M 226.56 127.30   L 226.58 163.39   Q 226.58 164.03 227.23 164.03   L 241.53 164.06   Q 242.20 164.06 242.20 163.40   Q 242.24 156.19 242.11 149.19   Q 242.04 145.35 244.69 142.70   Q 248.17 139.22 251.83 135.58   L 266.33 121.01   Q 266.75 120.58 266.21 120.32   Q 247.98 111.49 226.99 109.77   A 0.40 0.40 0.0 0 0 226.55 110.18   L 226.56 127.30   Z   M 140.60 142.66   Q 132.02 151.13 125.32 162.36   Q 125.00 162.90 125.46 163.31   L 143.04 179.17   A 2.14 2.13 66.0 0 0 144.47 179.72   L 163.51 179.73   A 0.58 0.58 0.0 0 0 164.09 179.15   Q 164.08 176.00 164.04 172.75   C 163.96 167.39 167.25 164.00 172.61 164.04   Q 175.99 164.07 179.25 164.06   A 0.52 0.51 -90.0 0 0 179.76 163.54   L 179.69 152.62   A 1.73 1.70 -69.8 0 0 179.12 151.36   L 159.41 133.63   L 155.83 130.30   A 0.83 0.83 0.0 0 0 154.80 130.22   Q 146.65 135.82 140.60 142.66   Z   M 117.13 178.54   Q 110.92 193.86 109.83 210.41   A 0.49 0.48 -88.3 0 0 110.31 210.93   L 124.67 210.92   L 163.38 210.92   Q 164.01 210.92 164.01 210.29   L 164.06 195.81   Q 164.06 195.24 163.49 195.25   Q 152.61 195.36 140.10 195.24   Q 137.61 195.22 135.79 193.61   Q 126.87 185.74 118.06 177.69   A 0.43 0.42 30.9 0 0 117.37 177.86   L 117.13 178.54   Z   M 258.38 246.91   Q 260.34 243.25 264.08 242.18   L 320.47 242.19   L 325.06 242.03   Q 325.64 242.01 325.72 241.44   L 327.76 227.31   Q 327.84 226.71 327.24 226.71   L 319.53 226.70   L 264.82 226.56   Q 257.78 225.35 257.80 218.24   Q 257.83 199.30 257.76 180.28   Q 257.76 179.78 257.25 179.78   L 190.16 179.75   L 180.21 179.80   Q 179.72 179.80 179.72 180.29   L 179.73 257.46   A 0.36 0.36 0.0 0 0 180.09 257.82   L 257.25 257.81   A 0.71 0.71 0.0 0 0 257.95 257.01   Q 257.32 251.64 258.38 246.91   Z   M 316.10 210.94   L 327.51 210.95   A 0.42 0.42 0.0 0 0 327.93 210.47   L 325.69 195.68   A 0.47 0.46 85.7 0 0 325.23 195.28   L 310.74 195.30   L 273.90 195.29   Q 273.47 195.29 273.47 195.72   L 273.47 210.52   A 0.41 0.41 0.0 0 0 273.88 210.93   L 316.10 210.94   Z   M 141.45 245.36   Q 145.44 242.22 146.98 242.20   Q 155.11 242.14 163.49 242.23   Q 164.08 242.23 164.08 241.64   L 164.02 227.24   Q 164.01 226.67 163.45 226.67   L 130.40 226.63   L 110.30 226.58   A 0.51 0.51 0.0 0 0 109.79 227.13   Q 111.13 244.76 118.03 261.34   A 0.50 0.50 0.0 0 0 118.78 261.55   L 141.45 245.36   Z   M 150.58 258.08   L 126.28 275.40   Q 125.67 275.83 126.07 276.46   Q 139.79 298.22 161.36 311.67   A 0.27 0.27 0.0 0 0 161.69 311.63   L 179.07 294.33   A 2.20 2.18 67.7 0 0 179.71 292.78   L 179.65 285.13   L 179.70 274.06   Q 179.70 273.44 179.08 273.43   C 175.90 273.41 172.14 273.95 169.19 272.87   C 162.95 270.58 163.94 263.93 164.08 258.48   Q 164.10 257.83 163.45 257.85   L 150.58 258.08   Z   M 257.84 312.57   L 257.84 320.13   A 0.38 0.38 0.0 0 0 258.36 320.49   Q 267.84 316.87 276.43 311.52   Q 307.27 292.11 320.09 258.71   Q 320.43 257.83 319.49 257.83   L 273.99 257.82   A 0.55 0.55 0.0 0 0 273.44 258.39   C 273.63 263.02 274.39 269.17 269.92 272.08   C 266.77 274.14 262.11 273.45 258.48 273.44   Q 257.81 273.44 257.81 274.10   L 257.84 312.57   Z   M 195.31 295.03   Q 195.64 299.74 193.07 302.30   Q 184.68 310.67 176.38 319.02   A 0.35 0.35 0.0 0 0 176.49 319.59   Q 192.62 326.28 210.28 327.66   Q 210.79 327.70 210.79 327.19   L 210.88 302.16   L 210.94 273.87   Q 210.95 273.45 210.53 273.45   L 195.55 273.48   A 0.26 0.26 0.0 0 0 195.29 273.74   L 195.31 295.03   Z   M 226.55 307.42   L 226.58 327.16   A 0.63 0.62 -4.0 0 0 227.30 327.77   L 241.43 325.74   Q 241.93 325.67 241.94 325.17   L 242.15 310.92   L 242.18 274.07   Q 242.18 273.46 241.57 273.46   L 227.02 273.45   A 0.43 0.43 0.0 0 0 226.59 273.88   L 226.55 307.42   Z"
     id="path1362" />
  <circle
     fill="#fbf1ae"
     cx="46.88"
     cy="101.56"
     r="7.78"
     id="circle1364" />
  <path
     fill="#48cae4"
     d="   M 210.89 124.72   Q 208.98 125.32 208.24 125.27   Q 198.25 124.68 192.25 125.53   Q 184.51 126.63 176.30 127.82   L 169.65 121.77   A 0.38 0.37 -37.7 0 1 169.73 121.16   Q 188.93 111.47 210.29 109.85   Q 210.80 109.81 210.80 110.32   L 210.89 124.72   Z"
     id="path1366" />
  <path
     fill="#48cae4"
     d="   M 251.83 135.58   Q 239.59 130.17 226.56 127.30   L 226.55 110.18   A 0.40 0.40 0.0 0 1 226.99 109.77   Q 247.98 111.49 266.21 120.32   Q 266.75 120.58 266.33 121.01   L 251.83 135.58   Z"
     id="path1368" />
  <path
     fill="#d0d8da"
     d="   M 127.26 111.60   Q 123.97 119.24 121.94 127.00   Q 120.11 134.00 119.16 141.49   Q 92.50 175.94 92.35 219.74   Q 92.29 238.69 98.25 257.10   Q 111.48 297.95 146.10 322.19   C 197.99 358.52 268.83 350.47 311.44 303.36   Q 310.79 305.38 314.11 304.57   Q 315.16 304.31 316.63 303.60   Q 326.76 298.68 337.62 294.37   C 290.99 366.11 193.95 381.01 128.01 326.01   Q 123.62 322.36 117.92 325.57   Q 110.68 322.96 108.13 315.65   Q 107.85 314.85 107.08 314.77   C 109.40 311.42 109.76 307.50 107.31 304.27   Q 86.85 277.34 80.77 245.83   C 71.10 195.76 88.54 145.37 127.26 111.60   Z"
     id="path1370"
     style="fill:#808080" />
  <path
     fill="#aee8f4"
     d="   M 210.89 124.72   L 210.95 163.75   A 0.25 0.24 90.0 0 1 210.71 164.00   L 195.76 164.04   Q 195.23 164.04 195.24 163.51   Q 195.39 156.01 195.26 148.45   Q 195.20 144.88 192.53 142.47   Q 184.65 135.36 176.30 127.82   Q 184.51 126.63 192.25 125.53   Q 198.25 124.68 208.24 125.27   Q 208.98 125.32 210.89 124.72   Z"
     id="path1372" />
  <path
     fill="#aee8f4"
     d="   M 251.83 135.58   Q 248.17 139.22 244.69 142.70   Q 242.04 145.35 242.11 149.19   Q 242.24 156.19 242.20 163.40   Q 242.20 164.06 241.53 164.06   L 227.23 164.03   Q 226.58 164.03 226.58 163.39   L 226.56 127.30   Q 239.59 130.17 251.83 135.58   Z"
     id="path1374" />
  <path
     fill="#48cae4"
     d="   M 305.09 140.07   Q 310.68 145.62 314.63 152.30   C 310.39 156.22 310.91 160.01 313.67 164.79   Q 317.47 171.39 320.42 178.95   Q 320.51 179.17 320.45 179.42   Q 320.36 179.74 320.02 179.74   L 302.51 179.71   Q 296.98 171.78 294.84 169.16   Q 282.62 154.14 266.21 143.30   L 280.42 129.18   A 0.54 0.54 0.0 0 1 281.11 129.12   Q 286.13 132.63 290.11 136.11   C 294.43 139.88 298.96 145.07 305.09 140.07   Z"
     id="path1376" />
  <path
     fill="#48cae4"
     d="   M 159.41 133.63   L 140.60 142.66   Q 146.65 135.82 154.80 130.22   A 0.83 0.83 0.0 0 1 155.83 130.30   L 159.41 133.63   Z"
     id="path1378" />
  <circle
     fill="#fbf1ae"
     cx="460.94"
     cy="140.63"
     r="7.79"
     id="circle1380" />
  <path
     fill="#aee8f4"
     d="   M 159.41 133.63   L 179.12 151.36   A 1.73 1.70 -69.8 0 1 179.69 152.62   L 179.76 163.54   A 0.52 0.51 90.0 0 1 179.25 164.06   Q 175.99 164.07 172.61 164.04   C 167.25 164.00 163.96 167.39 164.04 172.75   Q 164.08 176.00 164.09 179.15   A 0.58 0.58 0.0 0 1 163.51 179.73   L 144.47 179.72   A 2.14 2.13 66.0 0 1 143.04 179.17   L 125.46 163.31   Q 125.00 162.90 125.32 162.36   Q 132.02 151.13 140.60 142.66   L 159.41 133.63   Z"
     id="path1382" />
  <path
     fill="#aee8f4"
     d="   M 266.21 143.30   Q 282.62 154.14 294.84 169.16   Q 296.98 171.78 302.51 179.71   L 274.10 179.69   Q 273.37 179.69 273.42 178.97   C 273.85 171.76 273.93 163.58 263.95 163.96   Q 260.97 164.08 258.15 164.05   A 0.36 0.35 90.0 0 1 257.80 163.69   L 257.82 152.80   A 2.59 2.56 67.5 0 1 258.56 150.99   L 266.21 143.30   Z"
     id="path1384" />
  <path
     fill="#aee8f4"
     d="   M 124.67 210.92   Q 120.09 196.18 118.07 180.87   C 117.94 179.95 117.48 179.38 117.13 178.54   L 117.37 177.86   A 0.43 0.42 30.9 0 1 118.06 177.69   Q 126.87 185.74 135.79 193.61   Q 137.61 195.22 140.10 195.24   Q 152.61 195.36 163.49 195.25   Q 164.06 195.24 164.06 195.81   L 164.01 210.29   Q 164.01 210.92 163.38 210.92   L 124.67 210.92   Z"
     id="path1386" />
  <path
     fill="#48cae4"
     d="   M 117.13 178.54   C 117.48 179.38 117.94 179.95 118.07 180.87   Q 120.09 196.18 124.67 210.92   L 110.31 210.93   A 0.49 0.48 -88.3 0 1 109.83 210.41   Q 110.92 193.86 117.13 178.54   Z"
     id="path1388" />
  <path
     fill="#b8bdbf"
     d="   M 190.16 179.75   Q 191.85 184.45 193.44 188.99   Q 194.12 190.96 195.33 193.41   Q 196.37 195.51 197.32 197.79   Q 195.30 200.13 195.29 204.25   Q 195.23 218.47 195.25 232.80   C 195.25 236.67 196.17 239.55 199.54 241.24   Q 201.45 242.20 206.19 242.20   Q 220.47 242.20 234.75 242.20   Q 236.51 242.20 239.25 240.62   Q 240.74 241.33 242.38 241.70   Q 244.28 242.13 245.49 242.69   Q 251.75 245.57 258.38 246.91   Q 257.32 251.64 257.95 257.01   A 0.71 0.71 0.0 0 1 257.25 257.81   L 180.09 257.82   A 0.36 0.36 0.0 0 1 179.73 257.46   L 179.72 180.29   Q 179.72 179.80 180.21 179.80   L 190.16 179.75   Z"
     id="path1390" />
  <path
     fill="#d0d8da"
     d="   M 190.16 179.75   L 257.25 179.78   Q 257.76 179.78 257.76 180.28   Q 257.83 199.30 257.80 218.24   Q 257.78 225.35 264.82 226.56   Q 267.00 235.26 264.08 242.18   Q 260.34 243.25 258.38 246.91   Q 251.75 245.57 245.49 242.69   Q 244.28 242.13 242.38 241.70   Q 240.74 241.33 239.25 240.62   Q 242.12 237.78 242.12 234.00   Q 242.10 220.22 242.21 205.51   C 242.23 201.71 241.74 198.21 238.22 196.30   Q 236.35 195.28 231.80 195.28   Q 218.34 195.25 204.50 195.28   Q 200.11 195.28 197.32 197.79   Q 196.37 195.51 195.33 193.41   Q 194.12 190.96 193.44 188.99   Q 191.85 184.45 190.16 179.75   Z"
     id="path1392" />
  <path
     fill="#464b51"
     d="   M 239.25 240.62   Q 236.51 242.20 234.75 242.20   Q 220.47 242.20 206.19 242.20   Q 201.45 242.20 199.54 241.24   C 196.17 239.55 195.25 236.67 195.25 232.80   Q 195.23 218.47 195.29 204.25   Q 195.30 200.13 197.32 197.79   Q 200.11 195.28 204.50 195.28   Q 218.34 195.25 231.80 195.28   Q 236.35 195.28 238.22 196.30   C 241.74 198.21 242.23 201.71 242.21 205.51   Q 242.10 220.22 242.12 234.00   Q 242.12 237.78 239.25 240.62   Z   M 226.54 211.22   A 0.27 0.27 0.0 0 0 226.27 210.95   L 211.25 210.95   A 0.27 0.27 0.0 0 0 210.98 211.22   L 210.98 226.24   A 0.27 0.27 0.0 0 0 211.25 226.51   L 226.27 226.51   A 0.27 0.27 0.0 0 0 226.54 226.24   L 226.54 211.22   Z"
     id="path1394" />
  <path
     fill="#aee8f4"
     d="   M 310.74 195.30   L 316.10 210.94   L 273.88 210.93   A 0.41 0.41 0.0 0 1 273.47 210.52   L 273.47 195.72   Q 273.47 195.29 273.90 195.29   L 310.74 195.30   Z"
     id="path1396" />
  <path
     fill="#48cae4"
     d="   M 310.74 195.30   L 325.23 195.28   A 0.47 0.46 85.7 0 1 325.69 195.68   L 327.93 210.47   A 0.42 0.42 0.0 0 1 327.51 210.95   L 316.10 210.94   L 310.74 195.30   Z"
     id="path1398" />
  <rect
     fill="#fbf1ae"
     x="210.98"
     y="210.95"
     width="15.56"
     height="15.56"
     rx="0.27"
     id="rect1400" />
  <path
     fill="#48cae4"
     d="   M 130.40 226.63   Q 129.69 227.02 131.40 228.17   Q 131.81 228.45 132.05 228.87   L 141.45 245.36   L 118.78 261.55   A 0.50 0.50 0.0 0 1 118.03 261.34   Q 111.13 244.76 109.79 227.13   A 0.51 0.51 0.0 0 1 110.30 226.58   L 130.40 226.63   Z"
     id="path1402" />
  <path
     fill="#aee8f4"
     d="   M 141.45 245.36   L 132.05 228.87   Q 131.81 228.45 131.40 228.17   Q 129.69 227.02 130.40 226.63   L 163.45 226.67   Q 164.01 226.67 164.02 227.24   L 164.08 241.64   Q 164.08 242.23 163.49 242.23   Q 155.11 242.14 146.98 242.20   Q 145.44 242.22 141.45 245.36   Z"
     id="path1404" />
  <path
     fill="#aee8f4"
     d="   M 264.82 226.56   L 319.53 226.70   Q 319.67 227.24 319.54 227.69   Q 319.43 228.07 319.46 228.45   L 320.47 242.19   L 264.08 242.18   Q 267.00 235.26 264.82 226.56   Z"
     id="path1406" />
  <path
     fill="#48cae4"
     d="   M 320.47 242.19   L 319.46 228.45   Q 319.43 228.07 319.54 227.69   Q 319.67 227.24 319.53 226.70   L 327.24 226.71   Q 327.84 226.71 327.76 227.31   L 325.72 241.44   Q 325.64 242.01 325.06 242.03   L 320.47 242.19   Z"
     id="path1408" />
  <circle
     fill="#fbf1ae"
     cx="460.94"
     cy="242.17"
     r="7.81"
     id="circle1410" />
  <path
     fill="#aee8f4"
     d="   M 179.65 285.13   Q 169.39 277.34 166.26 274.48   Q 160.53 269.26 150.58 258.08   L 163.45 257.85   Q 164.10 257.83 164.08 258.48   C 163.94 263.93 162.95 270.58 169.19 272.87   C 172.14 273.95 175.90 273.41 179.08 273.43   Q 179.70 273.44 179.70 274.06   L 179.65 285.13   Z"
     id="path1412" />
  <path
     fill="#aee8f4"
     d="   M 276.43 311.52   Q 268.52 312.82 260.39 312.44   Q 259.79 312.42 259.16 312.67   Q 257.76 313.24 257.84 312.57   L 257.81 274.10   Q 257.81 273.44 258.48 273.44   C 262.11 273.45 266.77 274.14 269.92 272.08   C 274.39 269.17 273.63 263.02 273.44 258.39   A 0.55 0.55 0.0 0 1 273.99 257.82   L 319.49 257.83   Q 320.43 257.83 320.09 258.71   Q 307.27 292.11 276.43 311.52   Z"
     id="path1414" />
  <path
     fill="#48cae4"
     d="   M 150.58 258.08   Q 160.53 269.26 166.26 274.48   Q 169.39 277.34 179.65 285.13   L 179.71 292.78   A 2.20 2.18 67.7 0 1 179.07 294.33   L 161.69 311.63   A 0.27 0.27 0.0 0 1 161.36 311.67   Q 139.79 298.22 126.07 276.46   Q 125.67 275.83 126.28 275.40   L 150.58 258.08   Z"
     id="path1416" />
  <path
     fill="#aee8f4"
     d="   M 210.88 302.16   L 195.31 295.03   L 195.29 273.74   A 0.26 0.26 0.0 0 1 195.55 273.48   L 210.53 273.45   Q 210.95 273.45 210.94 273.87   L 210.88 302.16   Z"
     id="path1418" />
  <path
     fill="#aee8f4"
     d="   M 242.15 310.92   L 226.55 307.42   L 226.59 273.88   A 0.43 0.43 0.0 0 1 227.02 273.45   L 241.57 273.46   Q 242.18 273.46 242.18 274.07   L 242.15 310.92   Z"
     id="path1420" />
  <circle
     fill="#fbf1ae"
     cx="429.70"
     cy="289.05"
     r="7.80"
     id="circle1422" />
  <path
     fill="#48cae4"
     d="   M 210.88 302.16   L 210.79 327.19   Q 210.79 327.70 210.28 327.66   Q 192.62 326.28 176.49 319.59   A 0.35 0.35 0.0 0 1 176.38 319.02   Q 184.68 310.67 193.07 302.30   Q 195.64 299.74 195.31 295.03   L 210.88 302.16   Z"
     id="path1424" />
  <path
     fill="#48cae4"
     d="   M 226.55 307.42   L 242.15 310.92   L 241.94 325.17   Q 241.93 325.67 241.43 325.74   L 227.30 327.77   A 0.63 0.62 -4.0 0 1 226.58 327.16   L 226.55 307.42   Z"
     id="path1426" />
  <path
     fill="#48cae4"
     d="   M 276.43 311.52   Q 267.84 316.87 258.36 320.49   A 0.38 0.38 0.0 0 1 257.84 320.13   L 257.84 312.57   Q 257.76 313.24 259.16 312.67   Q 259.79 312.42 260.39 312.44   Q 268.52 312.82 276.43 311.52   Z"
     id="path1428" />
  <circle
     fill="#fbf1ae"
     cx="39.05"
     cy="328.10"
     r="7.81"
     id="circle1430" />
  <path
     fill="#b8bdbf"
     d="   M 337.98 326.91   L 331.92 335.47   Q 330.66 337.25 332.21 338.78   C 335.02 341.56 338.09 343.87 340.71 346.97   Q 344.80 351.80 351.19 355.74   Q 355.11 358.16 359.76 358.08   Q 363.91 358.00 367.86 356.83   L 372.13 361.05   A 0.60 0.60 0.0 0 1 372.14 361.90   L 362.12 371.98   Q 361.52 372.58 360.93 371.98   L 323.82 334.92   Q 323.41 334.51 323.82 334.10   L 334.13 323.78   Q 334.49 323.41 334.86 323.78   L 337.98 326.91   Z"
     id="path1432"
     style="fill:#4d4d4d" />
  <path
     fill="#d0d8da"
     d="   M 337.98 326.91   L 367.86 356.83   Q 363.91 358.00 359.76 358.08   Q 355.11 358.16 351.19 355.74   Q 344.80 351.80 340.71 346.97   C 338.09 343.87 335.02 341.56 332.21 338.78   Q 330.66 337.25 331.92 335.47   L 337.98 326.91   Z"
     id="path1434"
     style="fill:#999999" />
  <path
     fill="#48cae4"
     d="   M 465.00 431.90   Q 455.18 439.08 442.75 439.92   Q 421.12 441.37 405.89 426.37   Q 386.80 407.57 367.65 388.47   Q 377.25 378.87 387.24 368.94   Q 390.62 365.58 392.83 364.92   Q 396.81 363.73 400.17 367.08   Q 432.14 398.99 465.00 431.90   Z"
     id="path1436" />
  <path
     fill="#01b3d6"
     d="   M 367.65 388.47   Q 386.80 407.57 405.89 426.37   Q 421.12 441.37 442.75 439.92   Q 455.18 439.08 465.00 431.90   Q 467.15 433.41 468.20 436.01   Q 470.07 440.66 465.83 444.95   Q 449.31 461.68 443.93 466.74   C 440.25 470.19 435.96 468.91 432.40 465.57   Q 428.07 461.52 425.41 458.57   Q 419.94 452.51 413.12 457.25   Q 407.21 451.79 402.52 445.59   Q 406.32 439.46 401.18 434.33   Q 385.10 418.25 369.05 402.19   Q 365.43 398.57 364.87 396.21   Q 363.92 392.16 367.65 388.47   Z"
     id="path1438" />
  <circle
     fill="#fbf1ae"
     cx="93.76"
     cy="429.70"
     r="7.79"
     id="circle1440" />
  <circle
     fill="#fbf1ae"
     cx="289.06"
     cy="429.69"
     r="7.80"
     id="circle1442" />
  <circle
     fill="#fbf1ae"
     cx="187.50"
     cy="460.93"
     r="7.79"
     id="circle1444" />
</svg>
