<?xml version="1.0" encoding="UTF-8" standalone="no"?>
<svg
   version="1.1"
   viewBox="0.00 0.00 500.00 500.00"
   id="svg1446"
   sodipodi:docname="RAROP.svg"
   inkscape:version="1.1 (c68e22c387, 2021-05-23)"
   xmlns:inkscape="http://www.inkscape.org/namespaces/inkscape"
   xmlns:sodipodi="http://sodipodi.sourceforge.net/DTD/sodipodi-0.dtd"
   xmlns="http://www.w3.org/2000/svg"
   xmlns:svg="http://www.w3.org/2000/svg">
  <defs
     id="defs1450" />
  <sodipodi:namedview
     id="namedview1448"
     pagecolor="#505050"
     bordercolor="#ffffff"
     borderopacity="1"
     inkscape:pageshadow="0"
     inkscape:pageopacity="0"
     inkscape:pagecheckerboard="1"
     showgrid="false"
     inkscape:zoom="0.858"
     inkscape:cx="356.06061"
     inkscape:cy="321.09557"
     inkscape:window-width="1920"
     inkscape:window-height="1017"
     inkscape:window-x="-8"
     inkscape:window-y="-8"
     inkscape:window-maximized="1"
     inkscape:current-layer="svg1446" />
  <g
     id="g1975"
     transform="matrix(3.3343688,0,0,3.3343688,-1849.1732,-1606.8329)">
    <path
       fill="#2b3276"
       d="m 582.57294,524.62621 c 2.57,1.24 4.8,-0.92 6.23,-2.81 2.05,-2.72 5.02,-5.05 7.53,-7.35 a 3.63,3.63 0 0 0 0.92,-4.01 c -1.12,-2.83 -2.89,-6.02 -2.56,-9.08 0.64,-6 7.95,-8.83 13.14,-10.36 3.77,-1.11 8.3,0.12 10.03,3.8 q 1.47,3.13 2.8,6.34 a 3.2,3.19 78.7 0 0 2.95,1.97 l 14.66,-0.05 a 2.73,2.73 0 0 0 2.45,-1.53 q 1.05,-2.16 1.92,-4.48 c 1.81,-4.81 6.07,-7.11 11.22,-5.71 7.02,1.9 16.03,6.35 11.96,15.48 -1.32,2.97 -3.27,6.43 0.15,8.97 q 4.38,3.24 7.99,8.21 c 2.87,3.95 7.44,-0.68 10.97,-1.04 7.85,-0.8 10.27,4.78 12.53,10.9 2.02,5.47 0.35,10.82 -5.28,12.98 -3,1.15 -6.74,1.87 -6.33,6.14 q 0.51,5.34 -0.15,11.17 c -0.72,6.35 7.36,5.29 10.31,9.27 q 3.22,4.32 1.53,9.29 -1.71,5.05 -4.18,8.64 -0.99,1.44 -2.46,0.49 -1.51,-0.98 -2.84,-2.13 -9.94,-8.68 -18.35,-16.3 c -2.49,-2.26 -0.37,-7.22 -0.11,-10.06 q 1.95,-21.21 -12.59,-34.16 c -14.47,-12.89 -35.17,-13.56 -50.61,-2 -19.31,14.47 -20.25,42.95 -3.36,59.43 q 15.11,14.75 38.01,9.77 c 2.24,-0.49 4.07,0.8 5.46,2.39 q 7.9,9.04 16.53,18.45 2.37,2.6 -0.49,4.47 -6.29,4.13 -12.28,4.21 c -10.43,0.14 -6.78,-12.61 -14.23,-12.2 q -6.11,0.33 -11.89,-0.01 c -5.36,-0.32 -5.21,7.38 -8.48,10.15 -4.66,3.95 -11.57,1.14 -16.34,-1.54 q -6.4,-3.59 -5.03,-9.73 c 0.76,-3.43 4.86,-8.1 1.12,-11.17 q -4.4,-3.62 -8,-7.99 c -2.99,-3.63 -6.77,-0.92 -10.1,0.23 -7.05,2.43 -10.55,-2.65 -12.81,-8.32 -1.91,-4.82 -3.1,-9.51 1.21,-13.46 3.55,-3.25 10.62,-2.05 9.55,-9.12 q -0.72,-4.78 0.06,-9.88 c 0.71,-4.58 -3.63,-5.71 -6.9,-6.96 -3.02,-1.16 -4.63,-3.06 -5.31,-6.25 -0.83,-3.87 1.33,-8.4 3.06,-11.8 1.94,-3.78 5.95,-6.92 10.3,-5.63 q 3.01,0.89 6.09,2.38 z"
       id="path834"
       style="fill:#ffffff" />
    <path
       fill="#3c3c46"
       d="m 643.46294,584.29621 c -1.3,-1.43 -3.28,-2.14 -5.15,-1.6 q -4.33,1.24 -8.06,0.6 c -3.64,-0.63 -7.85,-1.69 -10.9,-3.86 q -9.25,-6.58 -7.68,-19.44 0.26,-2.14 1.15,-3.83 a 1.2,1.2 0 0 1 1.89,-0.3 q 4.42,4.26 8.74,8.58 c 7.68,7.68 20.66,-4.62 12.96,-13.11 q -3.33,-3.67 -8.2,-8.34 a 1.42,1.41 50.5 0 1 0.21,-2.21 c 3.41,-2.22 10.95,-1.32 14.45,0.07 10.66,4.24 14.46,14.86 11.87,25.71 -0.76,3.16 1.56,4.73 3.51,6.52 q 13.81,12.71 26.66,23.98 c 2.05,1.8 4.34,2.97 6.79,4.13 4.47,2.13 6.36,7.35 4.78,11.84 q -3.63,10.34 -13.99,11.71 -3.99,0.53 -7.04,-2.07 c -2.75,-2.35 -3.26,-6.23 -5.68,-8.97 q -12.52,-14.14 -26.31,-29.41 z m 44.6099,29.476 a 5.82,5.51 28.6 0 0 -2.4723,-7.6237 5.82,5.51 28.6 0 0 -7.7475,2.0517 5.82,5.51 28.6 0 0 2.4723,7.6237 5.82,5.51 28.6 0 0 7.7475,-2.0517 z"
       id="path836"
       style="fill:#ffffff" />
  </g>
</svg>
