<?xml version="1.0" encoding="UTF-8" standalone="no"?>
<svg
   version="1.1"
   viewBox="0.00 0.00 500.00 500.00"
   id="svg1446"
   sodipodi:docname="TAC.svg"
   inkscape:version="1.1 (c68e22c387, 2021-05-23)"
   xmlns:inkscape="http://www.inkscape.org/namespaces/inkscape"
   xmlns:sodipodi="http://sodipodi.sourceforge.net/DTD/sodipodi-0.dtd"
   xmlns="http://www.w3.org/2000/svg"
   xmlns:svg="http://www.w3.org/2000/svg">
  <defs
     id="defs1450" />
  <sodipodi:namedview
     id="namedview1448"
     pagecolor="#505050"
     bordercolor="#ffffff"
     borderopacity="1"
     inkscape:pageshadow="0"
     inkscape:pageopacity="0"
     inkscape:pagecheckerboard="1"
     showgrid="false"
     inkscape:zoom="0.858"
     inkscape:cx="357.22611"
     inkscape:cy="321.09557"
     inkscape:window-width="1920"
     inkscape:window-height="1017"
     inkscape:window-x="-8"
     inkscape:window-y="-8"
     inkscape:window-maximized="1"
     inkscape:current-layer="svg1446" />
  <g
     id="g919"
     style="fill:#ffffff"
     transform="matrix(2.5506351,0,0,2.5506351,-61.782714,-6.5287285)">
    <path
       fill="#221e1f"
       d="m 127.41,76.51 -14.65,0.01 a 2.76,2.75 -90 0 1 -2.75,-2.76 V 15.49 a 2.76,2.75 90 0 1 2.75,-2.76 h 85.49 a 2.78,2.78 0 0 1 2.78,2.78 v 58.23 a 2.77,2.77 0 0 1 -2.77,2.77 h -54.99 a 1.18,1.14 -68.9 0 0 -0.87,0.4 q -5.38,6.26 -10.31,12.15 -0.87,1.04 -1.92,1.77 a 1.34,1.34 0 0 1 -2.1,-1.1 l -0.01,-12.57 q 0,-0.65 -0.65,-0.65 z m 60.6,-49.28 a 0.38,0.38 0 0 0 -0.38,-0.38 h -64.22 a 0.38,0.38 0 0 0 -0.38,0.38 v 5.58 a 0.38,0.38 0 0 0 0.38,0.38 h 64.22 a 0.38,0.38 0 0 0 0.38,-0.38 z m 0,14.27 a 0.37,0.37 0 0 0 -0.37,-0.37 h -64.26 a 0.37,0.37 0 0 0 -0.37,0.37 v 5.56 a 0.37,0.37 0 0 0 0.37,0.37 h 64.26 a 0.37,0.37 0 0 0 0.37,-0.37 z m -32.37,14.26 a 0.5,0.5 0 0 0 -0.5,-0.5 H 123.5 a 0.5,0.5 0 0 0 -0.5,0.5 v 5.48 a 0.5,0.5 0 0 0 0.5,0.5 h 31.64 a 0.5,0.5 0 0 0 0.5,-0.5 z"
       id="path841"
       style="fill:#ffffff" />
    <path
       fill="#221e1f"
       d="M 83.54,140.29 C 77.01,137.74 71,132.82 69.32,126.12 q -2.99,-11.98 -2.34,-22.27 c 0.65,-10.34 8.99,-16.63 18.79,-17.97 14.52,-1.99 29.48,3.8 29.42,20.84 q -0.03,8.84 -2.11,18.16 c -2.76,12.35 -17.83,20 -29.54,15.41 z"
       id="path843"
       style="fill:#ffffff" />
    <path
       fill="#221e1f"
       d="m 130.06,109.85 c 0.07,-6.45 3.8,-11.49 9.92,-13.57 11.54,-3.93 26.6,0.29 26.13,15.05 q -0.26,8.08 -2.08,14.3 -1.58,5.39 -7.6,8.74 -10,5.58 -19.58,-1.94 -3.59,-2.81 -4.74,-6.79 -2.15,-7.48 -2.05,-15.79 z"
       id="path845"
       style="fill:#ffffff" />
    <path
       fill="#221e1f"
       d="m 137.12,152.63 c -2.98,-2.83 -6.58,-5.47 -10.34,-6.99 a 0.38,0.37 46 0 1 0.01,-0.7 c 11.67,-4.25 25.96,-4.83 38.15,-1.47 6.23,1.72 13.6,5.38 15.86,11.65 1.35,3.73 0.42,8.43 0.35,12.55 a 0.91,0.91 0 0 1 -0.63,0.85 q -16.78,5.55 -34.17,5.47 -0.6,0 -0.58,-0.61 0.52,-12.06 -8.65,-20.75 z"
       id="path847"
       style="fill:#ffffff" />
    <path
       fill="#221e1f"
       d="m 110.92,150.01 c 11.15,2.54 25.63,9.3 25.09,22.94 q -0.2,4.92 -0.69,10.64 -0.04,0.53 -0.54,0.7 -43.33,14.63 -87.49,0.05 -0.5,-0.16 -0.55,-0.68 -0.83,-7.72 -0.67,-12.87 c 0.34,-11.42 14.18,-18.14 23.62,-20.44 q 20.63,-5.03 41.23,-0.34 z"
       id="path849"
       style="fill:#ffffff" />
  </g>
</svg>
