<?xml version="1.0" encoding="UTF-8" standalone="no"?>
<svg
   version="1.1"
   viewBox="0.00 0.00 260.00 280.00"
   id="svg1043"
   sodipodi:docname="chip.svg"
   inkscape:version="1.1 (c68e22c387, 2021-05-23)"
   xmlns:inkscape="http://www.inkscape.org/namespaces/inkscape"
   xmlns:sodipodi="http://sodipodi.sourceforge.net/DTD/sodipodi-0.dtd"
   xmlns="http://www.w3.org/2000/svg"
   xmlns:svg="http://www.w3.org/2000/svg">
  <defs
     id="defs1047" />
  <sodipodi:namedview
     id="namedview1045"
     pagecolor="#505050"
     bordercolor="#ffffff"
     borderopacity="1"
     inkscape:pageshadow="0"
     inkscape:pageopacity="0"
     inkscape:pagecheckerboard="1"
     showgrid="false"
     inkscape:zoom="2.9821429"
     inkscape:cx="154.41916"
     inkscape:cy="138.32335"
     inkscape:window-width="1920"
     inkscape:window-height="1017"
     inkscape:window-x="-8"
     inkscape:window-y="-8"
     inkscape:window-maximized="1"
     inkscape:current-layer="svg1043" />
  <g
     id="g5225"
     transform="matrix(1.3783865,0,0,1.3783865,-48.694311,-40.125616)">
    <g
       stroke-width="2"
       fill="none"
       stroke-linecap="butt"
       id="g855">
      <path
         stroke="#b3b3b3"
         vector-effect="non-scaling-stroke"
         d="m 87.74,116.21 -1.95,0.01"
         id="path529" />
      <path
         stroke="#bfbfbf"
         vector-effect="non-scaling-stroke"
         d="M 85.79,116.22 Q 85.95,91.09 85.98,66 q 0,-0.8 0.64,-1.17 a 1.84,1.83 -28.7 0 0 0.72,-2.45 c -1.33,-2.56 -4.95,-0.91 -3.77,1.68 q 0.18,0.39 0.56,0.61 0.83,0.46 0.82,1.58 -0.19,24.77 -0.03,50.14"
         id="path531" />
      <path
         stroke="#b3b3b3"
         vector-effect="non-scaling-stroke"
         d="m 84.92,116.39 q -5.1,-0.71 -4.92,1.34"
         id="path533" />
      <path
         stroke="#bfbfbf"
         vector-effect="non-scaling-stroke"
         d="m 85.54,123.42 1.35,0.02 q 0.55,0 0.7,0.52 0.23,0.78 -0.24,1.82"
         id="path537" />
      <path
         stroke="#b3b3b3"
         vector-effect="non-scaling-stroke"
         d="m 87.35,125.78 q -6.2,-0.94 -7.27,0.84"
         id="path539" />
      <path
         stroke="#bfbfbf"
         vector-effect="non-scaling-stroke"
         d="m 80.08,126.62 -0.56,4.53 q -0.06,0.5 -0.5,0.76 l -26.14,15.17 q -0.48,0.28 -0.89,-0.08 -0.62,-0.52 -1.35,-0.7 a 2.03,2.02 3.8 0 0 -2.48,2.17 q 0.12,1.29 1.34,1.82 a 1.89,1.88 27.8 0 0 2.35,-0.72 c 0.55,-0.88 1.06,-1.48 1.98,-2.01 q 12.62,-7.25 25.24,-14.5 1.38,-0.8 2.43,-0.62"
         id="path541" />
      <path
         stroke="#b3b3b3"
         vector-effect="non-scaling-stroke"
         d="m 81.5,132.44 1.75,0.09"
         id="path543" />
      <path
         stroke="#bfbfbf"
         vector-effect="non-scaling-stroke"
         d="m 83.25,132.53 3.39,0.14 q 0.5,0.03 0.79,0.44 0.35,0.5 0.56,1.37"
         id="path545" />
      <path
         stroke="#b3b3b3"
         vector-effect="non-scaling-stroke"
         d="m 87.99,134.48 c -1.44,0.93 -5.26,0.48 -7.04,0.49 q -0.53,0.01 -0.63,0.53 l -0.73,4.12"
         id="path547" />
      <path
         stroke="#bfbfbf"
         vector-effect="non-scaling-stroke"
         d="m 79.59,139.62 -27.27,15.86 a 1.03,1.02 -43.3 0 1 -1.08,-0.03 q -1.33,-0.87 -2.48,0.25 a 2.07,2.07 0 0 0 -0.05,2.92 q 1.23,1.27 2.74,0.27 a 1.61,1.61 0 0 0 0.66,-0.88 l 0.37,-1.22 A 1.12,1.11 83.8 0 1 53,156.14 q 13.01,-7.5 25.81,-14.91 0.39,-0.23 0.83,-0.15 0.46,0.08 0.6,0.53 0.18,0.57 0.78,0.57 l 5.66,-0.02 q 0.53,0 0.77,0.48 0.29,0.58 0.16,1.59"
         id="path549" />
      <path
         stroke="#b3b3b3"
         vector-effect="non-scaling-stroke"
         d="m 87.61,144.23 -7.44,0.24"
         id="path551" />
      <path
         stroke="#bfbfbf"
         vector-effect="non-scaling-stroke"
         d="m 80.17,144.47 -0.4,2.9 q -0.17,1.18 -1.2,1.77 l -26.23,15.18 q -0.59,0.35 -1.15,-0.05 -1.75,-1.22 -2.78,0.78 a 2.12,2.11 31.4 0 0 0.66,2.71 q 1.47,1.05 2.75,-0.43 c 0.43,-0.5 0.43,-0.97 0.56,-1.58 a 0.98,0.94 81.9 0 1 0.46,-0.64 l 26.17,-15.08 a 0.69,0.67 49.2 0 1 0.77,0.07 q 0.45,0.38 0.35,0.78 -0.08,0.32 0.24,0.38 c 1.29,0.23 2.87,-0.19 4.01,0.18 q 0.83,0.27 0,0.52 -0.91,0.29 -1.37,1.28"
         id="path553" />
      <path
         stroke="#b3b3b3"
         vector-effect="non-scaling-stroke"
         d="m 83.01,153.24 q -2.43,-0.12 -3.37,1.57"
         id="path555" />
      <path
         stroke="#bfbfbf"
         vector-effect="non-scaling-stroke"
         d="m 79.64,154.81 -27.23,16.16 q -0.52,0.3 -1.02,-0.03 c -1.48,-0.98 -3.33,0.17 -3.19,1.94 0.19,2.58 3.96,2.64 4.1,-0.33 q 0.03,-0.57 0.53,-0.87 l 26.88,-15.73"
         id="path557" />
      <path
         stroke="#bfbfbf"
         vector-effect="non-scaling-stroke"
         d="m 80.94,160.36 q 0.2,-0.22 0.6,-0.16"
         id="path561" />
      <path
         stroke="#b3b3b3"
         vector-effect="non-scaling-stroke"
         d="m 81.54,160.2 0.66,0.14"
         id="path563" />
      <path
         stroke="#bfbfbf"
         vector-effect="non-scaling-stroke"
         d="m 82.2,160.34 0.37,0.15 q 0.44,0.18 0.03,0.42 -13.61,7.89 -26.24,15.28 -0.8,0.47 -1.48,-0.16 -0.36,-0.33 -0.85,-0.24 -1.65,0.32 -1.93,1.76 a 2.03,2.02 17.3 0 0 1.18,2.24 c 1.19,0.52 2.73,0.05 2.86,-1.4 q 0.04,-0.41 0.18,-0.8 a 1.59,1.58 85.5 0 1 0.68,-0.8 l 27.16,-15.65"
         id="path565" />
      <path
         stroke="#b3b3b3"
         vector-effect="non-scaling-stroke"
         d="m 84.16,161.14 q 2.71,-1.24 3.15,0.05"
         id="path567" />
      <path
         stroke="#bfbfbf"
         vector-effect="non-scaling-stroke"
         d="m 87.31,161.19 q -0.11,16.65 -0.26,33.06 0,1.11 -0.9,1.6 a 1.52,1.52 0 0 0 -0.59,2.07 q 1.03,1.88 2.93,1.32 a 1.95,1.94 -32.1 0 0 0.76,-3.31 l -0.74,-0.67 q -0.44,-0.4 -0.44,-0.99 l -0.03,-31.49"
         id="path569" />
      <path
         stroke="#b3b3b3"
         vector-effect="non-scaling-stroke"
         d="m 88.04,162.78 q -0.09,-0.57 0.05,-1.11 0.13,-0.53 0.65,-0.32 0.9,0.37 0.9,1.45 0,4.31 0,8.85 a 1.56,1.56 0 0 0 1.52,1.56 l 2.29,0.05"
         id="path571" />
      <path
         stroke="#bfbfbf"
         vector-effect="non-scaling-stroke"
         d="m 93.45,173.26 0.33,24.96 q 0.01,0.58 -0.47,0.91 -1.83,1.26 -0.92,3.07 a 1.91,1.91 0 0 0 2.68,0.79 q 0.95,-0.55 1.26,-1.65 0.14,-0.47 -0.11,-0.88 -0.44,-0.76 -1.13,-1.28 -0.45,-0.35 -0.44,-0.91 l 0.31,-25.04"
         id="path573" />
      <path
         stroke="#b3b3b3"
         vector-effect="non-scaling-stroke"
         d="m 94.96,173.23 c 1.53,-1.97 0.91,-6.07 0.84,-8.5 q -0.02,-0.51 0.42,-0.78 0.89,-0.55 1.58,-0.3 a 2.02,2.02 0 0 1 1.04,2.93 q -1.68,2.83 0.44,5.62"
         id="path575" />
      <path
         stroke="#bfbfbf"
         vector-effect="non-scaling-stroke"
         d="m 99.28,172.2 0.29,29.55 q 0,0.56 -0.47,0.86 -1.93,1.21 -0.67,3.07 a 2,2 0 0 0 2.45,0.71 c 1.63,-0.71 1.88,-2.88 0.27,-3.73 q -0.58,-0.31 -0.58,-0.97 l 0.01,-28.32"
         id="path577" />
      <path
         stroke="#b3b3b3"
         vector-effect="non-scaling-stroke"
         d="m 100.58,173.37 q 0.98,-0.24 1.67,-0.15"
         id="path579" />
      <path
         stroke="#bfbfbf"
         vector-effect="non-scaling-stroke"
         d="m 102.25,173.22 q 1.23,-0.29 2.05,0.01 0.5,0.19 0.5,0.72 l -0.06,31.03 q 0,0.53 -0.46,0.8 c -2.25,1.32 -0.76,4.87 1.82,3.73 q 1.71,-0.75 1.13,-2.55 -0.21,-0.64 -0.8,-0.96 -0.8,-0.44 -0.8,-1.37 0.08,-16.08 0.17,-32.28"
         id="path581" />
      <path
         stroke="#b3b3b3"
         vector-effect="non-scaling-stroke"
         d="m 105.8,172.35 6.89,3.97"
         id="path583" />
      <path
         stroke="#bfbfbf"
         vector-effect="non-scaling-stroke"
         d="m 112.69,176.32 q 1.33,0.59 2.26,1.5 0.35,0.34 0.35,0.84 l 0.02,32.27 a 1.14,1.13 -23.6 0 1 -0.31,0.78 c -0.91,0.98 -2.03,2.02 -0.84,3.4 a 2.18,2.17 58.6 0 0 2.43,0.59 q 1.38,-0.54 1.39,-2.15 0,-0.61 -0.48,-0.98 l -0.8,-0.63 q -0.42,-0.33 -0.42,-0.86 -0.01,-15.73 -0.03,-32.2 c 0,-1.57 -1.31,-2.52 -2.74,-2.87"
         id="path585" />
      <path
         stroke="#b3b3b3"
         vector-effect="non-scaling-stroke"
         d="m 113.52,176.01 q -4.15,-2.87 -6.72,-4.09 -1.6,-0.77 -1.47,-2.3 c 0.13,-1.63 0.03,-3.24 0.11,-4.9 a 1.06,1.05 1.4 0 1 1.06,-1 l 0.43,-0.01 q 1.45,0 1.44,1.45 -0.03,2.74 0.18,5.83 0.1,1.6 1.6,1.98 1.84,0.47 3.57,0.38 0.75,-0.04 1,-0.74 0.75,-2.1 -0.07,-4.15 a 0.44,0.44 0 0 1 0.5,-0.59 q 3.03,0.68 2.72,3.7 a 1.64,1.64 0 0 0 1.72,1.81 l 2.68,-0.14"
         id="path587" />
      <path
         stroke="#bfbfbf"
         vector-effect="non-scaling-stroke"
         d="m 122.27,173.24 q 0.01,20.93 0.05,41.76 0.01,0.7 -0.68,0.94 -0.53,0.17 -0.75,0.69 -0.63,1.47 0.62,2.54 a 2.04,2.03 35.9 0 0 3.06,-0.49 q 1.12,-1.84 -0.79,-2.89 -0.53,-0.29 -0.53,-0.9 0.18,-25.51 -0.06,-39.89 -0.01,-0.92 0.5,-1.53"
         id="path589" />
      <path
         stroke="#b3b3b3"
         vector-effect="non-scaling-stroke"
         d="m 123.69,173.47 0.46,-7.73 a 0.76,0.76 0 0 1 1.17,-0.6 q 1.22,0.77 2,1.9"
         id="path591" />
      <path
         stroke="#bfbfbf"
         vector-effect="non-scaling-stroke"
         d="m 127.32,167.04 0.09,5.67 q 0.01,0.54 0.54,0.62 1.25,0.19 2.52,-0.06"
         id="path593" />
      <path
         stroke="#b3b3b3"
         vector-effect="non-scaling-stroke"
         d="m 130.47,173.27 c 1.58,-0.02 3.1,-0.87 3.06,-2.59 q -0.07,-2.49 -0.07,-4.91 a 1.73,1.72 84.4 0 1 1.4,-1.71 l 0.37,-0.07 q 1.2,-0.24 1.19,0.99 l -0.06,6.26 q 0,0.46 -0.39,0.69 l -6.36,3.81"
         id="path595" />
      <path
         stroke="#bfbfbf"
         vector-effect="non-scaling-stroke"
         d="m 129.61,175.74 -0.01,43.16 q 0,0.66 -0.56,1.01 -0.81,0.52 -1.01,1.51 a 1.98,1.97 -77.8 0 0 1.49,2.32 q 1.43,0.33 2.4,-0.91 a 1.68,1.68 0 0 0 -0.42,-2.46 q -0.39,-0.25 -0.67,-0.61 -0.34,-0.43 -0.33,-0.97 l 0.12,-42.77"
         id="path597" />
      <path
         stroke="#b3b3b3"
         vector-effect="non-scaling-stroke"
         d="m 130.62,176.02 5.68,-3.21"
         id="path599" />
      <path
         stroke="#bfbfbf"
         vector-effect="non-scaling-stroke"
         d="m 136.3,172.81 q 2.85,1.71 5.45,0.72 1.8,-0.69 1.02,-4.28"
         id="path601" />
      <path
         stroke="#b3b3b3"
         vector-effect="non-scaling-stroke"
         d="m 142.77,169.25 q 1.26,-1.13 2.42,-1.42 0.51,-0.13 0.54,0.4 0.03,0.88 -0.12,2.31 -0.33,3.03 3.17,2.67"
         id="path603" />
      <path
         stroke="#bfbfbf"
         vector-effect="non-scaling-stroke"
         d="m 148.78,173.21 q 0.02,0.51 -0.51,0.82 -5.68,3.34 -11.12,6.5 a 1.71,1.71 0 0 0 -0.86,1.5 l 0.07,33.16 a 1.14,1.14 0 0 1 -0.39,0.86 l -0.51,0.44 a 2.06,2.06 0 0 0 0.2,3.26 c 2.47,1.68 4.85,-2.16 2.08,-3.72 a 0.84,0.83 14.7 0 1 -0.43,-0.73 l 0.05,-33.05 a 1.57,1.56 75.2 0 1 0.79,-1.36 l 11.29,-6.54"
         id="path605" />
      <path
         stroke="#b3b3b3"
         vector-effect="non-scaling-stroke"
         d="m 149.44,174.35 4.2,-2.32 q 0.46,-0.25 0.94,-0.03 0.47,0.23 0.62,0.78 0.16,0.59 0.77,0.6 l 2.32,0.05"
         id="path607" />
      <path
         stroke="#b3b3b3"
         vector-effect="non-scaling-stroke"
         d="m 160.98,168.94 q 0.16,-1.92 2.29,-2.45 a 0.65,0.64 82.8 0 1 0.8,0.63 l -0.04,4.67"
         id="path611" />
      <path
         stroke="#bfbfbf"
         vector-effect="non-scaling-stroke"
         d="m 164.03,171.79 q 0.64,1.32 -0.68,2.09 -5.22,3.03 -10.39,5.98 a 1.35,1.35 0 0 0 -0.68,1.17 l 0.03,7.24 a 1.38,1.37 75.1 0 1 -0.7,1.22 l -8.31,4.69 a 1.68,1.67 75.3 0 0 -0.85,1.46 l 0.03,16.06 q 0,0.51 -0.38,0.84 c -1.32,1.17 -1.9,2.72 -0.05,3.84 a 1.87,1.86 -51.5 0 0 2.28,-0.26 c 1.48,-1.45 0.73,-2.42 -0.44,-3.54 q -0.44,-0.43 -0.44,-1.05 l 0.01,-15.37 a 1.56,1.56 0 0 1 0.78,-1.35 l 7.82,-4.49 a 2.36,2.35 -15.3 0 0 1.19,-2.08 l -0.07,-6.51 a 1.69,1.67 75.3 0 1 0.84,-1.46 q 5.1,-2.95 10.11,-5.82 1.96,-1.12 4.51,-1.1 0.97,0.01 1.36,-0.33 0.6,-0.54 0.37,-1.58"
         id="path613" />
      <path
         stroke="#b3b3b3"
         vector-effect="non-scaling-stroke"
         d="m 170.37,171.44 q 0.25,-0.27 0.11,-0.5"
         id="path615" />
      <path
         stroke="#bfbfbf"
         vector-effect="non-scaling-stroke"
         d="m 170.48,170.94 12.62,-7.38 a 1.58,1.57 74.7 0 0 0.78,-1.38 l -0.06,-7.17 a 1.46,1.44 75 0 1 0.73,-1.28 q 11.28,-6.47 23.22,-13.3 0.69,-0.39 1.32,0.07 0.42,0.3 0.93,0.25 1.03,-0.12 1.57,-0.96 a 2.08,2.08 0 0 0 0.07,-2.1 q -0.83,-1.54 -2.76,-0.89 a 1.65,1.64 -9.3 0 0 -1.11,1.54 q 0,1 -0.84,1.49 -12.65,7.36 -22.98,13.36 a 1.81,1.8 74.6 0 0 -0.9,1.6 l 0.11,6.94 a 1.34,1.33 74.8 0 1 -0.67,1.18 l -12.05,6.86"
         id="path617" />
      <path
         stroke="#b3b3b3"
         vector-effect="non-scaling-stroke"
         d="m 170.46,169.77 -0.01,-6.47 a 2.53,2.53 0 0 1 2.46,-2.53 l 5.32,-0.16 q 2.03,-0.05 2.02,-2.09 l -0.01,-2.94 q -0.01,-2.08 -2.09,-2.11 l -5.75,-0.08"
         id="path619" />
      <path
         stroke="#bfbfbf"
         vector-effect="non-scaling-stroke"
         d="m 172.4,153.39 q -0.57,-0.5 0.08,-1.38"
         id="path621" />
      <path
         stroke="#b3b3b3"
         vector-effect="non-scaling-stroke"
         d="m 172.48,152.01 q 2.72,-0.9 5.93,-0.7 a 1.7,1.69 89.6 0 0 1.8,-1.83 c -0.18,-2.26 1.15,-2.76 2.79,-3.71 q 13.41,-7.72 26.81,-15.44 0.72,-0.42 0.4,-1.57"
         id="path623" />
      <path
         stroke="#bfbfbf"
         vector-effect="non-scaling-stroke"
         d="m 210.21,128.76 0.05,-15.98 q 0,-0.58 0.5,-0.89 1.61,-0.99 1.01,-2.69 a 1.93,1.93 0 0 0 -2.19,-1.24 q -2.14,0.41 -1.82,2.57 0.08,0.52 0.5,0.83 c 0.8,0.59 1.12,1.06 1.09,2.13 q -0.2,7.3 0.05,14.54"
         id="path625" />
      <path
         stroke="#b3b3b3"
         vector-effect="non-scaling-stroke"
         d="m 209.4,128.03 q 0.38,1.36 -1.44,2.41 -13.61,7.88 -27.3,15.77 A 0.44,0.44 0 0 1 180,145.85 q -0.02,-0.58 -0.24,-1.08 -0.22,-0.5 -0.76,-0.5 l -6.48,-0.05"
         id="path627" />
      <path
         stroke="#bfbfbf"
         vector-effect="non-scaling-stroke"
         d="m 172.52,144.22 q -0.8,-0.7 -0.03,-1.73"
         id="path629" />
      <path
         stroke="#b3b3b3"
         vector-effect="non-scaling-stroke"
         d="m 172.49,142.49 0.55,-0.29"
         id="path631" />
      <path
         stroke="#b3b3b3"
         vector-effect="non-scaling-stroke"
         d="m 180.11,138.2 q 0.25,0.32 0.14,-0.48"
         id="path635" />
      <path
         stroke="#bfbfbf"
         vector-effect="non-scaling-stroke"
         d="m 180.25,137.72 14.71,-8.52 a 0.83,0.82 -45.3 0 1 0.82,-0.01 q 1.39,0.76 2.49,-0.5 a 2.09,2.09 0 0 0 -0.78,-3.29 c -0.98,-0.4 -2.62,0.12 -2.8,1.38 q -0.06,0.47 -0.1,0.94 -0.05,0.56 -0.54,0.84 l -14.08,8.15"
         id="path637" />
      <path
         stroke="#b3b3b3"
         vector-effect="non-scaling-stroke"
         d="m 179.97,136.71 q -0.14,-1.56 -0.72,-1.58 -3.53,-0.11 -6.98,-0.34"
         id="path639" />
      <path
         stroke="#bfbfbf"
         vector-effect="non-scaling-stroke"
         d="m 172.27,134.79 q -0.57,-1.25 0.48,-1.77 0.78,-0.4 1.73,-0.41"
         id="path641" />
      <path
         stroke="#b3b3b3"
         vector-effect="non-scaling-stroke"
         d="m 174.48,132.61 1.2,0.03"
         id="path643" />
      <path
         stroke="#b3b3b3"
         vector-effect="non-scaling-stroke"
         d="m 180.15,128.25 q 0.25,-0.54 0.98,-0.99"
         id="path647" />
      <path
         stroke="#bfbfbf"
         vector-effect="non-scaling-stroke"
         d="m 181.13,127.26 q 9.24,-5.27 18.59,-10.76 0.8,-0.46 1.52,0.01 0.32,0.21 0.71,0.23 c 1.66,0.08 2.82,-1.7 1.95,-3.16 -1.18,-2.01 -3.75,-1.02 -3.89,1.12 q -0.04,0.6 -0.57,0.9 l -19.09,11.05"
         id="path649" />
      <path
         stroke="#b3b3b3"
         vector-effect="non-scaling-stroke"
         d="m 180.35,126.65 q -2.76,-1.86 -8.23,-0.92"
         id="path651" />
      <path
         stroke="#bfbfbf"
         vector-effect="non-scaling-stroke"
         d="m 172.12,125.73 q -0.14,-1.56 0.61,-2.18"
         id="path653" />
      <path
         stroke="#b3b3b3"
         vector-effect="non-scaling-stroke"
         d="m 172.73,123.55 6.76,-0.11"
         id="path655" />
      <path
         stroke="#b3b3b3"
         vector-effect="non-scaling-stroke"
         d="m 180.41,119.21 q -0.98,-0.78 1.17,-1.88"
         id="path659" />
      <path
         stroke="#bfbfbf"
         vector-effect="non-scaling-stroke"
         d="m 181.58,117.33 q 12.78,-7.26 25.5,-14.68 0.53,-0.31 1.1,-0.41 0.62,-0.1 1.21,0.28 a 1.47,1.47 0 0 0 2.05,-0.45 c 2.16,-3.46 -2.99,-5.2 -3.52,-2.09 q -0.09,0.51 -0.28,0.96 a 1.47,1.47 0 0 1 -0.62,0.71 l -26.04,15.34"
         id="path661" />
      <path
         stroke="#b3b3b3"
         vector-effect="non-scaling-stroke"
         d="m 180.98,116.99 c -1.04,0.06 -1.5,-0.64 -2.68,-0.68 q -2.77,-0.1 -6.14,0.01"
         id="path663" />
      <path
         stroke="#bfbfbf"
         vector-effect="non-scaling-stroke"
         d="m 172.16,116.32 q 0.75,-3.76 -1.13,-4.53 -1.07,-0.44 -1.92,-1.19 -0.37,-0.32 -0.37,-0.81 0.1,-24.72 0.15,-46.63 c 0.01,-1.02 0.39,-1.66 1.08,-2.35 a 1.96,1.95 -49.5 0 0 -0.23,-2.98 q -1.27,-0.9 -2.57,-0.1 a 2.02,2.02 0 0 0 -0.23,3.28 c 0.74,0.6 0.96,1.35 0.95,2.28 q -0.06,23.11 0.03,46.65 a 0.1,0.1 0 0 1 -0.15,0.09 l -7.96,-4.64 q -0.16,-0.1 -0.16,-0.28 0.13,-23.59 0.03,-47.49 c 0,-0.98 0.44,-1.48 1.08,-2.13 a 2.01,2 -54.5 0 0 -0.53,-3.21 q -1.76,-0.87 -2.86,0.67 a 2.09,2.08 -50.5 0 0 0.26,2.73 l 0.54,0.51 q 0.52,0.49 0.52,1.2 v 46.37 q 0,0.42 -0.42,0.4 L 158,104.14 q -0.39,-0.02 -0.39,-0.41 l -0.09,-11.76 a 1.24,1.24 0 0 0 -1.24,-1.23 l -5.19,0.02 a 0.67,0.67 0 0 1 -0.68,-0.67 L 150.4,51.78 a 1.14,1.1 73 0 1 0.47,-0.92 q 1.65,-1.17 0.91,-2.93 a 1.93,1.92 -21.9 0 0 -2.48,-1.05 c -2.09,0.83 -1.64,2.65 -0.35,3.92 q 0.4,0.4 0.41,0.97 l 0.11,38.25 q 0,0.74 -0.74,0.73 l -2.03,-0.02 a 1.82,1.82 0 0 0 -1.84,1.82 v 3.24 q 0,1.04 -0.9,0.52 l -2.21,-1.28 q -0.57,-0.34 -0.57,-1.01 l -0.05,-47.51 a 1.43,1.41 -16.3 0 1 0.67,-1.2 q 1.49,-0.94 0.83,-2.61 a 2.02,2.01 -25.9 0 0 -2.89,-1 q -1.33,0.77 -1.09,2.37 a 1.22,1.22 0 0 0 0.61,0.88 q 0.99,0.56 0.99,1.61 0.11,26.19 -0.06,47.29 a 0.16,0.16 0 0 1 -0.24,0.14 l -7.7,-4.34 a 0.52,0.52 0 0 1 -0.26,-0.45 l -0.05,-48.01 a 1.15,1.13 58.6 0 1 0.12,-0.51 c 0.66,-1.24 2.58,-2.11 1.03,-3.84 a 2.1,2.09 52.7 0 0 -2.68,-0.37 c -1.05,0.67 -1.49,2.19 -0.39,3.05 q 0.4,0.31 0.72,0.71 0.34,0.42 0.34,0.96 l -0.03,46.61 q 0,0.5 -0.48,0.68 -3.11,1.13 -7.47,3.96 a 0.24,0.24 0 0 1 -0.37,-0.21 l 0.02,-47.15 q 0,-0.55 0.35,-0.97 l 0.87,-1.07 a 1.89,1.88 -45.1 0 0 0,-2.37 c -1.49,-1.84 -3.88,-0.73 -3.75,1.58 a 1.41,1.38 19.6 0 0 0.47,0.97 l 0.69,0.6 q 0.43,0.38 0.43,0.96 l -0.04,48.06 q 0,0.27 -0.23,0.4 l -7.7,4.44 a 0.18,0.18 0 0 1 -0.27,-0.16 l -0.09,-47.57 a 1,0.97 69.4 0 1 0.32,-0.73 l 0.78,-0.7 a 1.66,1.61 -20.2 0 0 0.53,-1.1 c 0.16,-2.62 -3.47,-3.36 -4.05,-0.44 -0.19,0.96 0.45,1.58 1.11,2.13 q 0.42,0.34 0.42,0.88 l -0.06,48.07 q 0,0.34 -0.29,0.5 l -7.65,4.35 a 0.15,0.15 0 0 1 -0.23,-0.13 l -0.12,-47.32 q 0,-0.56 0.43,-0.91 l 0.49,-0.4 a 2.09,2.09 0 0 0 -0.03,-3.23 q -1.45,-1.17 -2.89,0.29 a 1.82,1.82 0 0 0 0.15,2.68 c 0.55,0.45 0.93,0.79 0.93,1.58 q -0.04,25.55 0.02,47.9 0,0.29 -0.25,0.44 l -7.79,4.4 a 0.14,0.14 0 0 1 -0.21,-0.13 q 0.19,-22.2 0,-46.44 c -0.01,-1.09 0.24,-1.73 1.04,-2.48 a 1.89,1.89 0 0 0 0.13,-2.62 c -1.71,-1.96 -4.54,-0.08 -3.49,2.37 q 0.16,0.37 0.53,0.53 0.95,0.43 0.94,1.45 -0.22,23.55 0,47.34 0,0.42 -0.32,0.67 c -1.57,1.2 -4.87,2.3 -5.74,4 q -0.74,1.43 -0.44,3.31"
         id="path665" />
      <path
         stroke="#737373"
         vector-effect="non-scaling-stroke"
         d="m 172.16,116.32 q -0.76,3.71 -0.7,6.43 0.02,0.99 1.27,0.8"
         id="path667" />
      <path
         stroke="#737373"
         vector-effect="non-scaling-stroke"
         d="m 172.12,125.73 q 0.24,-0.65 -0.33,0.21 -0.23,0.34 -0.17,0.76 0.38,2.57 -0.24,5.19 a 0.6,0.6 0 0 0 0.58,0.73 l 2.52,-0.01"
         id="path669" />
      <path
         stroke="#737373"
         vector-effect="non-scaling-stroke"
         d="m 172.27,134.79 q -0.67,-0.39 -0.65,0.71 0.07,3.12 -0.11,6.26 -0.05,0.85 0.98,0.73"
         id="path671" />
      <path
         stroke="#737373"
         vector-effect="non-scaling-stroke"
         d="m 172.52,144.22 -0.49,0.13 q -0.5,0.14 -0.52,0.66 -0.11,3 0.05,6.13 0.02,0.36 0.23,0.65 0.31,0.44 0.69,0.22"
         id="path673" />
      <path
         stroke="#737373"
         vector-effect="non-scaling-stroke"
         d="m 172.4,153.39 q -0.73,0.58 -0.56,2.07 0.13,1.19 -0.15,2.12 -1.57,5.22 -6.35,4.44 -1.91,-0.31 -3.95,-0.15 -3.32,0.26 -6.98,-0.1 -1.52,-0.16 -3.51,0.29 c -2.56,0.57 -5.13,-0.66 -7.65,-0.19 q -1.87,0.34 -3.63,0.14 -3.69,-0.41 -6.88,-0.15 c -4.4,0.35 -8.56,-0.51 -13,0.23 q -0.44,0.08 -0.85,-0.09 -2.39,-0.95 -4.89,0.01 -0.57,0.22 -1.17,0.09 -1.64,-0.33 -3.3,0.01 -0.48,0.1 -0.92,-0.14 -0.63,-0.35 -1.35,-0.31 -2.79,0.16 -5.39,0.54 -1.11,0.16 -2.3,-0.22 c -1.37,-0.45 -3.19,-0.39 -4.49,0.17 q -1.63,0.7 -3.16,-0.14 -3.75,-2.06 -3.68,-6.2 0.02,-1.11 -0.35,-1.51 -0.54,-0.6 -1.63,-0.67"
         id="path675" />
      <path
         stroke="#bfbfbf"
         vector-effect="non-scaling-stroke"
         d="m 86.26,153.63 q 1.47,-0.05 1.49,-1.09 0.01,-0.54 -0.52,-0.61 -1.85,-0.23 -3.3,1.54"
         id="path677" />
      <path
         stroke="#737373"
         vector-effect="non-scaling-stroke"
         d="m 83.93,153.47 q -0.35,-0.17 -0.92,-0.23"
         id="path679" />
      <path
         stroke="#737373"
         vector-effect="non-scaling-stroke"
         d="m 80.17,144.47 q 0.41,1.77 0.03,2.85 -0.17,0.49 -0.07,1.01 0.58,3.04 4.01,2.12 1.57,-0.42 2.68,0.5 0.46,0.37 1.04,0.25 0.83,-0.17 0.7,-0.95 -0.52,-3.17 -0.95,-6.02"
         id="path681" />
      <path
         stroke="#737373"
         vector-effect="non-scaling-stroke"
         d="m 79.59,139.62 q 2.99,2.16 8.04,2.04 a 1,1 0 0 0 0.73,-0.34 q 0.5,-0.55 0.05,-1.25 a 1.21,1.18 -56 0 1 -0.17,-0.92 q 0.51,-2.44 -0.25,-4.67"
         id="path683" />
      <path
         stroke="#737373"
         vector-effect="non-scaling-stroke"
         d="m 83.25,132.53 q 2.2,-0.63 4.59,-0.19 0.59,0.12 0.7,-0.48 0.12,-0.69 -0.23,-1.32 -0.23,-0.42 -0.2,-0.9 0.04,-0.9 0.42,-1.8 0.23,-0.53 -0.09,-1.02 -0.48,-0.74 -1.09,-1.04"
         id="path685" />
      <path
         stroke="#acacac"
         vector-effect="non-scaling-stroke"
         d="m 85.54,123.42 q -0.05,-0.1 -0.11,-0.19"
         id="path687" />
      <path
         stroke="#737373"
         vector-effect="non-scaling-stroke"
         d="m 85.43,123.23 q 1.78,0.46 2.77,-0.29 0.42,-0.31 0.35,-0.82 l -0.81,-5.91"
         id="path689" />
      <path
         stroke="#a0a0a0"
         vector-effect="non-scaling-stroke"
         d="m 180.11,138.2 q 0.1,3.18 -1.61,3.41 -2.72,0.38 -5.46,0.59"
         id="path691" />
      <path
         stroke="#a0a0a0"
         vector-effect="non-scaling-stroke"
         d="m 180.41,119.21 q -1.09,2.28 -0.92,4.23"
         id="path693" />
      <path
         stroke="#737373"
         vector-effect="non-scaling-stroke"
         d="m 81.5,132.44 q -1.94,0.33 -1.42,-5.82"
         id="path695" />
      <path
         stroke="#a0a0a0"
         vector-effect="non-scaling-stroke"
         d="m 180.15,128.25 q 0.07,1.96 -0.88,3.55 -0.26,0.43 -0.75,0.57 -1.3,0.39 -2.84,0.27"
         id="path697" />
      <path
         stroke="#a0a0a0"
         vector-effect="non-scaling-stroke"
         d="m 85.43,123.23 q -3.02,0.76 -4.63,-1.02 c -0.96,-1.06 -0.74,-3 -0.8,-4.48"
         id="path699" />
      <path
         stroke="#737373"
         vector-effect="non-scaling-stroke"
         d="m 170.37,171.44 q -0.85,0.06 -1.52,0.94 -0.28,0.37 -0.72,0.48 l -2.3,0.59 q -0.66,0.17 -0.68,-0.52 -0.05,-1.05 -1.12,-1.14"
         id="path701" />
      <path
         stroke="#a0a0a0"
         vector-effect="non-scaling-stroke"
         d="m 160.98,168.94 q 0.23,4.1 -2.69,4.49"
         id="path703" />
      <path
         stroke="#737373"
         vector-effect="non-scaling-stroke"
         d="m 149.44,174.35 q -0.33,-1.16 -0.66,-1.14"
         id="path705" />
      <path
         stroke="#737373"
         vector-effect="non-scaling-stroke"
         d="m 142.77,169.25 q -0.62,0.27 -0.65,1.01 -0.09,2.02 -1.56,2.49 -0.55,0.18 -2.1,-0.11 -1.44,-0.27 -2.16,0.17"
         id="path707" />
      <path
         stroke="#737373"
         vector-effect="non-scaling-stroke"
         d="m 130.62,176.02 -1.01,-0.28"
         id="path709" />
      <path
         stroke="#737373"
         vector-effect="non-scaling-stroke"
         d="m 130.47,173.27 c -3.83,-0.32 -2.89,-3.7 -3.15,-6.23"
         id="path711" />
      <path
         stroke="#737373"
         vector-effect="non-scaling-stroke"
         d="m 123.69,173.47 q -0.25,-0.97 -0.46,-0.73 -0.53,0.61 -0.96,0.5"
         id="path713" />
      <path
         stroke="#737373"
         vector-effect="non-scaling-stroke"
         d="m 113.52,176.01 q 0.04,0.21 -0.83,0.31"
         id="path715" />
      <path
         stroke="#737373"
         vector-effect="non-scaling-stroke"
         d="m 105.8,172.35 q -1.21,-0.07 -3.55,0.87"
         id="path717" />
      <path
         stroke="#737373"
         vector-effect="non-scaling-stroke"
         d="m 100.58,173.37 -1.3,-1.17"
         id="path719" />
      <path
         stroke="#737373"
         vector-effect="non-scaling-stroke"
         d="m 94.96,173.23 q -0.57,0.3 -1.51,0.03"
         id="path721" />
      <path
         stroke="#737373"
         vector-effect="non-scaling-stroke"
         d="m 88.04,162.78 q -0.43,0.67 -0.73,-1.59"
         id="path723" />
      <path
         stroke="#737373"
         vector-effect="non-scaling-stroke"
         d="m 84.16,161.14 q -1.13,-1.1 -1.96,-0.8"
         id="path725" />
      <path
         stroke="#737373"
         vector-effect="non-scaling-stroke"
         d="M 81.54,160.2 81,159.8 q -0.36,-0.27 -0.37,-0.72 -0.04,-2.25 -0.99,-4.27"
         id="path727" />
      <path
         stroke="#b3b3b3"
         vector-effect="non-scaling-stroke"
         d="m 86.26,153.63 q -1.13,0.2 -2.33,-0.16"
         id="path729" />
      <path
         stroke="#737373"
         vector-effect="non-scaling-stroke"
         d="m 180.25,137.72 q 0.27,-0.66 -0.28,-1.01"
         id="path731" />
      <path
         stroke="#737373"
         vector-effect="non-scaling-stroke"
         d="m 181.58,117.33 q -0.14,-0.69 -0.6,-0.34"
         id="path733" />
      <path
         stroke="#737373"
         vector-effect="non-scaling-stroke"
         d="m 181.13,127.26 q -1.64,-0.69 -0.78,-0.61"
         id="path735" />
      <path
         stroke="#737373"
         vector-effect="non-scaling-stroke"
         d="m 85.79,116.22 q -0.67,-0.27 -0.87,0.17"
         id="path737" />
      <path
         stroke="#737373"
         vector-effect="non-scaling-stroke"
         d="m 170.48,170.94 q 0.34,-0.68 -0.02,-1.17"
         id="path739" />
      <path
         stroke="#acacac"
         vector-effect="non-scaling-stroke"
         d="m 80.94,160.36 c -1.82,-1.35 -0.44,-2.86 -1.23,-4.41"
         id="path741" />
      <path
         stroke="#737373"
         vector-effect="non-scaling-stroke"
         d="m 210.21,128.76 q -0.43,-0.95 -0.81,-0.73"
         id="path743" />
      <path
         stroke="#bfbfbf"
         vector-effect="non-scaling-stroke"
         d="m 176.63,109.62 q -1.83,1.16 -0.69,2.96 a 1.98,1.97 -33.6 0 0 2.79,0.56 q 1.27,-0.89 0.95,-2.29 a 1.48,1.46 -79.5 0 0 -0.59,-0.87 l -0.54,-0.39 q -0.47,-0.33 -0.47,-0.91 0.13,-20.11 -0.01,-40.34 c 0,-0.96 0.3,-1.51 1.01,-2.13 a 1.89,1.89 0 0 0 0.09,-2.78 q -1.43,-1.39 -3.01,-0.1 a 1.92,1.92 0 0 0 -0.04,2.93 c 0.71,0.62 1.08,1.1 1.08,2.08 q 0.03,19.76 0.08,40.1 0,0.77 -0.65,1.18"
         id="path745" />
      <path
         stroke="#bfbfbf"
         vector-effect="non-scaling-stroke"
         d="m 59.03,135.04 q -0.27,-0.08 -0.51,-0.24 a 1.91,1.81 -70.1 0 0 -2.8,1.4 q -0.31,2.25 1.96,2.54 a 1.85,1.85 0 0 0 2.08,-1.73 q 0.06,-1.12 1.05,-1.67 7.54,-4.21 15.03,-8.57 a 1.79,1.79 0 0 0 0.88,-1.54 L 76.67,71.22 a 1.1,1.08 -18.4 0 1 0.45,-0.88 q 1.84,-1.35 0.56,-3.15 a 1.81,1.8 -34.6 0 0 -2.5,-0.45 q -1.25,0.85 -1.03,2.21 0.06,0.4 0.36,0.68 l 0.93,0.85 q 0.34,0.31 0.34,0.78 l -0.11,53.77 a 1.26,1.25 75.2 0 1 -0.63,1.09 l -15.32,8.85 a 0.85,0.84 -50.7 0 1 -0.69,0.07"
         id="path747" />
      <path
         stroke="#bfbfbf"
         vector-effect="non-scaling-stroke"
         d="M 187.35,104.54 187.33,73.2 q 0,-0.49 0.38,-0.79 1.3,-1.02 1.18,-2.48 a 2.03,2.03 0 0 0 -2.81,-1.71 c -1.31,0.54 -2.11,2.32 -0.8,3.39 q 0.34,0.28 0.63,0.62 0.36,0.43 0.36,0.99 l 0.05,32.49 a 0.53,0.53 0 0 0 0.79,0.46 q 10.21,-5.64 20.19,-11.3 0.96,-0.54 1.96,-0.02 a 1.7,1.7 0 0 0 2.16,-0.53 c 1.46,-2.07 -0.81,-4.73 -2.95,-2.93 -0.6,0.51 -0.59,1.01 -0.78,1.7 q -0.14,0.55 -0.64,0.83 l -19.28,10.86 a 0.28,0.28 0 0 1 -0.42,-0.24"
         id="path749" />
      <path
         stroke="#bfbfbf"
         vector-effect="non-scaling-stroke"
         d="m 66.05,75.68 a 1.72,1.71 22.2 0 1 0.8,1.89 q -0.39,1.55 -0.41,3.06 -0.2,15.36 -0.09,40.82 0.01,0.73 -0.62,1.09 l -15.49,8.91 a 0.93,0.91 75.6 0 0 -0.45,0.78 l -0.05,4.36 q 0,0.63 -0.52,0.99 -0.93,0.62 -1.04,1.67 c -0.33,2.99 4.04,3.32 4.16,0.1 q 0.02,-0.55 -0.36,-0.96 l -0.89,-0.93 a 1.33,1.32 23.3 0 1 -0.35,-0.87 l -0.03,-3.77 q -0.01,-0.57 0.48,-0.85 l 15.34,-8.79 a 2.02,2.01 75.1 0 0 1.01,-1.75 L 67.36,76.64 q 0,-0.71 0.58,-1.11 1.7,-1.21 0.49,-2.97 a 1.77,1.77 0 0 0 -2.17,-0.61 c -1.59,0.71 -1.7,2.85 -0.21,3.73"
         id="path751" />
      <path
         stroke="#bfbfbf"
         vector-effect="non-scaling-stroke"
         d="m 193.72,94.48 q 0.19,-8.35 0.1,-17.4 -0.01,-0.92 0.74,-1.43 c 1.34,-0.92 1.27,-2.61 -0.15,-3.49 a 2.06,2.06 0 0 0 -2.96,0.89 q -0.76,1.67 0.97,2.87 0.46,0.32 0.46,0.88 l -0.03,18.66 a 0.65,0.65 0 0 0 0.97,0.56 q 6.61,-3.77 13.5,-7.65 c 0.68,-0.38 1.25,-0.33 1.87,0.14 a 1.47,1.47 0 0 0 2.1,-0.32 q 1.32,-1.87 -0.16,-3.33 a 1.88,1.87 32.1 0 0 -3.08,0.7 l -0.44,1.25 a 1.5,1.47 -4.7 0 1 -0.68,0.79 l -12.73,7.16 a 0.32,0.32 0 0 1 -0.48,-0.28"
         id="path753" />
      <path
         stroke="#bfbfbf"
         vector-effect="non-scaling-stroke"
         d="m 52.99,123.05 4.55,-2.58 a 1.43,1.43 0 0 0 0.72,-1.24 L 58.21,82.2 a 1.55,1.53 71.7 0 1 0.61,-1.23 q 1.1,-0.81 1,-2.12 a 1.83,1.83 0 0 0 -1.68,-1.68 q -2.54,-0.18 -2.51,2.16 0.01,1.05 0.98,1.45 0.66,0.28 0.66,1 l 0.03,37.28 a 0.97,0.96 -15 0 1 -0.49,0.84 l -4.4,2.47 a 1.23,1.23 0 0 1 -1.19,0.02 q -1.28,-0.69 -2.46,0.24 a 1.62,1.61 72.3 0 0 -0.62,1.21 c -0.13,3.13 4.1,3.16 4.21,0.26 q 0.03,-0.7 0.64,-1.05"
         id="path755" />
      <path
         stroke="#bfbfbf"
         vector-effect="non-scaling-stroke"
         d="m 49.75,87.27 0.01,21.19 q 0,0.55 -0.45,0.84 c -2.36,1.57 -0.8,5.19 2.28,3.61 a 1.62,1.62 0 0 0 0.84,-1.79 q -0.25,-1.11 -1.1,-1.59 -0.61,-0.34 -0.61,-1.04 l -0.08,-21 a 1.42,1.4 72.7 0 1 0.6,-1.16 c 2.6,-1.83 0.16,-5.28 -2.45,-3.5 a 1.65,1.64 72.5 0 0 -0.72,1.4 q 0.02,1.37 0.98,1.87 0.7,0.37 0.7,1.17"
         id="path757" />
      <path
         stroke="#bfbfbf"
         vector-effect="non-scaling-stroke"
         d="m 208.78,149.27 q 1.06,0.78 2.17,0.04 a 2.19,2.19 0 0 0 0.91,-2.36 q -0.29,-1.16 -1.49,-1.52 a 1.92,1.92 0 0 0 -2.39,1.33 l -0.29,1.04 q -0.15,0.54 -0.63,0.83 l -17.13,9.93 a 2.41,2.4 74.8 0 0 -1.2,2.1 l 0.04,6.87 a 1.11,1.11 0 0 1 -0.55,0.96 l -28.68,16.86 a 1.66,1.66 0 0 0 -0.82,1.43 l 0.01,15.28 a 1.27,1.27 0 0 1 -0.53,1.03 q -1.43,1 -0.98,2.58 a 1.96,1.95 -18.1 0 0 2.56,1.29 c 1.38,-0.51 2.18,-2.27 0.92,-3.37 q -0.42,-0.37 -0.79,-0.81 -0.29,-0.34 -0.29,-0.79 l 0.07,-15.27 q 0,-0.45 0.39,-0.67 l 28.8,-16.89 a 1.61,1.59 -15.5 0 0 0.8,-1.4 l -0.07,-7.27 a 1.33,1.33 0 0 1 0.67,-1.17 l 17.56,-10.1 a 0.87,0.86 -41.6 0 1 0.94,0.05"
         id="path759" />
      <path
         stroke="#bfbfbf"
         vector-effect="non-scaling-stroke"
         d="m 194.39,166.63 a 1.23,1.22 75.5 0 1 0.62,-1.07 l 12.69,-7.32 q 0.54,-0.31 1.1,-0.03 l 0.54,0.27 q 0.44,0.22 0.92,0.08 1.45,-0.44 1.63,-1.92 a 1.94,1.93 15.4 0 0 -1.14,-2 q -1.9,-0.84 -2.54,0.87 -0.27,0.74 -0.62,1.46 a 1.68,1.67 -2.6 0 1 -0.66,0.72 l -12.65,7.34 a 1.44,1.44 0 0 0 -0.72,1.23 q -0.06,7.42 -0.03,15.15 c 0.01,0.97 -0.32,1.51 -1.04,2.12 a 1.83,1.83 0 0 0 -0.28,2.53 c 1.88,2.45 5.42,-0.57 3.34,-2.52 q -0.4,-0.37 -0.77,-0.78 -0.37,-0.4 -0.37,-0.95 l -0.02,-15.18"
         id="path761" />
      <path
         stroke="#bfbfbf"
         vector-effect="non-scaling-stroke"
         d="m 200.26,178.79 -0.04,-6.86 a 1.1,1.09 74.8 0 1 0.55,-0.97 l 6.76,-3.89 a 1.48,1.48 0 0 1 1.14,-0.14 q 0.3,0.08 0.57,0.23 c 1.39,0.76 2.58,-0.71 2.65,-1.99 a 1.82,1.82 0 0 0 -1.49,-1.9 q -2.4,-0.44 -2.64,2.06 a 1.24,1.22 -13 0 1 -0.59,0.93 l -6.93,4.05 a 1.94,1.93 74.5 0 0 -0.96,1.71 l 0.11,6.56 q 0.01,0.58 -0.42,0.98 l -0.77,0.74 q -0.51,0.48 -0.47,1.18 c 0.17,2.83 3.39,2.76 4.21,0.31 q 0.19,-0.57 -0.15,-1.05 -0.42,-0.59 -1.01,-0.98 a 1.18,1.16 17.2 0 1 -0.52,-0.97"
         id="path763" />
      <path
         stroke="#bfbfbf"
         vector-effect="non-scaling-stroke"
         d="m 80.61,177.23 0.05,13.24 q 0,0.68 -0.46,1.19 l -0.7,0.76 a 1.95,1.95 0 0 0 1.02,3.23 q 1.61,0.35 2.5,-1.06 a 1.78,1.77 -57.4 0 0 -0.53,-2.43 c -0.63,-0.41 -0.91,-0.94 -0.9,-1.69 q 0.12,-7.49 0.07,-14.78 a 0.69,0.69 0 0 0 -1.04,-0.59 l -5.61,3.28 a 1.62,1.61 -15.4 0 0 -0.8,1.39 l 0.01,7.05 a 1.23,1.23 0 0 1 -0.46,0.96 c -0.65,0.53 -1.28,0.74 -1.29,1.75 q 0,1.08 0.91,1.79 0.93,0.73 1.99,0.22 c 1.89,-0.92 1.67,-2.61 0.22,-3.81 q -0.54,-0.44 -0.54,-1.14 l -0.01,-6.32 q -0.01,-0.81 0.69,-1.21 l 4.01,-2.33 q 0.87,-0.5 0.87,0.5"
         id="path765" />
      <path
         stroke="#bfbfbf"
         vector-effect="non-scaling-stroke"
         d="m 164.3,199.68 q -1.46,0.91 -0.82,2.76 a 1.65,1.64 80.8 0 0 1.52,1.1 c 2.32,0.04 3.51,-2.7 1.27,-3.95 q -0.51,-0.29 -0.51,-0.87 l -0.04,-6.93 a 0.96,0.94 75.6 0 1 0.48,-0.83 l 19.98,-11.53 q 0.48,-0.27 0.97,-0.02 1.75,0.92 2.79,-0.56 a 2.08,2.08 0 0 0 -0.66,-2.99 c -1.45,-0.84 -2.97,0.11 -3.11,1.72 q -0.07,0.89 -0.86,1.34 -10.07,5.81 -19.46,11.19 c -0.98,0.57 -1.14,1.75 -1.08,2.79 q 0.18,2.85 0.08,5.82 -0.02,0.63 -0.55,0.96"
         id="path767" />
      <path
         stroke="#bfbfbf"
         vector-effect="non-scaling-stroke"
         d="m 67.54,181.24 q 0.44,1.9 -1.02,3.02 a 1.37,1.36 -15.3 0 0 -0.53,0.92 q -0.23,1.61 1.19,2.37 a 1.91,1.91 0 0 0 2.37,-0.45 q 1.58,-1.9 -0.5,-3.43 -0.53,-0.4 -0.53,-1.06 l 0.01,-2.76 a 0.5,0.49 -15.1 0 0 -0.75,-0.43 l -3.03,1.78 q -0.51,0.3 -0.96,-0.09 -0.98,-0.87 -2.5,0.24 a 1.75,1.74 -23.1 0 0 -0.69,1.7 q 0.26,1.43 1.56,1.84 a 1.99,1.99 0 0 0 2.55,-1.55 q 0.32,-1.74 2.13,-2.46 a 0.52,0.52 0 0 1 0.7,0.36"
         id="path769" />
      <path
         stroke="#bfbfbf"
         vector-effect="non-scaling-stroke"
         d="m 187.1,184.98 0.69,0.36 q 0.53,0.27 1.06,0.01 1.02,-0.5 1.4,-1.61 a 1.84,1.84 0 0 0 -1.14,-2.33 q -1.47,-0.5 -2.49,0.49 -0.41,0.38 -0.35,0.94 0.04,0.46 -0.16,0.86 -0.2,0.39 -0.6,0.63 -7.17,4.14 -13.89,8.06 -1.55,0.91 -1.14,2.62 0.14,0.6 -0.3,1.02 c -1.18,1.12 -2.11,2.49 -0.4,3.86 a 1.88,1.88 0 0 0 2.11,0.16 q 0.96,-0.54 1.23,-1.69 0.14,-0.61 -0.27,-1.09 l -1.03,-1.22 a 2.04,2.04 0 0 1 0.53,-3.09 l 13.75,-7.95 q 0.49,-0.29 1,-0.03"
         id="path771" />
      <path
         stroke="#bfbfbf"
         vector-effect="non-scaling-stroke"
         d="m 109.65,208.78 c -1.85,1.19 -1.66,3.46 0.52,4.01 a 1.93,1.92 -70.2 0 0 2.2,-1.04 q 0.86,-1.79 -0.82,-2.84 -0.52,-0.33 -0.52,-0.96 L 111,193.97 q 0,-0.61 0.34,-1.12 0.3,-0.45 0.72,-0.78 c 1.02,-0.82 0.77,-2.23 -0.13,-3 a 2.05,2.04 52.9 0 0 -2.19,-0.31 q -1.44,0.68 -1.37,2.2 a 1.34,1.32 -68.2 0 0 0.36,0.86 l 1,1.05 q 0.39,0.41 0.39,0.97 l 0.07,13.94 q 0,0.65 -0.54,1"
         id="path773" />
      <path
         stroke="#bfbfbf"
         vector-effect="non-scaling-stroke"
         d="m 149.36,200.59 0.04,7.09 q 0,0.59 -0.46,0.96 -0.55,0.42 -0.9,0.98 a 1.93,1.92 -60.9 0 0 0.78,2.76 c 2.64,1.29 4.22,-2.28 2.02,-3.61 q -0.56,-0.34 -0.56,-0.99 l -0.03,-6.99 a 0.98,0.96 66.8 0 1 0.27,-0.7 q 1.72,-1.8 3.43,-0.88 0.55,0.3 1.13,0.06 1,-0.42 1.32,-1.41 a 2.03,2.03 0 0 0 -0.83,-2.32 c -1.48,-0.97 -3.22,0.01 -3.29,1.76 q -0.03,0.55 -0.49,0.87 l -1.84,1.27 a 1.38,1.38 0 0 0 -0.59,1.15"
         id="path775" />
      <path
         stroke="#737373"
         vector-effect="non-scaling-stroke"
         d="m 121.19,99.39 q -0.26,0.05 -0.48,0.17 -5.48,2.99 -10.95,6.02 -1.06,0.6 -2.16,1.15 -1.1,0.55 -2.06,1.24 -4.65,3.3 -9.73,5.54 c -2.97,1.3 -2.37,4.97 -2.33,7.49 q 0.22,13.28 -0.03,26.52 -0.09,4.67 0.1,8.25 a 0.98,0.97 2.1 0 0 0.86,0.92 q 1.74,0.23 3.59,0.23 17,-0.05 34,-0.09 16.12,-0.04 32.78,-0.01 a 1.58,1.58 0 0 0 1.58,-1.58 l -0.01,-38.96 q 0,-1.7 -1.48,-2.54 L 131.03,94.32 A 1.07,1.01 52.7 0 0 130.3,94.2 q -1.61,0.32 -2.99,1.19 -2.65,1.65 -5.55,3.76 -0.26,0.18 -0.57,0.24"
         id="path825" />
      <path
         stroke="#a0a0a0"
         vector-effect="non-scaling-stroke"
         d="m 130.34,96.11 a 0.56,0.56 0 0 0 -0.56,0 l -34.2,19.59 a 0.56,0.56 0 0 0 -0.28,0.48 l -0.03,38.48 a 0.56,0.56 0 0 0 0.56,0.56 l 68.41,0.02 a 0.56,0.56 0 0 0 0.56,-0.56 v -38.5 a 0.56,0.56 0 0 0 -0.28,-0.48 L 130.34,96.11"
         id="path827" />
      <path
         stroke="#a0a0a0"
         vector-effect="non-scaling-stroke"
         d="m 126.39,163.53 q -0.31,-0.29 -0.73,-0.22 a 0.65,0.65 0 0 0 -0.42,1.01 q 0.95,1.35 1.94,0.43 a 0.57,0.57 0 0 0 -0.04,-0.87 q -0.19,-0.15 -0.42,-0.19 -0.18,-0.04 -0.33,-0.16"
         id="path829" />
      <path
         stroke="#b3b3b3"
         vector-effect="non-scaling-stroke"
         d="m 117.98,166.9 -0.3,-2.41 a 0.9,0.89 -0.4 0 0 -0.81,-0.79 q -1.35,-0.14 -1.99,0.93 a 1.36,1.35 -42.1 0 0 -0.07,1.25 q 0.56,1.26 2.08,1.86 1.25,0.5 1.09,-0.84"
         id="path831" />
      <path
         stroke="#b3b3b3"
         vector-effect="non-scaling-stroke"
         d="m 145.62,165.87 q 0.48,-1.56 -0.95,-2.08 a 1.43,1.42 12.3 0 0 -1.91,1.22 l -0.18,2.22 q -0.06,0.68 0.59,0.46 2.12,-0.72 2.45,-1.82"
         id="path833" />
      <path
         stroke="#b3b3b3"
         vector-effect="non-scaling-stroke"
         d="m 152.03,171.17 a 0.43,0.43 0 0 0 0.67,0.38 l 1.66,-1.09 a 0.43,0.43 0 0 0 0.2,-0.37 l -0.11,-5.89 a 0.43,0.43 0 0 0 -0.49,-0.41 l -1.28,0.17 a 0.43,0.43 0 0 0 -0.37,0.41 l -0.28,6.8"
         id="path835" />
      <path
         stroke="#b3b3b3"
         vector-effect="non-scaling-stroke"
         d="m 163.59,163.9 c -1.57,-0.87 -2.86,0.49 -2.77,2.12 q 0.02,0.46 0.47,0.35 1.68,-0.4 2.5,-1.69 0.32,-0.49 -0.2,-0.78"
         id="path837" />
    </g>
    <path
       fill="#7e7e7e"
       d="m 172.16,116.32 q -0.76,3.71 -0.7,6.43 0.02,0.99 1.27,0.8 -0.75,0.62 -0.61,2.18 0.24,-0.65 -0.33,0.21 -0.23,0.34 -0.17,0.76 0.38,2.57 -0.24,5.19 a 0.6,0.6 0 0 0 0.58,0.73 l 2.52,-0.01 q -0.95,0.01 -1.73,0.41 -1.05,0.52 -0.48,1.77 -0.67,-0.39 -0.65,0.71 0.07,3.12 -0.11,6.26 -0.05,0.85 0.98,0.73 -0.77,1.03 0.03,1.73 l -0.49,0.13 q -0.5,0.14 -0.52,0.66 -0.11,3 0.05,6.13 0.02,0.36 0.23,0.65 0.31,0.44 0.69,0.22 -0.65,0.88 -0.08,1.38 -0.73,0.58 -0.56,2.07 0.13,1.19 -0.15,2.12 -1.57,5.22 -6.35,4.44 -1.91,-0.31 -3.95,-0.15 -3.32,0.26 -6.98,-0.1 -1.52,-0.16 -3.51,0.29 c -2.56,0.57 -5.13,-0.66 -7.65,-0.19 q -1.87,0.34 -3.63,0.14 -3.69,-0.41 -6.88,-0.15 c -4.4,0.35 -8.56,-0.51 -13,0.23 q -0.44,0.08 -0.85,-0.09 -2.39,-0.95 -4.89,0.01 -0.57,0.22 -1.17,0.09 -1.64,-0.33 -3.3,0.01 -0.48,0.1 -0.92,-0.14 -0.63,-0.35 -1.35,-0.31 -2.79,0.16 -5.39,0.54 -1.11,0.16 -2.3,-0.22 c -1.37,-0.45 -3.19,-0.39 -4.49,0.17 q -1.63,0.7 -3.16,-0.14 -3.75,-2.06 -3.68,-6.2 0.02,-1.11 -0.35,-1.51 -0.54,-0.6 -1.63,-0.67 1.47,-0.05 1.49,-1.09 0.01,-0.54 -0.52,-0.61 -1.85,-0.23 -3.3,1.54 -0.35,-0.17 -0.92,-0.23 0.46,-0.99 1.37,-1.28 0.83,-0.25 0,-0.52 c -1.14,-0.37 -2.72,0.05 -4.01,-0.18 q -0.32,-0.06 -0.24,-0.38 0.1,-0.4 -0.35,-0.78 a 0.69,0.67 49.2 0 0 -0.77,-0.07 l -26.17,15.08 a 0.98,0.94 81.9 0 0 -0.46,0.64 c -0.13,0.61 -0.13,1.08 -0.56,1.58 q -1.28,1.48 -2.75,0.43 a 2.12,2.11 31.4 0 1 -0.66,-2.71 q 1.03,-2 2.78,-0.78 0.56,0.4 1.15,0.05 l 26.23,-15.18 q 1.03,-0.59 1.2,-1.77 l 0.4,-2.9 q 0.41,1.77 0.03,2.85 -0.17,0.49 -0.07,1.01 0.58,3.04 4.01,2.12 1.57,-0.42 2.68,0.5 0.46,0.37 1.04,0.25 0.83,-0.17 0.7,-0.95 -0.52,-3.17 -0.95,-6.02 0.13,-1.01 -0.16,-1.59 -0.24,-0.48 -0.77,-0.48 l -5.66,0.02 q -0.6,0 -0.78,-0.57 -0.14,-0.45 -0.6,-0.53 -0.44,-0.08 -0.83,0.15 -12.8,7.41 -25.81,14.91 a 1.12,1.11 83.8 0 0 -0.52,0.65 l -0.37,1.22 a 1.61,1.61 0 0 1 -0.66,0.88 q -1.51,1 -2.74,-0.27 a 2.07,2.07 0 0 1 0.05,-2.92 q 1.15,-1.12 2.48,-0.25 a 1.03,1.02 -43.3 0 0 1.08,0.03 l 27.27,-15.86 q 2.99,2.16 8.04,2.04 a 1,1 0 0 0 0.73,-0.34 q 0.5,-0.55 0.05,-1.25 a 1.21,1.18 -56 0 1 -0.17,-0.92 q 0.51,-2.44 -0.25,-4.67 -0.21,-0.87 -0.56,-1.37 -0.29,-0.41 -0.79,-0.44 l -3.39,-0.14 q 2.2,-0.63 4.59,-0.19 0.59,0.12 0.7,-0.48 0.12,-0.69 -0.23,-1.32 -0.23,-0.42 -0.2,-0.9 0.04,-0.9 0.42,-1.8 0.23,-0.53 -0.09,-1.02 -0.48,-0.74 -1.09,-1.04 0.47,-1.04 0.24,-1.82 -0.15,-0.52 -0.7,-0.52 l -1.35,-0.02 q -0.05,-0.1 -0.11,-0.19 1.78,0.46 2.77,-0.29 0.42,-0.31 0.35,-0.82 l -0.81,-5.91 q -0.3,-1.88 0.44,-3.31 c 0.87,-1.7 4.17,-2.8 5.74,-4 q 0.32,-0.25 0.32,-0.67 -0.22,-23.79 0,-47.34 0.01,-1.02 -0.94,-1.45 -0.37,-0.16 -0.53,-0.53 c -1.05,-2.45 1.78,-4.33 3.49,-2.37 a 1.89,1.89 0 0 1 -0.13,2.62 c -0.8,0.75 -1.05,1.39 -1.04,2.48 q 0.19,24.24 0,46.44 a 0.14,0.14 0 0 0 0.21,0.13 l 7.79,-4.4 q 0.25,-0.15 0.25,-0.44 -0.06,-22.35 -0.02,-47.9 c 0,-0.79 -0.38,-1.13 -0.93,-1.58 a 1.82,1.82 0 0 1 -0.15,-2.68 q 1.44,-1.46 2.89,-0.29 a 2.09,2.09 0 0 1 0.03,3.23 l -0.49,0.4 q -0.43,0.35 -0.43,0.91 l 0.12,47.32 a 0.15,0.15 0 0 0 0.23,0.13 l 7.65,-4.35 q 0.29,-0.16 0.29,-0.5 l 0.06,-48.07 q 0,-0.54 -0.42,-0.88 c -0.66,-0.55 -1.3,-1.17 -1.11,-2.13 0.58,-2.92 4.21,-2.18 4.05,0.44 a 1.66,1.61 -20.2 0 1 -0.53,1.1 l -0.78,0.7 a 1,0.97 69.4 0 0 -0.32,0.73 l 0.09,47.57 a 0.18,0.18 0 0 0 0.27,0.16 l 7.7,-4.44 q 0.23,-0.13 0.23,-0.4 l 0.04,-48.06 q 0,-0.58 -0.43,-0.96 l -0.69,-0.6 a 1.41,1.38 19.6 0 1 -0.47,-0.97 c -0.13,-2.31 2.26,-3.42 3.75,-1.58 a 1.89,1.88 -45.1 0 1 0,2.37 l -0.87,1.07 q -0.35,0.42 -0.35,0.97 l -0.02,47.15 a 0.24,0.24 0 0 0 0.37,0.21 q 4.36,-2.83 7.47,-3.96 0.48,-0.18 0.48,-0.68 l 0.03,-46.61 q 0,-0.54 -0.34,-0.96 -0.32,-0.4 -0.72,-0.71 c -1.1,-0.86 -0.66,-2.38 0.39,-3.05 a 2.1,2.09 52.7 0 1 2.68,0.37 c 1.55,1.73 -0.37,2.6 -1.03,3.84 a 1.15,1.13 58.6 0 0 -0.12,0.51 l 0.05,48.01 a 0.52,0.52 0 0 0 0.26,0.45 l 7.7,4.34 a 0.16,0.16 0 0 0 0.24,-0.14 q 0.17,-21.1 0.06,-47.29 0,-1.05 -0.99,-1.61 a 1.22,1.22 0 0 1 -0.61,-0.88 q -0.24,-1.6 1.09,-2.37 a 2.02,2.01 -25.9 0 1 2.89,1 q 0.66,1.67 -0.83,2.61 a 1.43,1.41 -16.3 0 0 -0.67,1.2 l 0.05,47.51 q 0,0.67 0.57,1.01 l 2.21,1.28 q 0.9,0.52 0.9,-0.52 v -3.24 a 1.82,1.82 0 0 1 1.84,-1.82 l 2.03,0.02 q 0.74,0.01 0.74,-0.73 l -0.11,-38.25 q -0.01,-0.57 -0.41,-0.97 c -1.29,-1.27 -1.74,-3.09 0.35,-3.92 a 1.93,1.92 -21.9 0 1 2.48,1.05 q 0.74,1.76 -0.91,2.93 a 1.14,1.1 73 0 0 -0.47,0.92 l 0.01,38.31 a 0.67,0.67 0 0 0 0.68,0.67 l 5.19,-0.02 a 1.24,1.24 0 0 1 1.24,1.23 l 0.09,11.76 q 0,0.39 0.39,0.41 l 0.27,0.02 q 0.42,0.02 0.42,-0.4 V 57.39 q 0,-0.71 -0.52,-1.2 l -0.54,-0.51 a 2.09,2.08 -50.5 0 1 -0.26,-2.73 q 1.1,-1.54 2.86,-0.67 a 2.01,2 -54.5 0 1 0.53,3.21 c -0.64,0.65 -1.08,1.15 -1.08,2.13 q 0.1,23.9 -0.03,47.49 0,0.18 0.16,0.28 l 7.96,4.64 a 0.1,0.1 0 0 0 0.15,-0.09 Q 167.83,86.4 167.89,63.29 c 0.01,-0.93 -0.21,-1.68 -0.95,-2.28 a 2.02,2.02 0 0 1 0.23,-3.28 q 1.3,-0.8 2.57,0.1 a 1.96,1.95 -49.5 0 1 0.23,2.98 c -0.69,0.69 -1.07,1.33 -1.08,2.35 q -0.05,21.91 -0.15,46.63 0,0.49 0.37,0.81 0.85,0.75 1.92,1.19 1.88,0.77 1.13,4.53 z M 121.19,99.39 q -0.26,0.05 -0.48,0.17 -5.48,2.99 -10.95,6.02 -1.06,0.6 -2.16,1.15 -1.1,0.55 -2.06,1.24 -4.65,3.3 -9.73,5.54 c -2.97,1.3 -2.37,4.97 -2.33,7.49 q 0.22,13.28 -0.03,26.52 -0.09,4.67 0.1,8.25 a 0.98,0.97 2.1 0 0 0.86,0.92 q 1.74,0.23 3.59,0.23 17,-0.05 34,-0.09 16.12,-0.04 32.78,-0.01 a 1.58,1.58 0 0 0 1.58,-1.58 l -0.01,-38.96 q 0,-1.7 -1.48,-2.54 L 131.03,94.32 A 1.07,1.01 52.7 0 0 130.3,94.2 q -1.61,0.32 -2.99,1.19 -2.65,1.65 -5.55,3.76 -0.26,0.18 -0.57,0.24 z"
       id="path859" />
    <path
       fill="#7e7e7e"
       d="m 85.79,116.22 q -0.67,-0.27 -0.87,0.17 -0.16,-25.37 0.03,-50.14 0.01,-1.12 -0.82,-1.58 -0.38,-0.22 -0.56,-0.61 c -1.18,-2.59 2.44,-4.24 3.77,-1.68 a 1.84,1.83 -28.7 0 1 -0.72,2.45 Q 85.98,65.2 85.98,66 85.95,91.09 85.79,116.22 Z"
       id="path861" />
    <path
       fill="#7e7e7e"
       d="M 177.28,108.44 Q 177.23,88.1 177.2,68.34 c 0,-0.98 -0.37,-1.46 -1.08,-2.08 a 1.92,1.92 0 0 1 0.04,-2.93 q 1.58,-1.29 3.01,0.1 a 1.89,1.89 0 0 1 -0.09,2.78 c -0.71,0.62 -1.01,1.17 -1.01,2.13 q 0.14,20.23 0.01,40.34 0,0.58 0.47,0.91 l 0.54,0.39 a 1.48,1.46 -79.5 0 1 0.59,0.87 q 0.32,1.4 -0.95,2.29 a 1.98,1.97 -33.6 0 1 -2.79,-0.56 q -1.14,-1.8 0.69,-2.96 0.65,-0.41 0.65,-1.18 z"
       id="path863" />
    <path
       fill="#7e7e7e"
       d="m 59.72,134.97 15.32,-8.85 a 1.26,1.25 75.2 0 0 0.63,-1.09 l 0.11,-53.77 q 0,-0.47 -0.34,-0.78 l -0.93,-0.85 q -0.3,-0.28 -0.36,-0.68 -0.22,-1.36 1.03,-2.21 a 1.81,1.8 -34.6 0 1 2.5,0.45 q 1.28,1.8 -0.56,3.15 a 1.1,1.08 -18.4 0 0 -0.45,0.88 l 0.05,54.01 a 1.79,1.79 0 0 1 -0.88,1.54 q -7.49,4.36 -15.03,8.57 -0.99,0.55 -1.05,1.67 a 1.85,1.85 0 0 1 -2.08,1.73 q -2.27,-0.29 -1.96,-2.54 a 1.91,1.81 -70.1 0 1 2.8,-1.4 q 0.24,0.16 0.51,0.24 a 0.85,0.84 -50.7 0 0 0.69,-0.07 z"
       id="path865" />
    <path
       fill="#7e7e7e"
       d="m 187.35,104.54 a 0.28,0.28 0 0 0 0.42,0.24 l 19.28,-10.86 q 0.5,-0.28 0.64,-0.83 c 0.19,-0.69 0.18,-1.19 0.78,-1.7 2.14,-1.8 4.41,0.86 2.95,2.93 a 1.7,1.7 0 0 1 -2.16,0.53 q -1,-0.52 -1.96,0.02 -9.98,5.66 -20.19,11.3 a 0.53,0.53 0 0 1 -0.79,-0.46 l -0.05,-32.49 q 0,-0.56 -0.36,-0.99 -0.29,-0.34 -0.63,-0.62 c -1.31,-1.07 -0.51,-2.85 0.8,-3.39 a 2.03,2.03 0 0 1 2.81,1.71 q 0.12,1.46 -1.18,2.48 -0.38,0.3 -0.38,0.79 z"
       id="path867" />
    <path
       fill="#7e7e7e"
       d="m 66.05,75.68 c -1.49,-0.88 -1.38,-3.02 0.21,-3.73 a 1.77,1.77 0 0 1 2.17,0.61 q 1.21,1.76 -0.49,2.97 -0.58,0.4 -0.58,1.11 l 0.18,44.79 a 2.02,2.01 75.1 0 1 -1.01,1.75 l -15.34,8.79 q -0.49,0.28 -0.48,0.85 l 0.03,3.77 a 1.33,1.32 23.3 0 0 0.35,0.87 l 0.89,0.93 q 0.38,0.41 0.36,0.96 c -0.12,3.22 -4.49,2.89 -4.16,-0.1 q 0.11,-1.05 1.04,-1.67 0.52,-0.36 0.52,-0.99 l 0.05,-4.36 a 0.93,0.91 75.6 0 1 0.45,-0.78 l 15.49,-8.91 q 0.63,-0.36 0.62,-1.09 -0.11,-25.46 0.09,-40.82 0.02,-1.51 0.41,-3.06 a 1.72,1.71 22.2 0 0 -0.8,-1.89 z"
       id="path869" />
    <path
       fill="#7e7e7e"
       d="m 193.72,94.48 a 0.32,0.32 0 0 0 0.48,0.28 l 12.73,-7.16 a 1.5,1.47 -4.7 0 0 0.68,-0.79 l 0.44,-1.25 a 1.88,1.87 32.1 0 1 3.08,-0.7 q 1.48,1.46 0.16,3.33 a 1.47,1.47 0 0 1 -2.1,0.32 c -0.62,-0.47 -1.19,-0.52 -1.87,-0.14 q -6.89,3.88 -13.5,7.65 a 0.65,0.65 0 0 1 -0.97,-0.56 l 0.03,-18.66 q 0,-0.56 -0.46,-0.88 -1.73,-1.2 -0.97,-2.87 a 2.06,2.06 0 0 1 2.96,-0.89 c 1.42,0.88 1.49,2.57 0.15,3.49 q -0.75,0.51 -0.74,1.43 0.09,9.05 -0.1,17.4 z"
       id="path871" />
    <path
       fill="#7e7e7e"
       d="m 52.35,124.1 c -0.11,2.9 -4.34,2.87 -4.21,-0.26 a 1.62,1.61 72.3 0 1 0.62,-1.21 q 1.18,-0.93 2.46,-0.24 a 1.23,1.23 0 0 0 1.19,-0.02 l 4.4,-2.47 a 0.97,0.96 -15 0 0 0.49,-0.84 L 57.27,81.78 q 0,-0.72 -0.66,-1 -0.97,-0.4 -0.98,-1.45 -0.03,-2.34 2.51,-2.16 a 1.83,1.83 0 0 1 1.68,1.68 q 0.1,1.31 -1,2.12 a 1.55,1.53 71.7 0 0 -0.61,1.23 l 0.05,37.03 a 1.43,1.43 0 0 1 -0.72,1.24 l -4.55,2.58 q -0.61,0.35 -0.64,1.05 z"
       id="path873" />
    <path
       fill="#7e7e7e"
       d="m 49.05,86.1 q -0.96,-0.5 -0.98,-1.87 a 1.65,1.64 72.5 0 1 0.72,-1.4 c 2.61,-1.78 5.05,1.67 2.45,3.5 a 1.42,1.4 72.7 0 0 -0.6,1.16 l 0.08,21 q 0,0.7 0.61,1.04 0.85,0.48 1.1,1.59 a 1.62,1.62 0 0 1 -0.84,1.79 c -3.08,1.58 -4.64,-2.04 -2.28,-3.61 q 0.45,-0.29 0.45,-0.84 L 49.75,87.27 q 0,-0.8 -0.7,-1.17 z"
       id="path875" />
    <path
       fill="#676767"
       d="m 121.76,99.15 q 2.9,-2.11 5.55,-3.76 1.38,-0.87 2.99,-1.19 a 1.07,1.01 52.7 0 1 0.73,0.12 l 33.84,19.42 q 1.48,0.84 1.48,2.54 l 0.01,38.96 a 1.58,1.58 0 0 1 -1.58,1.58 q -16.66,-0.03 -32.78,0.01 -17,0.04 -34,0.09 -1.85,0 -3.59,-0.23 a 0.98,0.97 2.1 0 1 -0.86,-0.92 q -0.19,-3.58 -0.1,-8.25 0.25,-13.24 0.03,-26.52 c -0.04,-2.52 -0.64,-6.19 2.33,-7.49 q 5.08,-2.24 9.73,-5.54 0.96,-0.69 2.06,-1.24 1.1,-0.55 2.16,-1.15 5.47,-3.03 10.95,-6.02 0.22,-0.12 0.48,-0.17 0.31,-0.06 0.57,-0.24 z m 8.58,-3.04 a 0.56,0.56 0 0 0 -0.56,0 l -34.2,19.59 a 0.56,0.56 0 0 0 -0.28,0.48 l -0.03,38.48 a 0.56,0.56 0 0 0 0.56,0.56 l 68.41,0.02 a 0.56,0.56 0 0 0 0.56,-0.56 v -38.5 a 0.56,0.56 0 0 0 -0.28,-0.48 z"
       id="path877" />
    <path
       fill="#d9d9d9"
       d="m 130.34,96.11 34.18,19.59 a 0.56,0.56 0 0 1 0.28,0.48 v 38.5 a 0.56,0.56 0 0 1 -0.56,0.56 l -68.41,-0.02 a 0.56,0.56 0 0 1 -0.56,-0.56 l 0.03,-38.48 a 0.56,0.56 0 0 1 0.28,-0.48 l 34.2,-19.59 a 0.56,0.56 0 0 1 0.56,0 z"
       id="path879"
       style="fill:#999999;fill-opacity:1" />
    <path
       fill="#7e7e7e"
       d="m 181.58,117.33 q -0.14,-0.69 -0.6,-0.34 l 26.04,-15.34 a 1.47,1.47 0 0 0 0.62,-0.71 q 0.19,-0.45 0.28,-0.96 c 0.53,-3.11 5.68,-1.37 3.52,2.09 a 1.47,1.47 0 0 1 -2.05,0.45 q -0.59,-0.38 -1.21,-0.28 -0.57,0.1 -1.1,0.41 -12.72,7.42 -25.5,14.68 z"
       id="path881" />
    <path
       fill="#7e7e7e"
       d="m 210.21,128.76 q -0.43,-0.95 -0.81,-0.73 -0.25,-7.24 -0.05,-14.54 c 0.03,-1.07 -0.29,-1.54 -1.09,-2.13 q -0.42,-0.31 -0.5,-0.83 -0.32,-2.16 1.82,-2.57 a 1.93,1.93 0 0 1 2.19,1.24 q 0.6,1.7 -1.01,2.69 -0.5,0.31 -0.5,0.89 z"
       id="path883" />
    <path
       fill="#7e7e7e"
       d="m 181.13,127.26 q -1.64,-0.69 -0.78,-0.61 l 19.09,-11.05 q 0.53,-0.3 0.57,-0.9 c 0.14,-2.14 2.71,-3.13 3.89,-1.12 0.87,1.46 -0.29,3.24 -1.95,3.16 q -0.39,-0.02 -0.71,-0.23 -0.72,-0.47 -1.52,-0.01 -9.35,5.49 -18.59,10.76 z"
       id="path885" />
    <path
       fill="#676767"
       d="m 85.79,116.22 1.95,-0.01 0.81,5.91 q 0.07,0.51 -0.35,0.82 -0.99,0.75 -2.77,0.29 -3.02,0.76 -4.63,-1.02 c -0.96,-1.06 -0.74,-3 -0.8,-4.48 q -0.18,-2.05 4.92,-1.34 0.2,-0.44 0.87,-0.17 z"
       id="path887" />
    <path
       fill="#676767"
       d="m 172.16,116.32 q 3.37,-0.11 6.14,-0.01 c 1.18,0.04 1.64,0.74 2.68,0.68 q 0.46,-0.35 0.6,0.34 -2.15,1.1 -1.17,1.88 -1.09,2.28 -0.92,4.23 l -6.76,0.11 q -1.25,0.19 -1.27,-0.8 -0.06,-2.72 0.7,-6.43 z"
       id="path889" />
    <path
       fill="#7e7e7e"
       d="m 180.25,137.72 q 0.27,-0.66 -0.28,-1.01 l 14.08,-8.15 q 0.49,-0.28 0.54,-0.84 0.04,-0.47 0.1,-0.94 c 0.18,-1.26 1.82,-1.78 2.8,-1.38 a 2.09,2.09 0 0 1 0.78,3.29 q -1.1,1.26 -2.49,0.5 a 0.83,0.82 -45.3 0 0 -0.82,0.01 z"
       id="path895" />
    <path
       fill="#676767"
       d="m 87.35,125.78 q 0.61,0.3 1.09,1.04 0.32,0.49 0.09,1.02 -0.38,0.9 -0.42,1.8 -0.03,0.48 0.2,0.9 0.35,0.63 0.23,1.32 -0.11,0.6 -0.7,0.48 -2.39,-0.44 -4.59,0.19 l -1.75,-0.09 q -1.94,0.33 -1.42,-5.82 1.07,-1.78 7.27,-0.84 z"
       id="path897" />
    <path
       fill="#676767"
       d="m 172.12,125.73 q 5.47,-0.94 8.23,0.92 -0.86,-0.08 0.78,0.61 -0.73,0.45 -0.98,0.99 0.07,1.96 -0.88,3.55 -0.26,0.43 -0.75,0.57 -1.3,0.39 -2.84,0.27 l -1.2,-0.03 -2.52,0.01 a 0.6,0.6 0 0 1 -0.58,-0.73 q 0.62,-2.62 0.24,-5.19 -0.06,-0.42 0.17,-0.76 0.57,-0.86 0.33,-0.21 z"
       id="path899" />
    <path
       fill="#7e7e7e"
       d="m 80.08,126.62 q -0.52,6.15 1.42,5.82 -1.05,-0.18 -2.43,0.62 -12.62,7.25 -25.24,14.5 c -0.92,0.53 -1.43,1.13 -1.98,2.01 a 1.89,1.88 27.8 0 1 -2.35,0.72 q -1.22,-0.53 -1.34,-1.82 a 2.03,2.02 3.8 0 1 2.48,-2.17 q 0.73,0.18 1.35,0.7 0.41,0.36 0.89,0.08 l 26.14,-15.17 q 0.44,-0.26 0.5,-0.76 z"
       id="path901" />
    <path
       fill="#676767"
       d="m 209.4,128.03 q 0.38,-0.22 0.81,0.73 0.32,1.15 -0.4,1.57 -13.4,7.72 -26.81,15.44 c -1.64,0.95 -2.97,1.45 -2.79,3.71 a 1.7,1.69 89.6 0 1 -1.8,1.83 q -3.21,-0.2 -5.93,0.7 -0.38,0.22 -0.69,-0.22 -0.21,-0.29 -0.23,-0.65 -0.16,-3.13 -0.05,-6.13 0.02,-0.52 0.52,-0.66 l 0.49,-0.13 6.48,0.05 q 0.54,0 0.76,0.5 0.22,0.5 0.24,1.08 a 0.44,0.44 0 0 0 0.66,0.36 q 13.69,-7.89 27.3,-15.77 1.82,-1.05 1.44,-2.41 z"
       id="path903" />
    <path
       fill="#676767"
       d="m 87.99,134.48 q 0.76,2.23 0.25,4.67 a 1.21,1.18 -56 0 0 0.17,0.92 q 0.45,0.7 -0.05,1.25 a 1,1 0 0 1 -0.73,0.34 q -5.05,0.12 -8.04,-2.04 l 0.73,-4.12 q 0.1,-0.52 0.63,-0.53 c 1.78,-0.01 5.6,0.44 7.04,-0.49 z"
       id="path907" />
    <path
       fill="#676767"
       d="m 172.27,134.79 q 3.45,0.23 6.98,0.34 0.58,0.02 0.72,1.58 0.55,0.35 0.28,1.01 0.11,0.8 -0.14,0.48 0.1,3.18 -1.61,3.41 -2.72,0.38 -5.46,0.59 l -0.55,0.29 q -1.03,0.12 -0.98,-0.73 0.18,-3.14 0.11,-6.26 -0.02,-1.1 0.65,-0.71 z"
       id="path909" />
    <path
       fill="#7e7e7e"
       d="m 170.48,170.94 q 0.34,-0.68 -0.02,-1.17 l 12.05,-6.86 a 1.34,1.33 74.8 0 0 0.67,-1.18 l -0.11,-6.94 a 1.81,1.8 74.6 0 1 0.9,-1.6 q 10.33,-6 22.98,-13.36 0.84,-0.49 0.84,-1.49 a 1.65,1.64 -9.3 0 1 1.11,-1.54 q 1.93,-0.65 2.76,0.89 a 2.08,2.08 0 0 1 -0.07,2.1 q -0.54,0.84 -1.57,0.96 -0.51,0.05 -0.93,-0.25 -0.63,-0.46 -1.32,-0.07 -11.94,6.83 -23.22,13.3 a 1.46,1.44 75 0 0 -0.73,1.28 l 0.06,7.17 a 1.58,1.57 74.7 0 1 -0.78,1.38 z"
       id="path911" />
    <path
       fill="#676767"
       d="m 87.61,144.23 q 0.43,2.85 0.95,6.02 0.13,0.78 -0.7,0.95 -0.58,0.12 -1.04,-0.25 -1.11,-0.92 -2.68,-0.5 -3.43,0.92 -4.01,-2.12 -0.1,-0.52 0.07,-1.01 0.38,-1.08 -0.03,-2.85 z"
       id="path915" />
    <path
       fill="#7e7e7e"
       d="m 208.78,149.27 a 0.87,0.86 -41.6 0 0 -0.94,-0.05 l -17.56,10.1 a 1.33,1.33 0 0 0 -0.67,1.17 l 0.07,7.27 a 1.61,1.59 -15.5 0 1 -0.8,1.4 l -28.8,16.89 q -0.39,0.22 -0.39,0.67 l -0.07,15.27 q 0,0.45 0.29,0.79 0.37,0.44 0.79,0.81 c 1.26,1.1 0.46,2.86 -0.92,3.37 a 1.96,1.95 -18.1 0 1 -2.56,-1.29 q -0.45,-1.58 0.98,-2.58 a 1.27,1.27 0 0 0 0.53,-1.03 l -0.01,-15.28 a 1.66,1.66 0 0 1 0.82,-1.43 l 28.68,-16.86 a 1.11,1.11 0 0 0 0.55,-0.96 l -0.04,-6.87 a 2.41,2.4 74.8 0 1 1.2,-2.1 l 17.13,-9.93 q 0.48,-0.29 0.63,-0.83 l 0.29,-1.04 a 1.92,1.92 0 0 1 2.39,-1.33 q 1.2,0.36 1.49,1.52 a 2.19,2.19 0 0 1 -0.91,2.36 q -1.11,0.74 -2.17,-0.04 z"
       id="path917" />
    <path
       fill="#676767"
       d="m 83.01,153.24 q 0.57,0.06 0.92,0.23 1.2,0.36 2.33,0.16 1.09,0.07 1.63,0.67 0.37,0.4 0.35,1.51 -0.07,4.14 3.68,6.2 1.53,0.84 3.16,0.14 c 1.3,-0.56 3.12,-0.62 4.49,-0.17 q 1.19,0.38 2.3,0.22 2.6,-0.38 5.39,-0.54 0.72,-0.04 1.35,0.31 0.44,0.24 0.92,0.14 1.66,-0.34 3.3,-0.01 0.6,0.13 1.17,-0.09 2.5,-0.96 4.89,-0.01 0.41,0.17 0.85,0.09 c 4.44,-0.74 8.6,0.12 13,-0.23 q 3.19,-0.26 6.88,0.15 1.76,0.2 3.63,-0.14 c 2.52,-0.47 5.09,0.76 7.65,0.19 q 1.99,-0.45 3.51,-0.29 3.66,0.36 6.98,0.1 2.04,-0.16 3.95,0.15 4.78,0.78 6.35,-4.44 0.28,-0.93 0.15,-2.12 -0.17,-1.49 0.56,-2.07 l 5.75,0.08 q 2.08,0.03 2.09,2.11 l 0.01,2.94 q 0.01,2.04 -2.02,2.09 l -5.32,0.16 a 2.53,2.53 0 0 0 -2.46,2.53 l 0.01,6.47 q 0.36,0.49 0.02,1.17 0.14,0.23 -0.11,0.5 -0.85,0.06 -1.52,0.94 -0.28,0.37 -0.72,0.48 l -2.3,0.59 q -0.66,0.17 -0.68,-0.52 -0.05,-1.05 -1.12,-1.14 l 0.04,-4.67 a 0.65,0.64 82.8 0 0 -0.8,-0.63 q -2.13,0.53 -2.29,2.45 0.23,4.1 -2.69,4.49 l -2.32,-0.05 q -0.61,-0.01 -0.77,-0.6 -0.15,-0.55 -0.62,-0.78 -0.48,-0.22 -0.94,0.03 l -4.2,2.32 q -0.33,-1.16 -0.66,-1.14 -3.5,0.36 -3.17,-2.67 0.15,-1.43 0.12,-2.31 -0.03,-0.53 -0.54,-0.4 -1.16,0.29 -2.42,1.42 -0.62,0.27 -0.65,1.01 -0.09,2.02 -1.56,2.49 -0.55,0.18 -2.1,-0.11 -1.44,-0.27 -2.16,0.17 l -5.68,3.21 -1.01,-0.28 6.36,-3.81 q 0.39,-0.23 0.39,-0.69 l 0.06,-6.26 q 0.01,-1.23 -1.19,-0.99 l -0.37,0.07 a 1.73,1.72 84.4 0 0 -1.4,1.71 q 0,2.42 0.07,4.91 c 0.04,1.72 -1.48,2.57 -3.06,2.59 -3.83,-0.32 -2.89,-3.7 -3.15,-6.23 q -0.78,-1.13 -2,-1.9 a 0.76,0.76 0 0 0 -1.17,0.6 l -0.46,7.73 q -0.25,-0.97 -0.46,-0.73 -0.53,0.61 -0.96,0.5 l -2.68,0.14 a 1.64,1.64 0 0 1 -1.72,-1.81 q 0.31,-3.02 -2.72,-3.7 a 0.44,0.44 0 0 0 -0.5,0.59 q 0.82,2.05 0.07,4.15 -0.25,0.7 -1,0.74 -1.73,0.09 -3.57,-0.38 -1.5,-0.38 -1.6,-1.98 -0.21,-3.09 -0.18,-5.83 0.01,-1.45 -1.44,-1.45 l -0.43,0.01 a 1.06,1.05 1.4 0 0 -1.06,1 c -0.08,1.66 0.02,3.27 -0.11,4.9 q -0.13,1.53 1.47,2.3 2.57,1.22 6.72,4.09 0.04,0.21 -0.83,0.31 l -6.89,-3.97 q -1.21,-0.07 -3.55,0.87 -0.69,-0.09 -1.67,0.15 l -1.3,-1.17 q -2.12,-2.79 -0.44,-5.62 a 2.02,2.02 0 0 0 -1.04,-2.93 q -0.69,-0.25 -1.58,0.3 -0.44,0.27 -0.42,0.78 c 0.07,2.43 0.69,6.53 -0.84,8.5 q -0.57,0.3 -1.51,0.03 l -2.29,-0.05 a 1.56,1.56 0 0 1 -1.52,-1.56 q 0,-4.54 0,-8.85 0,-1.08 -0.9,-1.45 -0.52,-0.21 -0.65,0.32 -0.14,0.54 -0.05,1.11 -0.43,0.67 -0.73,-1.59 -0.44,-1.29 -3.15,-0.05 -1.13,-1.1 -1.96,-0.8 L 81.54,160.2 81,159.8 q -0.36,-0.27 -0.37,-0.72 -0.04,-2.25 -0.99,-4.27 0.94,-1.69 3.37,-1.57 z m 43.38,10.29 q -0.31,-0.29 -0.73,-0.22 a 0.65,0.65 0 0 0 -0.42,1.01 q 0.95,1.35 1.94,0.43 a 0.57,0.57 0 0 0 -0.04,-0.87 q -0.19,-0.15 -0.42,-0.19 -0.18,-0.04 -0.33,-0.16 z m -8.41,3.37 -0.3,-2.41 a 0.9,0.89 -0.4 0 0 -0.81,-0.79 q -1.35,-0.14 -1.99,0.93 a 1.36,1.35 -42.1 0 0 -0.07,1.25 q 0.56,1.26 2.08,1.86 1.25,0.5 1.09,-0.84 z m 27.64,-1.03 q 0.48,-1.56 -0.95,-2.08 a 1.43,1.42 12.3 0 0 -1.91,1.22 l -0.18,2.22 q -0.06,0.68 0.59,0.46 2.12,-0.72 2.45,-1.82 z m 6.41,5.3 a 0.43,0.43 0 0 0 0.67,0.38 l 1.66,-1.09 a 0.43,0.43 0 0 0 0.2,-0.37 l -0.11,-5.89 a 0.43,0.43 0 0 0 -0.49,-0.41 l -1.28,0.17 a 0.43,0.43 0 0 0 -0.37,0.41 z m 11.56,-7.27 c -1.57,-0.87 -2.86,0.49 -2.77,2.12 q 0.02,0.46 0.47,0.35 1.68,-0.4 2.5,-1.69 0.32,-0.49 -0.2,-0.78 z"
       id="path921" />
    <path
       fill="#7e7e7e"
       d="m 194.39,166.63 0.02,15.18 q 0,0.55 0.37,0.95 0.37,0.41 0.77,0.78 c 2.08,1.95 -1.46,4.97 -3.34,2.52 a 1.83,1.83 0 0 1 0.28,-2.53 c 0.72,-0.61 1.05,-1.15 1.04,-2.12 q -0.03,-7.73 0.03,-15.15 a 1.44,1.44 0 0 1 0.72,-1.23 l 12.65,-7.34 a 1.68,1.67 -2.6 0 0 0.66,-0.72 q 0.35,-0.72 0.62,-1.46 0.64,-1.71 2.54,-0.87 a 1.94,1.93 15.4 0 1 1.14,2 q -0.18,1.48 -1.63,1.92 -0.48,0.14 -0.92,-0.08 l -0.54,-0.27 q -0.56,-0.28 -1.1,0.03 l -12.69,7.32 a 1.23,1.22 75.5 0 0 -0.62,1.07 z"
       id="path923" />
    <path
       fill="#7e7e7e"
       d="m 79.64,154.81 q 0.95,2.02 0.99,4.27 0.01,0.45 0.37,0.72 l 0.54,0.4 q -0.4,-0.06 -0.6,0.16 c -1.82,-1.35 -0.44,-2.86 -1.23,-4.41 l -26.88,15.73 q -0.5,0.3 -0.53,0.87 c -0.14,2.97 -3.91,2.91 -4.1,0.33 -0.14,-1.77 1.71,-2.92 3.19,-1.94 q 0.5,0.33 1.02,0.03 z"
       id="path925" />
    <path
       fill="#7e7e7e"
       d="m 82.2,160.34 q 0.83,-0.3 1.96,0.8 L 57,176.79 a 1.59,1.58 85.5 0 0 -0.68,0.8 q -0.14,0.39 -0.18,0.8 c -0.13,1.45 -1.67,1.92 -2.86,1.4 a 2.03,2.02 17.3 0 1 -1.18,-2.24 q 0.28,-1.44 1.93,-1.76 0.49,-0.09 0.85,0.24 0.68,0.63 1.48,0.16 12.63,-7.39 26.24,-15.28 0.41,-0.24 -0.03,-0.42 z"
       id="path929" />
    <path
       fill="#7e7e7e"
       d="m 87.31,161.19 q 0.3,2.26 0.73,1.59 l 0.03,31.49 q 0,0.59 0.44,0.99 l 0.74,0.67 a 1.95,1.94 -32.1 0 1 -0.76,3.31 q -1.9,0.56 -2.93,-1.32 a 1.52,1.52 0 0 1 0.59,-2.07 q 0.9,-0.49 0.9,-1.6 0.15,-16.41 0.26,-33.06 z"
       id="path931" />
    <path
       fill="#7e7e7e"
       d="m 200.78,179.76 q 0.59,0.39 1.01,0.98 0.34,0.48 0.15,1.05 c -0.82,2.45 -4.04,2.52 -4.21,-0.31 q -0.04,-0.7 0.47,-1.18 l 0.77,-0.74 q 0.43,-0.4 0.42,-0.98 l -0.11,-6.56 a 1.94,1.93 74.5 0 1 0.96,-1.71 l 6.93,-4.05 a 1.24,1.22 -13 0 0 0.59,-0.93 q 0.24,-2.5 2.64,-2.06 a 1.82,1.82 0 0 1 1.49,1.9 c -0.07,1.28 -1.26,2.75 -2.65,1.99 q -0.27,-0.15 -0.57,-0.23 a 1.48,1.48 0 0 0 -1.14,0.14 l -6.76,3.89 a 1.1,1.09 74.8 0 0 -0.55,0.97 l 0.04,6.86 a 1.18,1.16 17.2 0 0 0.52,0.97 z"
       id="path935" />
    <path
       fill="#7e7e7e"
       d="m 127.32,167.04 c 0.26,2.53 -0.68,5.91 3.15,6.23 q -1.27,0.25 -2.52,0.06 -0.53,-0.08 -0.54,-0.62 z"
       id="path945" />
    <path
       fill="#7e7e7e"
       d="m 142.77,169.25 q 0.78,3.59 -1.02,4.28 -2.6,0.99 -5.45,-0.72 0.72,-0.44 2.16,-0.17 1.55,0.29 2.1,0.11 1.47,-0.47 1.56,-2.49 0.03,-0.74 0.65,-1.01 z"
       id="path949" />
    <path
       fill="#7e7e7e"
       d="m 170.37,171.44 q 0.23,1.04 -0.37,1.58 -0.39,0.34 -1.36,0.33 -2.55,-0.02 -4.51,1.1 -5.01,2.87 -10.11,5.82 a 1.69,1.67 75.3 0 0 -0.84,1.46 l 0.07,6.51 a 2.36,2.35 -15.3 0 1 -1.19,2.08 l -7.82,4.49 a 1.56,1.56 0 0 0 -0.78,1.35 l -0.01,15.37 q 0,0.62 0.44,1.05 c 1.17,1.12 1.92,2.09 0.44,3.54 a 1.87,1.86 -51.5 0 1 -2.28,0.26 c -1.85,-1.12 -1.27,-2.67 0.05,-3.84 q 0.38,-0.33 0.38,-0.84 l -0.03,-16.06 a 1.68,1.67 75.3 0 1 0.85,-1.46 l 8.31,-4.69 a 1.38,1.37 75.1 0 0 0.7,-1.22 l -0.03,-7.24 a 1.35,1.35 0 0 1 0.68,-1.17 q 5.17,-2.95 10.39,-5.98 1.32,-0.77 0.68,-2.09 1.07,0.09 1.12,1.14 0.02,0.69 0.68,0.52 l 2.3,-0.59 q 0.44,-0.11 0.72,-0.48 0.67,-0.88 1.52,-0.94 z"
       id="path951" />
    <path
       fill="#7e7e7e"
       d="m 99.28,172.2 1.3,1.17 -0.01,28.32 q 0,0.66 0.58,0.97 c 1.61,0.85 1.36,3.02 -0.27,3.73 a 2,2 0 0 1 -2.45,-0.71 q -1.26,-1.86 0.67,-3.07 0.47,-0.3 0.47,-0.86 z"
       id="path953" />
    <path
       fill="#7e7e7e"
       d="m 105.8,172.35 q -0.09,16.2 -0.17,32.28 0,0.93 0.8,1.37 0.59,0.32 0.8,0.96 0.58,1.8 -1.13,2.55 c -2.58,1.14 -4.07,-2.41 -1.82,-3.73 q 0.46,-0.27 0.46,-0.8 l 0.06,-31.03 q 0,-0.53 -0.5,-0.72 -0.82,-0.3 -2.05,-0.01 2.34,-0.94 3.55,-0.87 z"
       id="path955" />
    <path
       fill="#7e7e7e"
       d="m 123.69,173.47 q -0.51,0.61 -0.5,1.53 0.24,14.38 0.06,39.89 0,0.61 0.53,0.9 1.91,1.05 0.79,2.89 a 2.04,2.03 35.9 0 1 -3.06,0.49 q -1.25,-1.07 -0.62,-2.54 0.22,-0.52 0.75,-0.69 0.69,-0.24 0.68,-0.94 -0.04,-20.83 -0.05,-41.76 0.43,0.11 0.96,-0.5 0.21,-0.24 0.46,0.73 z"
       id="path957" />
    <path
       fill="#7e7e7e"
       d="m 93.45,173.26 q 0.94,0.27 1.51,-0.03 l -0.31,25.04 q -0.01,0.56 0.44,0.91 0.69,0.52 1.13,1.28 0.25,0.41 0.11,0.88 -0.31,1.1 -1.26,1.65 a 1.91,1.91 0 0 1 -2.68,-0.79 q -0.91,-1.81 0.92,-3.07 0.48,-0.33 0.47,-0.91 z"
       id="path959" />
    <path
       fill="#7e7e7e"
       d="m 148.78,173.21 q 0.33,-0.02 0.66,1.14 l -11.29,6.54 a 1.57,1.56 75.2 0 0 -0.79,1.36 l -0.05,33.05 a 0.84,0.83 14.7 0 0 0.43,0.73 c 2.77,1.56 0.39,5.4 -2.08,3.72 a 2.06,2.06 0 0 1 -0.2,-3.26 l 0.51,-0.44 a 1.14,1.14 0 0 0 0.39,-0.86 l -0.07,-33.16 a 1.71,1.71 0 0 1 0.86,-1.5 q 5.44,-3.16 11.12,-6.5 0.53,-0.31 0.51,-0.82 z"
       id="path961" />
    <path
       fill="#7e7e7e"
       d="m 80.61,177.23 q 0,-1 -0.87,-0.5 l -4.01,2.33 q -0.7,0.4 -0.69,1.21 l 0.01,6.32 q 0,0.7 0.54,1.14 c 1.45,1.2 1.67,2.89 -0.22,3.81 q -1.06,0.51 -1.99,-0.22 -0.91,-0.71 -0.91,-1.79 c 0.01,-1.01 0.64,-1.22 1.29,-1.75 a 1.23,1.23 0 0 0 0.46,-0.96 l -0.01,-7.05 a 1.62,1.61 -15.4 0 1 0.8,-1.39 l 5.61,-3.28 a 0.69,0.69 0 0 1 1.04,0.59 q 0.05,7.29 -0.07,14.78 c -0.01,0.75 0.27,1.28 0.9,1.69 a 1.78,1.77 -57.4 0 1 0.53,2.43 q -0.89,1.41 -2.5,1.06 a 1.95,1.95 0 0 1 -1.02,-3.23 l 0.7,-0.76 q 0.46,-0.51 0.46,-1.19 z"
       id="path963" />
    <path
       fill="#7e7e7e"
       d="m 164.85,198.72 q 0.1,-2.97 -0.08,-5.82 c -0.06,-1.04 0.1,-2.22 1.08,-2.79 q 9.39,-5.38 19.46,-11.19 0.79,-0.45 0.86,-1.34 c 0.14,-1.61 1.66,-2.56 3.11,-1.72 a 2.08,2.08 0 0 1 0.66,2.99 q -1.04,1.48 -2.79,0.56 -0.49,-0.25 -0.97,0.02 l -19.98,11.53 a 0.96,0.94 75.6 0 0 -0.48,0.83 l 0.04,6.93 q 0,0.58 0.51,0.87 c 2.24,1.25 1.05,3.99 -1.27,3.95 a 1.65,1.64 80.8 0 1 -1.52,-1.1 q -0.64,-1.85 0.82,-2.76 0.53,-0.33 0.55,-0.96 z"
       id="path965" />
    <path
       fill="#7e7e7e"
       d="m 129.61,175.74 1.01,0.28 -0.12,42.77 q -0.01,0.54 0.33,0.97 0.28,0.36 0.67,0.61 a 1.68,1.68 0 0 1 0.42,2.46 q -0.97,1.24 -2.4,0.91 a 1.98,1.97 -77.8 0 1 -1.49,-2.32 q 0.2,-0.99 1.01,-1.51 0.56,-0.35 0.56,-1.01 z"
       id="path967" />
    <path
       fill="#7e7e7e"
       d="m 113.52,176.01 c 1.43,0.35 2.74,1.3 2.74,2.87 q 0.02,16.47 0.03,32.2 0,0.53 0.42,0.86 l 0.8,0.63 q 0.48,0.37 0.48,0.98 -0.01,1.61 -1.39,2.15 a 2.18,2.17 58.6 0 1 -2.43,-0.59 c -1.19,-1.38 -0.07,-2.42 0.84,-3.4 a 1.14,1.13 -23.6 0 0 0.31,-0.78 l -0.02,-32.27 q 0,-0.5 -0.35,-0.84 -0.93,-0.91 -2.26,-1.5 0.87,-0.1 0.83,-0.31 z"
       id="path969" />
    <path
       fill="#7e7e7e"
       d="m 66.84,180.88 q -1.81,0.72 -2.13,2.46 a 1.99,1.99 0 0 1 -2.55,1.55 q -1.3,-0.41 -1.56,-1.84 a 1.75,1.74 -23.1 0 1 0.69,-1.7 q 1.52,-1.11 2.5,-0.24 0.45,0.39 0.96,0.09 l 3.03,-1.78 a 0.5,0.49 -15.1 0 1 0.75,0.43 l -0.01,2.76 q 0,0.66 0.53,1.06 2.08,1.53 0.5,3.43 a 1.91,1.91 0 0 1 -2.37,0.45 q -1.42,-0.76 -1.19,-2.37 a 1.37,1.36 -15.3 0 1 0.53,-0.92 q 1.46,-1.12 1.02,-3.02 a 0.52,0.52 0 0 0 -0.7,-0.36 z"
       id="path971" />
    <path
       fill="#7e7e7e"
       d="m 186.1,185.01 -13.75,7.95 a 2.04,2.04 0 0 0 -0.53,3.09 l 1.03,1.22 q 0.41,0.48 0.27,1.09 -0.27,1.15 -1.23,1.69 a 1.88,1.88 0 0 1 -2.11,-0.16 c -1.71,-1.37 -0.78,-2.74 0.4,-3.86 q 0.44,-0.42 0.3,-1.02 -0.41,-1.71 1.14,-2.62 6.72,-3.92 13.89,-8.06 0.4,-0.24 0.6,-0.63 0.2,-0.4 0.16,-0.86 -0.06,-0.56 0.35,-0.94 1.02,-0.99 2.49,-0.49 a 1.84,1.84 0 0 1 1.14,2.33 q -0.38,1.11 -1.4,1.61 -0.53,0.26 -1.06,-0.01 l -0.69,-0.36 q -0.51,-0.26 -1,0.03 z"
       id="path973" />
    <path
       fill="#7e7e7e"
       d="m 110.19,207.78 -0.07,-13.94 q 0,-0.56 -0.39,-0.97 l -1,-1.05 a 1.34,1.32 -68.2 0 1 -0.36,-0.86 q -0.07,-1.52 1.37,-2.2 a 2.05,2.04 52.9 0 1 2.19,0.31 c 0.9,0.77 1.15,2.18 0.13,3 q -0.42,0.33 -0.72,0.78 -0.34,0.51 -0.34,1.12 l 0.03,13.98 q 0,0.63 0.52,0.96 1.68,1.05 0.82,2.84 a 1.93,1.92 -70.2 0 1 -2.2,1.04 c -2.18,-0.55 -2.37,-2.82 -0.52,-4.01 q 0.54,-0.35 0.54,-1 z"
       id="path975" />
    <path
       fill="#7e7e7e"
       d="m 149.36,200.59 a 1.38,1.38 0 0 1 0.59,-1.15 l 1.84,-1.27 q 0.46,-0.32 0.49,-0.87 c 0.07,-1.75 1.81,-2.73 3.29,-1.76 a 2.03,2.03 0 0 1 0.83,2.32 q -0.32,0.99 -1.32,1.41 -0.58,0.24 -1.13,-0.06 -1.71,-0.92 -3.43,0.88 a 0.98,0.96 66.8 0 0 -0.27,0.7 l 0.03,6.99 q 0,0.65 0.56,0.99 c 2.2,1.33 0.62,4.9 -2.02,3.61 a 1.93,1.92 -60.9 0 1 -0.78,-2.76 q 0.35,-0.56 0.9,-0.98 0.46,-0.37 0.46,-0.96 z"
       id="path977" />
  </g>
</svg>
