<?xml version="1.0" encoding="UTF-8" standalone="no"?>
<!DOCTYPE svg PUBLIC "-//W3C//DTD SVG 1.1//EN" "http://www.w3.org/Graphics/SVG/1.1/DTD/svg11.dtd">
<svg xmlns="http://www.w3.org/2000/svg" version="1.1" viewBox="0.00 0.00 200.00 200.00">
<path fill="#dddddd" d="
  M 199.40 99.70
  A 99.40 99.40 0.0 0 1 100.00 199.10
  A 99.40 99.40 0.0 0 1 0.60 99.70
  A 99.40 99.40 0.0 0 1 100.00 0.30
  A 99.40 99.40 0.0 0 1 199.40 99.70
  Z
  M 143.55 95.58
  A 44.73 44.73 0.0 0 0 98.82 50.85
  A 44.73 44.73 0.0 0 0 54.09 95.58
  A 44.73 44.73 0.0 0 0 98.82 140.31
  A 44.73 44.73 0.0 0 0 143.55 95.58
  Z
  M 86.27 194.39
  C 115.35 198.50 144.77 189.44 166.17 169.09
  Q 166.45 168.82 166.21 168.50
  C 158.84 158.82 148.96 151.73 137.05 149.19
  Q 131.95 148.11 122.56 148.17
  Q 98.95 148.34 76.61 148.19
  Q 67.56 148.13 62.32 149.33
  C 50.63 152.02 41.12 158.95 33.81 168.46
  Q 33.48 168.89 33.88 169.25
  Q 56.81 190.23 86.27 194.39
  Z"
/>
</svg>
