<?xml version="1.0" encoding="UTF-8" standalone="no"?>
<svg
   version="1.1"
   viewBox="0.00 0.00 320.00 320.00"
   id="svg27"
   sodipodi:docname="error.svg"
   inkscape:version="1.1 (c68e22c387, 2021-05-23)"
   xmlns:inkscape="http://www.inkscape.org/namespaces/inkscape"
   xmlns:sodipodi="http://sodipodi.sourceforge.net/DTD/sodipodi-0.dtd"
   xmlns="http://www.w3.org/2000/svg"
   xmlns:svg="http://www.w3.org/2000/svg">
  <defs
     id="defs31" />
  <sodipodi:namedview
     id="namedview29"
     pagecolor="#505050"
     bordercolor="#ffffff"
     borderopacity="1"
     inkscape:pageshadow="0"
     inkscape:pageopacity="0"
     inkscape:pagecheckerboard="1"
     showgrid="false"
     inkscape:snap-global="false"
     inkscape:zoom="0.32617188"
     inkscape:cx="1344.3832"
     inkscape:cy="590.17964"
     inkscape:window-width="1920"
     inkscape:window-height="1017"
     inkscape:window-x="-8"
     inkscape:window-y="-8"
     inkscape:window-maximized="1"
     inkscape:current-layer="svg27" />
  <path
     stroke="#f68d97"
     stroke-width="2.00"
     fill="none"
     stroke-linecap="butt"
     vector-effect="non-scaling-stroke"
     d="   M 159.80 198.85   A 0.35 0.35 0.0 0 1 160.30 198.85   L 205.59 244.15   A 0.35 0.35 0.0 0 0 206.09 244.15   L 239.40 210.84   A 0.35 0.35 0.0 0 0 239.40 210.34   L 194.11 165.05   A 0.35 0.35 0.0 0 1 194.11 164.55   L 239.29 119.37   A 0.35 0.35 0.0 0 0 239.29 118.87   L 206.09 85.67   A 0.35 0.35 0.0 0 0 205.59 85.67   L 160.41 130.86   A 0.35 0.35 0.0 0 1 159.91 130.86   L 114.63 85.57   A 0.35 0.35 0.0 0 0 114.13 85.57   L 80.82 118.87   A 0.35 0.35 0.0 0 0 80.82 119.37   L 126.11 164.66   A 0.35 0.35 0.0 0 1 126.11 165.16   L 80.92 210.35   A 0.35 0.35 0.0 0 0 80.92 210.85   L 114.12 244.05   A 0.35 0.35 0.0 0 0 114.62 244.05   L 159.80 198.85"
     id="path21" />
  <path
     fill="#ed1b2e"
     d="   M 150.89 0.00   L 169.48 0.00   Q 208.38 2.55 241.00 21.68   Q 277.03 42.82 298.69 79.56   Q 317.09 110.79 320.00 148.90   L 320.00 171.22   Q 316.12 220.04 287.44 257.19   Q 262.40 289.64 225.69 306.16   Q 198.98 318.19 168.61 320.00   L 151.52 320.00   Q 105.71 317.18 69.60 292.15   Q 35.80 268.72 17.41 232.76   Q 1.46 201.60 0.00 165.61   L 0.00 154.27   Q 1.67 114.28 21.12 80.37   Q 38.83 49.50 68.55 28.56   Q 104.77 3.03 150.89 0.00   Z   M 159.80 198.85   A 0.35 0.35 0.0 0 1 160.30 198.85   L 205.59 244.15   A 0.35 0.35 0.0 0 0 206.09 244.15   L 239.40 210.84   A 0.35 0.35 0.0 0 0 239.40 210.34   L 194.11 165.05   A 0.35 0.35 0.0 0 1 194.11 164.55   L 239.29 119.37   A 0.35 0.35 0.0 0 0 239.29 118.87   L 206.09 85.67   A 0.35 0.35 0.0 0 0 205.59 85.67   L 160.41 130.86   A 0.35 0.35 0.0 0 1 159.91 130.86   L 114.63 85.57   A 0.35 0.35 0.0 0 0 114.13 85.57   L 80.82 118.87   A 0.35 0.35 0.0 0 0 80.82 119.37   L 126.11 164.66   A 0.35 0.35 0.0 0 1 126.11 165.16   L 80.92 210.35   A 0.35 0.35 0.0 0 0 80.92 210.85   L 114.12 244.05   A 0.35 0.35 0.0 0 0 114.62 244.05   L 159.80 198.85   Z"
     id="path23" />
  <path
     fill="#ffffff"
     d="   M 159.80 198.85   L 114.62 244.05   A 0.35 0.35 0.0 0 1 114.12 244.05   L 80.92 210.85   A 0.35 0.35 0.0 0 1 80.92 210.35   L 126.11 165.16   A 0.35 0.35 0.0 0 0 126.11 164.66   L 80.82 119.37   A 0.35 0.35 0.0 0 1 80.82 118.87   L 114.13 85.57   A 0.35 0.35 0.0 0 1 114.63 85.57   L 159.91 130.86   A 0.35 0.35 0.0 0 0 160.41 130.86   L 205.59 85.67   A 0.35 0.35 0.0 0 1 206.09 85.67   L 239.29 118.87   A 0.35 0.35 0.0 0 1 239.29 119.37   L 194.11 164.55   A 0.35 0.35 0.0 0 0 194.11 165.05   L 239.40 210.34   A 0.35 0.35 0.0 0 1 239.40 210.84   L 206.09 244.15   A 0.35 0.35 0.0 0 1 205.59 244.15   L 160.30 198.85   A 0.35 0.35 0.0 0 0 159.80 198.85   Z"
     id="path25" />
</svg>
