<?xml version="1.0" encoding="UTF-8" standalone="no"?>
<svg
   version="1.1"
   id="Layer_1"
   x="0px"
   y="0px"
   viewBox="0 0 92.27 122.88"
   style="enable-background:new 0 0 92.27 122.88"
   xml:space="preserve"
   sodipodi:docname="flame.svg"
   inkscape:version="1.1 (c68e22c387, 2021-05-23)"
   xmlns:inkscape="http://www.inkscape.org/namespaces/inkscape"
   xmlns:sodipodi="http://sodipodi.sourceforge.net/DTD/sodipodi-0.dtd"
   xmlns="http://www.w3.org/2000/svg"
   xmlns:svg="http://www.w3.org/2000/svg"><defs
     id="defs848" /><sodipodi:namedview
     id="namedview846"
     pagecolor="#505050"
     bordercolor="#ffffff"
     borderopacity="1"
     inkscape:pageshadow="0"
     inkscape:pageopacity="0"
     inkscape:pagecheckerboard="1"
     showgrid="false"
     inkscape:zoom="4.8049655"
     inkscape:cx="46.306264"
     inkscape:cy="56.712166"
     inkscape:window-width="1920"
     inkscape:window-height="1017"
     inkscape:window-x="-8"
     inkscape:window-y="-8"
     inkscape:window-maximized="1"
     inkscape:current-layer="Layer_1" /><style
     type="text/css"
     id="style837">.st0{fill-rule:evenodd;clip-rule:evenodd;fill:#EC6F59;} .st1{fill-rule:evenodd;clip-rule:evenodd;fill:#FAD15C;}</style><g
     id="g843"><path
       class="st0"
       d="M18.61,54.89C15.7,28.8,30.94,10.45,59.52,0C42.02,22.71,74.44,47.31,76.23,70.89 c4.19-7.15,6.57-16.69,7.04-29.45c21.43,33.62,3.66,88.57-43.5,80.67c-4.33-0.72-8.5-2.09-12.3-4.13C10.27,108.8,0,88.79,0,69.68 C0,57.5,5.21,46.63,11.95,37.99C12.85,46.45,14.77,52.76,18.61,54.89L18.61,54.89z"
       id="path839" /><path
       class="st1"
       d="M33.87,92.58c-4.86-12.55-4.19-32.82,9.42-39.93c0.1,23.3,23.05,26.27,18.8,51.14 c3.92-4.44,5.9-11.54,6.25-17.15c6.22,14.24,1.34,25.63-7.53,31.43c-26.97,17.64-50.19-18.12-34.75-37.72 C26.53,84.73,31.89,91.49,33.87,92.58L33.87,92.58z"
       id="path841" /></g></svg>
