<?xml version="1.0" encoding="UTF-8" standalone="no"?>
<svg
   version="1.1"
   id="Layer_1"
   x="0px"
   y="0px"
   viewBox="0 0 92.27 122.88"
   style="enable-background:new 0 0 92.27 122.88"
   xml:space="preserve"
   sodipodi:docname="no-flame.svg"
   inkscape:version="1.1 (c68e22c387, 2021-05-23)"
   xmlns:inkscape="http://www.inkscape.org/namespaces/inkscape"
   xmlns:sodipodi="http://sodipodi.sourceforge.net/DTD/sodipodi-0.dtd"
   xmlns="http://www.w3.org/2000/svg"
   xmlns:svg="http://www.w3.org/2000/svg"><defs
     id="defs848" /><sodipodi:namedview
     id="namedview846"
     pagecolor="#505050"
     bordercolor="#ffffff"
     borderopacity="1"
     inkscape:pageshadow="0"
     inkscape:pageopacity="0"
     inkscape:pagecheckerboard="1"
     showgrid="false"
     inkscape:zoom="3.3976237"
     inkscape:cx="56.657246"
     inkscape:cy="76.082587"
     inkscape:window-width="1920"
     inkscape:window-height="1017"
     inkscape:window-x="-8"
     inkscape:window-y="-8"
     inkscape:window-maximized="1"
     inkscape:current-layer="Layer_1" /><style
     type="text/css"
     id="style837">.st0{fill-rule:evenodd;clip-rule:evenodd;fill:#EC6F59;} .st1{fill-rule:evenodd;clip-rule:evenodd;fill:#FAD15C;}</style><g
     id="g843"
     style="opacity:0.75"
     transform="matrix(0.8668772,0,0,0.8668772,4.9340031,8.7807371)"><path
       class="st0"
       d="M 18.61,54.89 C 15.7,28.8 30.94,10.45 59.52,0 42.02,22.71 74.44,47.31 76.23,70.89 80.42,63.74 82.8,54.2 83.27,41.44 c 21.43,33.62 3.66,88.57 -43.5,80.67 -4.33,-0.72 -8.5,-2.09 -12.3,-4.13 C 10.27,108.8 0,88.79 0,69.68 0,57.5 5.21,46.63 11.95,37.99 c 0.9,8.46 2.82,14.77 6.66,16.9 z"
       id="path839" /><path
       class="st1"
       d="m 33.87,92.58 c -4.86,-12.55 -4.19,-32.82 9.42,-39.93 0.1,23.3 23.05,26.27 18.8,51.14 3.92,-4.44 5.9,-11.54 6.25,-17.15 6.22,14.24 1.34,25.63 -7.53,31.43 -26.97,17.64 -50.19,-18.12 -34.75,-37.72 0.47,4.38 5.83,11.14 7.81,12.23 z"
       id="path841" /></g><g
     id="g836"
     style="clip-rule:evenodd;fill-rule:evenodd;image-rendering:optimizeQuality;shape-rendering:geometricPrecision;text-rendering:geometricPrecision"
     transform="matrix(0.19359524,0,0,0.19359524,1.3839432,4.7255021)"><path
       style="opacity:0.982"
       fill="#fe0000"
       d="m 317.5,-0.5 c 6.333,0 12.667,0 19,0 29.274,4.2114 58.608,8.87807 88,14 -11.33,15.9899 -22.163,32.3232 -32.5,49 -39.397,63.736 -78.397,127.736 -117,192 -5.921,10.173 -11.587,20.506 -17,31 -0.667,2 -0.667,4 0,6 38.833,32.833 77.667,65.667 116.5,98.5 25.083,25.07 47.917,51.904 68.5,80.5 7.896,15.104 14.063,30.771 18.5,47 0,1.333 0,2.667 0,4 -13.931,-4.798 -27.264,-10.964 -40,-18.5 -27.595,-15.935 -54.928,-32.269 -82,-49 -15.686,-10.51 -31.019,-21.51 -46,-33 -3.523,-4.022 -6.857,-8.189 -10,-12.5 -8.784,-3.559 -17.451,-7.392 -26,-11.5 -2.916,-4.92 -6.582,-9.253 -11,-13 -8.415,-5.625 -16.915,-11.125 -25.5,-16.5 -9.667,12.329 -17,25.996 -22,41 -10.321,8.322 -19.988,17.322 -29,27 -23.284,30.952 -46.951,61.619 -71,92 -15.0086,16.685 -31.5086,31.518 -49.5,44.5 -13.9976,10.167 -29.3309,17.334 -46,21.5 -1.33333,0 -2.666667,0 -4,0 0,-0.667 0,-1.333 0,-2 12.1815,-20.362 25.0148,-40.362 38.5,-60 40.0123,-68.017 79.012,-136.684 117,-206 2.134,-3.863 2.634,-7.863 1.5,-12 -40.127,-29.907 -82.1275,-57.074 -126,-81.5 -0.4574,-0.414 -0.7907,-0.914 -1,-1.5 1.5,-3 3,-6 4.5,-9 14.4729,-20.61 30.1396,-40.276 47,-59 8.0482,3.272 15.5482,7.439 22.5,12.5 30.154,23.243 60.487,46.243 91,69 1.665,0.788 3.331,1.122 5,1 11.471,-20.44 22.304,-41.274 32.5,-62.5 27.442,-61.493 55.942,-122.4927 85.5,-183 z"
       id="path834" /></g></svg>
