<?xml version="1.0" encoding="UTF-8" standalone="no"?>
<svg
   id="Layer_1"
   data-name="Layer 1"
   viewBox="0 0 122.88 122.88"
   version="1.1"
   sodipodi:docname="online.svg"
   inkscape:version="1.1 (c68e22c387, 2021-05-23)"
   xmlns:inkscape="http://www.inkscape.org/namespaces/inkscape"
   xmlns:sodipodi="http://sodipodi.sourceforge.net/DTD/sodipodi-0.dtd"
   xmlns="http://www.w3.org/2000/svg"
   xmlns:svg="http://www.w3.org/2000/svg"
   xmlns:rdf="http://www.w3.org/1999/02/22-rdf-syntax-ns#"
   xmlns:cc="http://creativecommons.org/ns#"
   xmlns:dc="http://purl.org/dc/elements/1.1/">
  <sodipodi:namedview
     id="namedview852"
     pagecolor="#505050"
     bordercolor="#ffffff"
     borderopacity="1"
     inkscape:pageshadow="0"
     inkscape:pageopacity="0"
     inkscape:pagecheckerboard="1"
     showgrid="false"
     inkscape:zoom="4.8049655"
     inkscape:cx="70.03172"
     inkscape:cy="67.742422"
     inkscape:window-width="1920"
     inkscape:window-height="1017"
     inkscape:window-x="-8"
     inkscape:window-y="-8"
     inkscape:window-maximized="1"
     inkscape:current-layer="Layer_1" />
  <defs
     id="defs841">
    <style
       id="style839">.cls-1{fill:#01a437;}.cls-1,.cls-3{fill-rule:evenodd;}.cls-2{fill:#fff;}.cls-3{fill:#42c76e;}</style>
  </defs>
  <title
     id="title843">turn-on</title>
  <path
     class="cls-1"
     d="M61.44,0A61.44,61.44,0,1,1,0,61.44,61.44,61.44,0,0,1,61.44,0Z"
     id="path845" />
  <path
     class="cls-2"
     d="M81,44.75a7.08,7.08,0,0,1,10.71-9.27,40,40,0,1,1-60.87.39A7.07,7.07,0,0,1,41.67,45,25.85,25.85,0,1,0,81,44.75ZM68.54,47.92a7.1,7.1,0,1,1-14.2,0V26.74a7.1,7.1,0,1,1,14.2,0V47.92Z"
     id="path847" />
  <path
     class="cls-3"
     d="M61.44,2.23a59.15,59.15,0,0,1,59.15,59.15c0,.77,0,1.54,0,2.31a59.14,59.14,0,0,0-118.2,0c0-.77,0-1.54,0-2.31A59.15,59.15,0,0,1,61.44,2.23Z"
     id="path849" />
  <metadata
     id="metadata934">
    <rdf:RDF>
      <cc:Work
         rdf:about="">
        <dc:title>turn-on</dc:title>
      </cc:Work>
    </rdf:RDF>
  </metadata>
</svg>
