<?xml version="1.0" encoding="UTF-8" standalone="no"?>
<svg
   id="Layer_1"
   data-name="Layer 1"
   viewBox="0 0 122.88 122.88"
   version="1.1"
   sodipodi:docname="simple_mode.svg"
   inkscape:version="1.1 (c68e22c387, 2021-05-23)"
   xmlns:inkscape="http://www.inkscape.org/namespaces/inkscape"
   xmlns:sodipodi="http://sodipodi.sourceforge.net/DTD/sodipodi-0.dtd"
   xmlns="http://www.w3.org/2000/svg"
   xmlns:svg="http://www.w3.org/2000/svg"
   xmlns:rdf="http://www.w3.org/1999/02/22-rdf-syntax-ns#"
   xmlns:cc="http://creativecommons.org/ns#"
   xmlns:dc="http://purl.org/dc/elements/1.1/">
  <sodipodi:namedview
     id="namedview852"
     pagecolor="#505050"
     bordercolor="#ffffff"
     borderopacity="1"
     inkscape:pageshadow="0"
     inkscape:pageopacity="0"
     inkscape:pagecheckerboard="1"
     showgrid="false"
     inkscape:zoom="3.3976237"
     inkscape:cx="36.054611"
     inkscape:cy="73.433677"
     inkscape:window-width="1920"
     inkscape:window-height="1017"
     inkscape:window-x="-8"
     inkscape:window-y="-8"
     inkscape:window-maximized="1"
     inkscape:current-layer="Layer_1"
     inkscape:snap-bbox="true"
     inkscape:bbox-paths="true"
     inkscape:bbox-nodes="true"
     inkscape:snap-bbox-edge-midpoints="true"
     inkscape:snap-bbox-midpoints="true"
     inkscape:object-paths="true" />
  <defs
     id="defs841">
    <style
       id="style839">.cls-1{fill:#01a437;}.cls-1,.cls-3{fill-rule:evenodd;}.cls-2{fill:#fff;}.cls-3{fill:#42c76e;}</style>
  </defs>
  <title
     id="title843">turn-on</title>
  <path
     class="cls-1"
     d="M61.44,0A61.44,61.44,0,1,1,0,61.44,61.44,61.44,0,0,1,61.44,0Z"
     id="path845" />
  <metadata
     id="metadata934">
    <rdf:RDF>
      <cc:Work
         rdf:about="">
        <dc:title>turn-on</dc:title>
      </cc:Work>
    </rdf:RDF>
  </metadata>
  <path
     style="fill:#ffffff;stroke-width:0.413277;fill-opacity:1"
     d="M 35.283739,26.003626 C 48.833458,15.998435 67.914571,15.312349 82.64679,24.300609 c 3.9045,2.382173 9.236629,7.211674 11.917716,10.794326 7.467944,9.979139 10.281944,22.546018 7.772854,34.712281 -0.32199,1.561305 -0.50259,2.755888 -0.40133,2.654631 0.10126,-0.101258 2.83799,-2.297681 6.08161,-4.880932 5.48251,-4.366317 5.9956,-4.690547 7.2914,-4.607654 1.8013,0.115237 2.56323,0.912245 2.5773,2.695909 0.0139,1.766276 0.25845,1.52835 -9.81241,9.546877 -7.20804,5.73912 -8.328024,6.512248 -9.421371,6.503631 -1.521455,-0.01199 -1.569931,-0.06289 -9.695312,-10.179816 -6.555774,-8.162604 -7.179158,-9.249788 -6.22518,-10.856704 0.591239,-0.995934 2.56225,-1.59842 3.638651,-1.112258 0.352141,0.159048 2.587068,2.696486 4.966499,5.638751 2.379428,2.942252 4.435344,5.350417 4.568705,5.351469 0.540917,0.0043 1.308131,-5.506508 1.320473,-9.484692 0.01545,-4.982432 -0.654357,-8.832876 -2.30077,-13.226161 C 89.745931,34.028795 76.634437,24.515483 61.962972,23.933535 52.197599,23.546184 43.441116,26.51605 36.597709,32.536477 c -3.144728,2.766532 -4.643116,3.185174 -6.118742,1.709548 -1.458966,-1.458966 -1.136491,-2.894964 1.143114,-5.090537 1.096614,-1.056168 2.744338,-2.474535 3.661659,-3.151864 z M 15.223818,47.224008 c 6.782652,-5.372752 7.855138,-6.101923 8.96201,-6.093193 1.540455,0.01214 1.572779,0.04603 9.711809,10.179949 6.555769,8.162595 7.179149,9.249783 6.225181,10.856702 -0.591248,0.995929 -2.562258,1.598428 -3.638666,1.112258 -0.352139,-0.159049 -2.587074,-2.696479 -4.966496,-5.638753 -2.379422,-2.942259 -4.447214,-5.350512 -4.595084,-5.351679 -0.546832,-0.0043 -1.429316,6.176936 -1.400676,9.810843 0.157006,19.920974 15.917244,36.098093 35.888191,36.837498 9.425452,0.348966 20.049249,-3.642746 26.281227,-9.874724 1.025123,-1.025123 1.731816,-1.409181 2.580668,-1.40249 1.54122,0.01215 2.933592,1.443547 2.946072,3.028677 0.0092,1.161989 -0.203443,1.440117 -2.951878,3.861637 C 82.208515,101.64997 72.3129,105.12896 61.220531,104.76227 50.692306,104.41423 41.772402,100.80185 33.846037,93.676175 22.453941,83.434824 17.413513,68.095255 20.508622,53.086273 l 0.576565,-2.795892 -1.123058,0.799711 c -0.617685,0.439839 -3.276561,2.538815 -5.908613,4.66439 -2.632055,2.125579 -5.1642879,3.976654 -5.62716,4.113474 C 6.5197818,60.431536 4.4043786,58.280003 4.9732,56.355771 5.3272604,55.15799 6.286182,54.303721 15.223836,47.223989 Z"
     id="path21" />
  <path
     style="fill:#ffffff;stroke-width:0.598988;fill-opacity:1"
     d="m 57.331927,77.996026 c -3.54782,-1.302103 -5.5944,-3.050012 -6.64471,-5.675021 -1.55929,-3.897048 -1.38222,-4.280846 1.87858,-4.071595 2.41396,0.154851 2.87378,0.383731 3.03391,1.509838 0.10392,0.729993 1.00051,2.010339 1.99268,2.845196 2.56348,2.15704 7.69137,2.181898 9.82561,0.04777 3.18645,-3.186434 1.16327,-6.737739 -4.97573,-8.733975 -8.30827,-2.70162 -11.51719,-5.678869 -11.52146,-10.689686 -0.005,-5.688333 4.36673,-9.063122 11.71742,-9.04569 3.18958,0.0068 4.70551,0.322469 6.5318,1.356843 2.84917,1.613728 5.10911,4.757713 5.10911,7.107728 0,1.61821 -0.13832,1.708404 -2.62057,1.708404 -2.43245,0 -2.64637,-0.129042 -2.9799,-1.796628 -0.6938,-3.468945 -6.12703,-5.283752 -9.9304,-3.316947 -2.82034,1.458469 -3.31982,4.676054 -1.05599,6.802803 0.76053,0.714486 3.34255,1.965628 5.73777,2.780291 8.31701,2.828805 10.84293,5.396199 10.84685,11.024901 0.002,2.921422 -0.20421,3.421629 -2.25747,5.474892 -3.45883,3.458825 -9.53173,4.563199 -14.6875,2.670967 z"
     id="path3757-4"
     sodipodi:nodetypes="sssssssccssssssscsss" />
  <path
     style="fill:#ffffff;fill-opacity:1;stroke-width:0.571246"
     d="m 154.88587,79.482613 c 0.0108,-0.252069 2.6511,-8.04159 5.8674,-17.310054 l 5.84785,-16.851775 2.91022,-0.169918 2.91022,-0.169916 5.78915,16.934099 c 3.18401,9.313761 5.78914,17.166348 5.78914,17.450218 0,0.283852 -1.27047,0.516098 -2.82329,0.516098 h -2.82327 l -1.28789,-3.998718 -1.28788,-3.99874 -6.31409,0.0043 -6.31407,0.0044 -1.15175,3.852399 -1.15172,3.852398 -2.98981,0.172727 c -1.6444,0.09499 -2.98099,-0.03347 -2.97021,-0.285623 z m 19.12141,-12.882896 c -0.13515,-0.392731 -1.19986,-3.670264 -2.36628,-7.283398 l -2.12075,-6.569339 -2.15005,6.569339 c -1.18254,3.613134 -2.16613,6.890667 -2.18578,7.283398 -0.0256,0.514478 1.23649,0.714059 4.51635,0.714059 3.39175,0 4.48945,-0.182007 4.30651,-0.714059 z"
     id="path3757-4-6"
     sodipodi:nodetypes="sscccssscccccccssssscssss" />
</svg>
