<?xml version="1.0" encoding="UTF-8" standalone="no"?>
<svg
   version="1.1"
   viewBox="0.00 0.00 320.00 320.00"
   id="svg27"
   sodipodi:docname="success.svg"
   inkscape:version="1.1 (c68e22c387, 2021-05-23)"
   xmlns:inkscape="http://www.inkscape.org/namespaces/inkscape"
   xmlns:sodipodi="http://sodipodi.sourceforge.net/DTD/sodipodi-0.dtd"
   xmlns="http://www.w3.org/2000/svg"
   xmlns:svg="http://www.w3.org/2000/svg">
  <defs
     id="defs31" />
  <sodipodi:namedview
     id="namedview29"
     pagecolor="#505050"
     bordercolor="#ffffff"
     borderopacity="1"
     inkscape:pageshadow="0"
     inkscape:pageopacity="0"
     inkscape:pagecheckerboard="1"
     showgrid="false"
     inkscape:snap-global="false"
     inkscape:zoom="0.92255338"
     inkscape:cx="-18.969092"
     inkscape:cy="229.25503"
     inkscape:window-width="1920"
     inkscape:window-height="1017"
     inkscape:window-x="-8"
     inkscape:window-y="-8"
     inkscape:window-maximized="1"
     inkscape:current-layer="svg27" />
  <g
     id="g157"
     transform="matrix(0.64840521,0,0,0.64840521,0.3079228,0.0803487)">
    <path
       fill="#01a601"
       d="m 351.63,24.62 q 0.56,0.27 0.08,0.65 -17.39,13.68 -35.8,29.25 -0.4,0.34 -0.91,0.17 -57.44,-20 -115.27,-6.61 C 84.73,74.73 16.76,194.35 52.09,307.01 c 27.18,86.68 109.19,144.94 200.16,142.12 93.58,-2.91 173.26,-69.4 192.63,-161.11 q 8.39,-39.68 0.71,-80.65 -0.1,-0.54 0.24,-0.98 l 31.41,-39.86 q 0.48,-0.61 0.76,0.11 2.73,7.19 4.65,14.57 19.07,73.4 -4.14,143.05 c -10.84,32.54 -29.73,64.58 -54.23,90.15 q -54.48,56.84 -131.07,72.29 -10.04,2.03 -20.12,3.07 -87.4,9 -161.02,-38.38 C 32.31,400.07 -10.39,304.84 3.2,211.08 11.64,152.92 40.52,99.93 84.75,61.28 158.47,-3.16 263.2,-17.28 351.63,24.62 Z"
       id="path123" />
    <path
       fill="#01a601"
       d="M 252.51,250.75 Q 315.14,149.27 403.58,69.34 c 1.45,-1.3 5.81,-3.1 7.75,-3.11 q 34.13,-0.06 63.63,-0.03 0.81,0 0.26,0.6 -11.32,12.33 -25.11,28.04 -115.96,132.09 -194.9,288.95 a 0.4,0.39 46.4 0 1 -0.71,-0.02 q -7.36,-16.56 -14.98,-31.41 C 212.65,299.95 175.43,255.01 127.14,221.85 a 0.37,0.37 0 0 1 -0.14,-0.4 l 4.6,-15.2 q 0.16,-0.54 0.73,-0.55 29.19,-0.36 57.2,-0.75 4.61,-0.07 8.58,2.3 31.1,18.59 53.52,43.58 0.49,0.54 0.88,-0.08 z"
       id="path125" />
  </g>
</svg>
